<?xml version="1.0" encoding="utf-8" standalone="no"?>
<!DOCTYPE svg PUBLIC "-//W3C//DTD SVG 1.1//EN"
  "http://www.w3.org/Graphics/SVG/1.1/DTD/svg11.dtd">
<svg xmlns:xlink="http://www.w3.org/1999/xlink" width="477.625313pt" height="214.66pt" viewBox="0 0 477.625313 214.66" xmlns="http://www.w3.org/2000/svg" version="1.1">
 <metadata>
  <rdf:RDF xmlns:dc="http://purl.org/dc/elements/1.1/" xmlns:cc="http://creativecommons.org/ns#" xmlns:rdf="http://www.w3.org/1999/02/22-rdf-syntax-ns#">
   <cc:Work>
    <dc:type rdf:resource="http://purl.org/dc/dcmitype/StillImage"/>
    <dc:date>2026-07-03T20:20:40.585098</dc:date>
    <dc:format>image/svg+xml</dc:format>
    <dc:creator>
     <cc:Agent>
      <dc:title>Matplotlib v3.11.0, https://matplotlib.org/</dc:title>
     </cc:Agent>
    </dc:creator>
   </cc:Work>
  </rdf:RDF>
 </metadata>
 <defs>
  <style type="text/css">*{stroke-linejoin: round; stroke-linecap: butt}</style>
 </defs>
 <g id="figure_1">
  <g id="patch_1">
   <path d="M 0 214.66
L 477.625313 214.66
L 477.625313 0
L 0 0
z
" style="fill: #ffffff"/>
  </g>
  <g id="axes_1">
   <g id="patch_2">
    <path d="M 315.5775 97.48
L 324.5775 84.88
L 333.5775 97.48
L 315.5775 97.48
z
" clip-path="url(#p6079fea948)" style="fill: none; stroke: #000000; stroke-width: 2; stroke-linecap: round"/>
   </g>
   <g id="line2d_1">
    <path d="M 155.3775 46.18
L 173.3775 46.18
L 191.3775 46.18
" clip-path="url(#p6079fea948)" style="fill: none; stroke: #000000; stroke-width: 2; stroke-linecap: round"/>
   </g>
   <g id="line2d_2">
    <path d="M 191.3775 46.18
L 218.3775 46.18
L 221.3775 37.18
L 227.3775 55.18
L 233.3775 37.18
L 239.3775 55.18
L 245.3775 37.18
L 251.3775 55.18
L 254.3775 46.18
L 281.3775 46.18
" clip-path="url(#p6079fea948)" style="fill: none; stroke: #000000; stroke-width: 2; stroke-linecap: round"/>
   </g>
   <g id="line2d_3">
    <path d="M 281.3775 46.18
L 281.3775 73.18
L 290.3775 76.18
L 272.3775 82.18
L 290.3775 88.18
L 272.3775 94.18
L 290.3775 100.18
L 272.3775 106.18
L 281.3775 109.18
L 281.3775 136.18
" clip-path="url(#p6079fea948)" style="fill: none; stroke: #000000; stroke-width: 2; stroke-linecap: round"/>
   </g>
   <g id="line2d_4">
    <path d="M 281.3775 136.18
L 281.3775 150.58
L 272.3775 150.58
L 290.3775 150.58
M 275.0775 154.9
L 287.6775 154.9
M 279.5775 159.22
L 283.1775 159.22
" clip-path="url(#p6079fea948)" style="fill: none; stroke: #000000; stroke-width: 2; stroke-linecap: round"/>
   </g>
   <g id="line2d_5">
    <path d="M 281.3775 46.18
L 302.9775 46.18
L 324.5775 46.18
" clip-path="url(#p6079fea948)" style="fill: none; stroke: #000000; stroke-width: 2; stroke-linecap: round"/>
   </g>
   <g id="line2d_6">
    <path d="M 324.5775 46.18
L 324.5775 84.88
M 315.5775 84.88
L 333.5775 84.88
M 324.5775 97.48
L 324.5775 136.18
" clip-path="url(#p6079fea948)" style="fill: none; stroke: #000000; stroke-width: 2; stroke-linecap: round"/>
   </g>
   <g id="line2d_7">
    <path d="M 337.1775 81.28
L 333.5775 84.88
" clip-path="url(#p6079fea948)" style="fill: none; stroke: #000000; stroke-width: 2; stroke-linecap: round"/>
   </g>
   <g id="line2d_8">
    <path d="M 311.9775 88.48
L 315.5775 84.88
" clip-path="url(#p6079fea948)" style="fill: none; stroke: #000000; stroke-width: 2; stroke-linecap: round"/>
   </g>
   <g id="line2d_9">
    <path d="M 324.5775 136.18
L 324.5775 150.58
L 315.5775 150.58
L 333.5775 150.58
M 318.2775 154.9
L 330.8775 154.9
M 322.7775 159.22
L 326.3775 159.22
" clip-path="url(#p6079fea948)" style="fill: none; stroke: #000000; stroke-width: 2; stroke-linecap: round"/>
   </g>
   <g id="line2d_10">
    <path d="M 281.3775 46.18
L 281.3775 28.18
L 281.3775 10.18
" clip-path="url(#p6079fea948)" style="fill: none; stroke: #000000; stroke-width: 2; stroke-linecap: round"/>
   </g>
   <g id="line2d_11">
    <path d="M 281.3775 10.18
L 328.1775 10.18
L 374.9775 10.18
" clip-path="url(#p6079fea948)" style="fill: none; stroke: #000000; stroke-width: 2; stroke-linecap: round"/>
   </g>
   <g id="text_1">
    <!-- R1 -->
    <g transform="translate(229.056484 21.089844) scale(0.11 -0.11)">
     <defs>
      <path id="DejaVuSans-35" d="M 2841 2188
Q 3044 2119 3236 1894
Q 3428 1669 3622 1275
L 4263 0
L 3584 0
L 2988 1197
Q 2756 1666 2539 1819
Q 2322 1972 1947 1972
L 1259 1972
L 1259 0
L 628 0
L 628 4666
L 2053 4666
Q 2853 4666 3247 4331
Q 3641 3997 3641 3322
Q 3641 2881 3436 2590
Q 3231 2300 2841 2188
z
M 1259 4147
L 1259 2491
L 2053 2491
Q 2509 2491 2742 2702
Q 2975 2913 2975 3322
Q 2975 3731 2742 3939
Q 2509 4147 2053 4147
L 1259 4147
z
" transform="scale(0.015625)"/>
      <path id="DejaVuSans-14" d="M 794 531
L 1825 531
L 1825 4091
L 703 3866
L 703 4441
L 1819 4666
L 2450 4666
L 2450 531
L 3481 531
L 3481 0
L 794 0
L 794 531
z
" transform="scale(0.015625)"/>
     </defs>
     <use xlink:href="#DejaVuSans-35"/>
     <use xlink:href="#DejaVuSans-14" transform="translate(69.484375 0)"/>
    </g>
    <!-- 10k -->
    <g transform="translate(226.193906 32.180937) scale(0.11 -0.11)">
     <defs>
      <path id="DejaVuSans-13" d="M 2034 4250
Q 1547 4250 1301 3770
Q 1056 3291 1056 2328
Q 1056 1369 1301 889
Q 1547 409 2034 409
Q 2525 409 2770 889
Q 3016 1369 3016 2328
Q 3016 3291 2770 3770
Q 2525 4250 2034 4250
z
M 2034 4750
Q 2819 4750 3233 4129
Q 3647 3509 3647 2328
Q 3647 1150 3233 529
Q 2819 -91 2034 -91
Q 1250 -91 836 529
Q 422 1150 422 2328
Q 422 3509 836 4129
Q 1250 4750 2034 4750
z
" transform="scale(0.015625)"/>
      <path id="DejaVuSans-4e" d="M 581 4863
L 1159 4863
L 1159 1991
L 2875 3500
L 3609 3500
L 1753 1863
L 3688 0
L 2938 0
L 1159 1709
L 1159 0
L 581 0
L 581 4863
z
" transform="scale(0.015625)"/>
     </defs>
     <use xlink:href="#DejaVuSans-14"/>
     <use xlink:href="#DejaVuSans-13" transform="translate(63.625 0)"/>
     <use xlink:href="#DejaVuSans-4e" transform="translate(127.25 0)"/>
    </g>
   </g>
   <g id="text_2">
    <!-- R2 -->
    <g transform="translate(293.9775 89.762031) scale(0.11 -0.11)">
     <defs>
      <path id="DejaVuSans-15" d="M 1228 531
L 3431 531
L 3431 0
L 469 0
L 469 531
Q 828 903 1448 1529
Q 2069 2156 2228 2338
Q 2531 2678 2651 2914
Q 2772 3150 2772 3378
Q 2772 3750 2511 3984
Q 2250 4219 1831 4219
Q 1534 4219 1204 4116
Q 875 4013 500 3803
L 500 4441
Q 881 4594 1212 4672
Q 1544 4750 1819 4750
Q 2544 4750 2975 4387
Q 3406 4025 3406 3419
Q 3406 3131 3298 2873
Q 3191 2616 2906 2266
Q 2828 2175 2409 1742
Q 1991 1309 1228 531
z
" transform="scale(0.015625)"/>
     </defs>
     <use xlink:href="#DejaVuSans-35"/>
     <use xlink:href="#DejaVuSans-15" transform="translate(69.484375 0)"/>
    </g>
    <!-- 2.7k -->
    <g transform="translate(293.9775 100.859141) scale(0.11 -0.11)">
     <defs>
      <path id="DejaVuSans-11" d="M 684 794
L 1344 794
L 1344 0
L 684 0
L 684 794
z
" transform="scale(0.015625)"/>
      <path id="DejaVuSans-1a" d="M 525 4666
L 3525 4666
L 3525 4397
L 1831 0
L 1172 0
L 2766 4134
L 525 4134
L 525 4666
z
" transform="scale(0.015625)"/>
     </defs>
     <use xlink:href="#DejaVuSans-15"/>
     <use xlink:href="#DejaVuSans-11" transform="translate(63.625 0)"/>
     <use xlink:href="#DejaVuSans-1a" transform="translate(95.40625 0)"/>
     <use xlink:href="#DejaVuSans-4e" transform="translate(159.03125 0)"/>
    </g>
   </g>
   <g id="text_3">
    <!-- D1  3.3V -->
    <g transform="translate(340.7775 89.683828) scale(0.11 -0.11)">
     <defs>
      <path id="DejaVuSans-27" d="M 1259 4147
L 1259 519
L 2022 519
Q 2988 519 3436 956
Q 3884 1394 3884 2338
Q 3884 3275 3436 3711
Q 2988 4147 2022 4147
L 1259 4147
z
M 628 4666
L 1925 4666
Q 3281 4666 3915 4102
Q 4550 3538 4550 2338
Q 4550 1131 3912 565
Q 3275 0 1925 0
L 628 0
L 628 4666
z
" transform="scale(0.015625)"/>
      <path id="DejaVuSans-3" transform="scale(0.015625)"/>
      <path id="DejaVuSans-16" d="M 2597 2516
Q 3050 2419 3304 2112
Q 3559 1806 3559 1356
Q 3559 666 3084 287
Q 2609 -91 1734 -91
Q 1441 -91 1130 -33
Q 819 25 488 141
L 488 750
Q 750 597 1062 519
Q 1375 441 1716 441
Q 2309 441 2620 675
Q 2931 909 2931 1356
Q 2931 1769 2642 2001
Q 2353 2234 1838 2234
L 1294 2234
L 1294 2753
L 1863 2753
Q 2328 2753 2575 2939
Q 2822 3125 2822 3475
Q 2822 3834 2567 4026
Q 2313 4219 1838 4219
Q 1578 4219 1281 4162
Q 984 4106 628 3988
L 628 4550
Q 988 4650 1302 4700
Q 1616 4750 1894 4750
Q 2613 4750 3031 4423
Q 3450 4097 3450 3541
Q 3450 3153 3228 2886
Q 3006 2619 2597 2516
z
" transform="scale(0.015625)"/>
      <path id="DejaVuSans-39" d="M 1831 0
L 50 4666
L 709 4666
L 2188 738
L 3669 4666
L 4325 4666
L 2547 0
L 1831 0
z
" transform="scale(0.015625)"/>
     </defs>
     <use xlink:href="#DejaVuSans-27"/>
     <use xlink:href="#DejaVuSans-14" transform="translate(77 0)"/>
     <use xlink:href="#DejaVuSans-3" transform="translate(140.625 0)"/>
     <use xlink:href="#DejaVuSans-3" transform="translate(172.40625 0)"/>
     <use xlink:href="#DejaVuSans-16" transform="translate(204.1875 0)"/>
     <use xlink:href="#DejaVuSans-11" transform="translate(267.8125 0)"/>
     <use xlink:href="#DejaVuSans-16" transform="translate(299.59375 0)"/>
     <use xlink:href="#DejaVuSans-39" transform="translate(363.21875 0)"/>
    </g>
    <!-- (optional) -->
    <g transform="translate(340.7775 99.715312) scale(0.11 -0.11)">
     <defs>
      <path id="DejaVuSans-b" d="M 1984 4856
Q 1566 4138 1362 3434
Q 1159 2731 1159 2009
Q 1159 1288 1364 580
Q 1569 -128 1984 -844
L 1484 -844
Q 1016 -109 783 600
Q 550 1309 550 2009
Q 550 2706 781 3412
Q 1013 4119 1484 4856
L 1984 4856
z
" transform="scale(0.015625)"/>
      <path id="DejaVuSans-52" d="M 1959 3097
Q 1497 3097 1228 2736
Q 959 2375 959 1747
Q 959 1119 1226 758
Q 1494 397 1959 397
Q 2419 397 2687 759
Q 2956 1122 2956 1747
Q 2956 2369 2687 2733
Q 2419 3097 1959 3097
z
M 1959 3584
Q 2709 3584 3137 3096
Q 3566 2609 3566 1747
Q 3566 888 3137 398
Q 2709 -91 1959 -91
Q 1206 -91 779 398
Q 353 888 353 1747
Q 353 2609 779 3096
Q 1206 3584 1959 3584
z
" transform="scale(0.015625)"/>
      <path id="DejaVuSans-53" d="M 1159 525
L 1159 -1331
L 581 -1331
L 581 3500
L 1159 3500
L 1159 2969
Q 1341 3281 1617 3432
Q 1894 3584 2278 3584
Q 2916 3584 3314 3078
Q 3713 2572 3713 1747
Q 3713 922 3314 415
Q 2916 -91 2278 -91
Q 1894 -91 1617 61
Q 1341 213 1159 525
z
M 3116 1747
Q 3116 2381 2855 2742
Q 2594 3103 2138 3103
Q 1681 3103 1420 2742
Q 1159 2381 1159 1747
Q 1159 1113 1420 752
Q 1681 391 2138 391
Q 2594 391 2855 752
Q 3116 1113 3116 1747
z
" transform="scale(0.015625)"/>
      <path id="DejaVuSans-57" d="M 1172 4494
L 1172 3500
L 2356 3500
L 2356 3053
L 1172 3053
L 1172 1153
Q 1172 725 1289 603
Q 1406 481 1766 481
L 2356 481
L 2356 0
L 1766 0
Q 1100 0 847 248
Q 594 497 594 1153
L 594 3053
L 172 3053
L 172 3500
L 594 3500
L 594 4494
L 1172 4494
z
" transform="scale(0.015625)"/>
      <path id="DejaVuSans-4c" d="M 603 3500
L 1178 3500
L 1178 0
L 603 0
L 603 3500
z
M 603 4863
L 1178 4863
L 1178 4134
L 603 4134
L 603 4863
z
" transform="scale(0.015625)"/>
      <path id="DejaVuSans-51" d="M 3513 2113
L 3513 0
L 2938 0
L 2938 2094
Q 2938 2591 2744 2837
Q 2550 3084 2163 3084
Q 1697 3084 1428 2787
Q 1159 2491 1159 1978
L 1159 0
L 581 0
L 581 3500
L 1159 3500
L 1159 2956
Q 1366 3272 1645 3428
Q 1925 3584 2291 3584
Q 2894 3584 3203 3211
Q 3513 2838 3513 2113
z
" transform="scale(0.015625)"/>
      <path id="DejaVuSans-44" d="M 2194 1759
Q 1497 1759 1228 1600
Q 959 1441 959 1056
Q 959 750 1161 570
Q 1363 391 1709 391
Q 2188 391 2477 730
Q 2766 1069 2766 1631
L 2766 1759
L 2194 1759
z
M 3341 1997
L 3341 0
L 2766 0
L 2766 531
Q 2569 213 2275 61
Q 1981 -91 1556 -91
Q 1019 -91 701 211
Q 384 513 384 1019
Q 384 1609 779 1909
Q 1175 2209 1959 2209
L 2766 2209
L 2766 2266
Q 2766 2663 2505 2880
Q 2244 3097 1772 3097
Q 1472 3097 1187 3025
Q 903 2953 641 2809
L 641 3341
Q 956 3463 1253 3523
Q 1550 3584 1831 3584
Q 2591 3584 2966 3190
Q 3341 2797 3341 1997
z
" transform="scale(0.015625)"/>
      <path id="DejaVuSans-4f" d="M 603 4863
L 1178 4863
L 1178 0
L 603 0
L 603 4863
z
" transform="scale(0.015625)"/>
      <path id="DejaVuSans-c" d="M 513 4856
L 1013 4856
Q 1481 4119 1714 3412
Q 1947 2706 1947 2009
Q 1947 1309 1714 600
Q 1481 -109 1013 -844
L 513 -844
Q 928 -128 1133 580
Q 1338 1288 1338 2009
Q 1338 2731 1133 3434
Q 928 4138 513 4856
z
" transform="scale(0.015625)"/>
     </defs>
     <use xlink:href="#DejaVuSans-b"/>
     <use xlink:href="#DejaVuSans-52" transform="translate(39.015625 0)"/>
     <use xlink:href="#DejaVuSans-53" transform="translate(100.203125 0)"/>
     <use xlink:href="#DejaVuSans-57" transform="translate(163.6875 0)"/>
     <use xlink:href="#DejaVuSans-4c" transform="translate(202.890625 0)"/>
     <use xlink:href="#DejaVuSans-52" transform="translate(230.671875 0)"/>
     <use xlink:href="#DejaVuSans-51" transform="translate(291.859375 0)"/>
     <use xlink:href="#DejaVuSans-44" transform="translate(355.234375 0)"/>
     <use xlink:href="#DejaVuSans-4f" transform="translate(416.515625 0)"/>
     <use xlink:href="#DejaVuSans-c" transform="translate(444.296875 0)"/>
    </g>
   </g>
   <g id="text_4">
    <!-- 14.4V charging -&gt; 3.06V at the GPIO; 12V -&gt; 2.55V; 9V cranking dip -&gt; 1.91V (reads low). -->
    <g transform="translate(70.729688 198.963437) scale(0.09 -0.09)">
     <defs>
      <path id="DejaVuSans-17" d="M 2419 4116
L 825 1625
L 2419 1625
L 2419 4116
z
M 2253 4666
L 3047 4666
L 3047 1625
L 3713 1625
L 3713 1100
L 3047 1100
L 3047 0
L 2419 0
L 2419 1100
L 313 1100
L 313 1709
L 2253 4666
z
" transform="scale(0.015625)"/>
      <path id="DejaVuSans-46" d="M 3122 3366
L 3122 2828
Q 2878 2963 2633 3030
Q 2388 3097 2138 3097
Q 1578 3097 1268 2742
Q 959 2388 959 1747
Q 959 1106 1268 751
Q 1578 397 2138 397
Q 2388 397 2633 464
Q 2878 531 3122 666
L 3122 134
Q 2881 22 2623 -34
Q 2366 -91 2075 -91
Q 1284 -91 818 406
Q 353 903 353 1747
Q 353 2603 823 3093
Q 1294 3584 2113 3584
Q 2378 3584 2631 3529
Q 2884 3475 3122 3366
z
" transform="scale(0.015625)"/>
      <path id="DejaVuSans-4b" d="M 3513 2113
L 3513 0
L 2938 0
L 2938 2094
Q 2938 2591 2744 2837
Q 2550 3084 2163 3084
Q 1697 3084 1428 2787
Q 1159 2491 1159 1978
L 1159 0
L 581 0
L 581 4863
L 1159 4863
L 1159 2956
Q 1366 3272 1645 3428
Q 1925 3584 2291 3584
Q 2894 3584 3203 3211
Q 3513 2838 3513 2113
z
" transform="scale(0.015625)"/>
      <path id="DejaVuSans-55" d="M 2631 2963
Q 2534 3019 2420 3045
Q 2306 3072 2169 3072
Q 1681 3072 1420 2755
Q 1159 2438 1159 1844
L 1159 0
L 581 0
L 581 3500
L 1159 3500
L 1159 2956
Q 1341 3275 1631 3429
Q 1922 3584 2338 3584
Q 2397 3584 2469 3576
Q 2541 3569 2628 3553
L 2631 2963
z
" transform="scale(0.015625)"/>
      <path id="DejaVuSans-4a" d="M 2906 1791
Q 2906 2416 2648 2759
Q 2391 3103 1925 3103
Q 1463 3103 1205 2759
Q 947 2416 947 1791
Q 947 1169 1205 825
Q 1463 481 1925 481
Q 2391 481 2648 825
Q 2906 1169 2906 1791
z
M 3481 434
Q 3481 -459 3084 -895
Q 2688 -1331 1869 -1331
Q 1566 -1331 1297 -1286
Q 1028 -1241 775 -1147
L 775 -588
Q 1028 -725 1275 -790
Q 1522 -856 1778 -856
Q 2344 -856 2625 -561
Q 2906 -266 2906 331
L 2906 616
Q 2728 306 2450 153
Q 2172 0 1784 0
Q 1141 0 747 490
Q 353 981 353 1791
Q 353 2603 747 3093
Q 1141 3584 1784 3584
Q 2172 3584 2450 3431
Q 2728 3278 2906 2969
L 2906 3500
L 3481 3500
L 3481 434
z
" transform="scale(0.015625)"/>
      <path id="DejaVuSans-10" d="M 313 2009
L 1997 2009
L 1997 1497
L 313 1497
L 313 2009
z
" transform="scale(0.015625)"/>
      <path id="DejaVuSans-21" d="M 678 3150
L 678 3719
L 4684 2266
L 4684 1747
L 678 294
L 678 863
L 3897 2003
L 678 3150
z
" transform="scale(0.015625)"/>
      <path id="DejaVuSans-19" d="M 2113 2584
Q 1688 2584 1439 2293
Q 1191 2003 1191 1497
Q 1191 994 1439 701
Q 1688 409 2113 409
Q 2538 409 2786 701
Q 3034 994 3034 1497
Q 3034 2003 2786 2293
Q 2538 2584 2113 2584
z
M 3366 4563
L 3366 3988
Q 3128 4100 2886 4159
Q 2644 4219 2406 4219
Q 1781 4219 1451 3797
Q 1122 3375 1075 2522
Q 1259 2794 1537 2939
Q 1816 3084 2150 3084
Q 2853 3084 3261 2657
Q 3669 2231 3669 1497
Q 3669 778 3244 343
Q 2819 -91 2113 -91
Q 1303 -91 875 529
Q 447 1150 447 2328
Q 447 3434 972 4092
Q 1497 4750 2381 4750
Q 2619 4750 2861 4703
Q 3103 4656 3366 4563
z
" transform="scale(0.015625)"/>
      <path id="DejaVuSans-48" d="M 3597 1894
L 3597 1613
L 953 1613
Q 991 1019 1311 708
Q 1631 397 2203 397
Q 2534 397 2845 478
Q 3156 559 3463 722
L 3463 178
Q 3153 47 2828 -22
Q 2503 -91 2169 -91
Q 1331 -91 842 396
Q 353 884 353 1716
Q 353 2575 817 3079
Q 1281 3584 2069 3584
Q 2775 3584 3186 3129
Q 3597 2675 3597 1894
z
M 3022 2063
Q 3016 2534 2758 2815
Q 2500 3097 2075 3097
Q 1594 3097 1305 2825
Q 1016 2553 972 2059
L 3022 2063
z
" transform="scale(0.015625)"/>
      <path id="DejaVuSans-2a" d="M 3809 666
L 3809 1919
L 2778 1919
L 2778 2438
L 4434 2438
L 4434 434
Q 4069 175 3628 42
Q 3188 -91 2688 -91
Q 1594 -91 976 548
Q 359 1188 359 2328
Q 359 3472 976 4111
Q 1594 4750 2688 4750
Q 3144 4750 3555 4637
Q 3966 4525 4313 4306
L 4313 3634
Q 3963 3931 3569 4081
Q 3175 4231 2741 4231
Q 1884 4231 1454 3753
Q 1025 3275 1025 2328
Q 1025 1384 1454 906
Q 1884 428 2741 428
Q 3075 428 3337 486
Q 3600 544 3809 666
z
" transform="scale(0.015625)"/>
      <path id="DejaVuSans-33" d="M 1259 4147
L 1259 2394
L 2053 2394
Q 2494 2394 2734 2622
Q 2975 2850 2975 3272
Q 2975 3691 2734 3919
Q 2494 4147 2053 4147
L 1259 4147
z
M 628 4666
L 2053 4666
Q 2838 4666 3239 4311
Q 3641 3956 3641 3272
Q 3641 2581 3239 2228
Q 2838 1875 2053 1875
L 1259 1875
L 1259 0
L 628 0
L 628 4666
z
" transform="scale(0.015625)"/>
      <path id="DejaVuSans-2c" d="M 628 4666
L 1259 4666
L 1259 0
L 628 0
L 628 4666
z
" transform="scale(0.015625)"/>
      <path id="DejaVuSans-32" d="M 2522 4238
Q 1834 4238 1429 3725
Q 1025 3213 1025 2328
Q 1025 1447 1429 934
Q 1834 422 2522 422
Q 3209 422 3611 934
Q 4013 1447 4013 2328
Q 4013 3213 3611 3725
Q 3209 4238 2522 4238
z
M 2522 4750
Q 3503 4750 4090 4092
Q 4678 3434 4678 2328
Q 4678 1225 4090 567
Q 3503 -91 2522 -91
Q 1538 -91 948 565
Q 359 1222 359 2328
Q 359 3434 948 4092
Q 1538 4750 2522 4750
z
" transform="scale(0.015625)"/>
      <path id="DejaVuSans-1e" d="M 750 3309
L 1409 3309
L 1409 2516
L 750 2516
L 750 3309
z
M 750 794
L 1409 794
L 1409 256
L 897 -744
L 494 -744
L 750 256
L 750 794
z
" transform="scale(0.015625)"/>
      <path id="DejaVuSans-18" d="M 691 4666
L 3169 4666
L 3169 4134
L 1269 4134
L 1269 2991
Q 1406 3038 1543 3061
Q 1681 3084 1819 3084
Q 2600 3084 3056 2656
Q 3513 2228 3513 1497
Q 3513 744 3044 326
Q 2575 -91 1722 -91
Q 1428 -91 1123 -41
Q 819 9 494 109
L 494 744
Q 775 591 1075 516
Q 1375 441 1709 441
Q 2250 441 2565 725
Q 2881 1009 2881 1497
Q 2881 1984 2565 2268
Q 2250 2553 1709 2553
Q 1456 2553 1204 2497
Q 953 2441 691 2322
L 691 4666
z
" transform="scale(0.015625)"/>
      <path id="DejaVuSans-1c" d="M 703 97
L 703 672
Q 941 559 1184 500
Q 1428 441 1663 441
Q 2288 441 2617 861
Q 2947 1281 2994 2138
Q 2813 1869 2534 1725
Q 2256 1581 1919 1581
Q 1219 1581 811 2004
Q 403 2428 403 3163
Q 403 3881 828 4315
Q 1253 4750 1959 4750
Q 2769 4750 3195 4129
Q 3622 3509 3622 2328
Q 3622 1225 3098 567
Q 2575 -91 1691 -91
Q 1453 -91 1209 -44
Q 966 3 703 97
z
M 1959 2075
Q 2384 2075 2632 2365
Q 2881 2656 2881 3163
Q 2881 3666 2632 3958
Q 2384 4250 1959 4250
Q 1534 4250 1286 3958
Q 1038 3666 1038 3163
Q 1038 2656 1286 2365
Q 1534 2075 1959 2075
z
" transform="scale(0.015625)"/>
      <path id="DejaVuSans-47" d="M 2906 2969
L 2906 4863
L 3481 4863
L 3481 0
L 2906 0
L 2906 525
Q 2725 213 2448 61
Q 2172 -91 1784 -91
Q 1150 -91 751 415
Q 353 922 353 1747
Q 353 2572 751 3078
Q 1150 3584 1784 3584
Q 2172 3584 2448 3432
Q 2725 3281 2906 2969
z
M 947 1747
Q 947 1113 1208 752
Q 1469 391 1925 391
Q 2381 391 2643 752
Q 2906 1113 2906 1747
Q 2906 2381 2643 2742
Q 2381 3103 1925 3103
Q 1469 3103 1208 2742
Q 947 2381 947 1747
z
" transform="scale(0.015625)"/>
      <path id="DejaVuSans-56" d="M 2834 3397
L 2834 2853
Q 2591 2978 2328 3040
Q 2066 3103 1784 3103
Q 1356 3103 1142 2972
Q 928 2841 928 2578
Q 928 2378 1081 2264
Q 1234 2150 1697 2047
L 1894 2003
Q 2506 1872 2764 1633
Q 3022 1394 3022 966
Q 3022 478 2636 193
Q 2250 -91 1575 -91
Q 1294 -91 989 -36
Q 684 19 347 128
L 347 722
Q 666 556 975 473
Q 1284 391 1588 391
Q 1994 391 2212 530
Q 2431 669 2431 922
Q 2431 1156 2273 1281
Q 2116 1406 1581 1522
L 1381 1569
Q 847 1681 609 1914
Q 372 2147 372 2553
Q 372 3047 722 3315
Q 1072 3584 1716 3584
Q 2034 3584 2315 3537
Q 2597 3491 2834 3397
z
" transform="scale(0.015625)"/>
      <path id="DejaVuSans-5a" d="M 269 3500
L 844 3500
L 1563 769
L 2278 3500
L 2956 3500
L 3675 769
L 4391 3500
L 4966 3500
L 4050 0
L 3372 0
L 2619 2869
L 1863 0
L 1184 0
L 269 3500
z
" transform="scale(0.015625)"/>
     </defs>
     <use xlink:href="#DejaVuSans-14"/>
     <use xlink:href="#DejaVuSans-17" transform="translate(63.625 0)"/>
     <use xlink:href="#DejaVuSans-11" transform="translate(127.25 0)"/>
     <use xlink:href="#DejaVuSans-17" transform="translate(159.03125 0)"/>
     <use xlink:href="#DejaVuSans-39" transform="translate(222.65625 0)"/>
     <use xlink:href="#DejaVuSans-3" transform="translate(291.0625 0)"/>
     <use xlink:href="#DejaVuSans-46" transform="translate(322.84375 0)"/>
     <use xlink:href="#DejaVuSans-4b" transform="translate(377.828125 0)"/>
     <use xlink:href="#DejaVuSans-44" transform="translate(441.203125 0)"/>
     <use xlink:href="#DejaVuSans-55" transform="translate(502.484375 0)"/>
     <use xlink:href="#DejaVuSans-4a" transform="translate(541.84375 0)"/>
     <use xlink:href="#DejaVuSans-4c" transform="translate(605.328125 0)"/>
     <use xlink:href="#DejaVuSans-51" transform="translate(633.109375 0)"/>
     <use xlink:href="#DejaVuSans-4a" transform="translate(696.484375 0)"/>
     <use xlink:href="#DejaVuSans-3" transform="translate(759.96875 0)"/>
     <use xlink:href="#DejaVuSans-10" transform="translate(791.75 0)"/>
     <use xlink:href="#DejaVuSans-21" transform="translate(827.828125 0)"/>
     <use xlink:href="#DejaVuSans-3" transform="translate(911.625 0)"/>
     <use xlink:href="#DejaVuSans-16" transform="translate(943.40625 0)"/>
     <use xlink:href="#DejaVuSans-11" transform="translate(1007.03125 0)"/>
     <use xlink:href="#DejaVuSans-13" transform="translate(1038.8125 0)"/>
     <use xlink:href="#DejaVuSans-19" transform="translate(1102.4375 0)"/>
     <use xlink:href="#DejaVuSans-39" transform="translate(1166.0625 0)"/>
     <use xlink:href="#DejaVuSans-3" transform="translate(1234.46875 0)"/>
     <use xlink:href="#DejaVuSans-44" transform="translate(1266.25 0)"/>
     <use xlink:href="#DejaVuSans-57" transform="translate(1327.53125 0)"/>
     <use xlink:href="#DejaVuSans-3" transform="translate(1366.734375 0)"/>
     <use xlink:href="#DejaVuSans-57" transform="translate(1398.515625 0)"/>
     <use xlink:href="#DejaVuSans-4b" transform="translate(1437.71875 0)"/>
     <use xlink:href="#DejaVuSans-48" transform="translate(1501.09375 0)"/>
     <use xlink:href="#DejaVuSans-3" transform="translate(1562.625 0)"/>
     <use xlink:href="#DejaVuSans-2a" transform="translate(1594.40625 0)"/>
     <use xlink:href="#DejaVuSans-33" transform="translate(1671.890625 0)"/>
     <use xlink:href="#DejaVuSans-2c" transform="translate(1732.1875 0)"/>
     <use xlink:href="#DejaVuSans-32" transform="translate(1761.6875 0)"/>
     <use xlink:href="#DejaVuSans-1e" transform="translate(1840.40625 0)"/>
     <use xlink:href="#DejaVuSans-3" transform="translate(1874.09375 0)"/>
     <use xlink:href="#DejaVuSans-14" transform="translate(1905.875 0)"/>
     <use xlink:href="#DejaVuSans-15" transform="translate(1969.5 0)"/>
     <use xlink:href="#DejaVuSans-39" transform="translate(2033.125 0)"/>
     <use xlink:href="#DejaVuSans-3" transform="translate(2101.53125 0)"/>
     <use xlink:href="#DejaVuSans-10" transform="translate(2133.3125 0)"/>
     <use xlink:href="#DejaVuSans-21" transform="translate(2169.390625 0)"/>
     <use xlink:href="#DejaVuSans-3" transform="translate(2253.1875 0)"/>
     <use xlink:href="#DejaVuSans-15" transform="translate(2284.96875 0)"/>
     <use xlink:href="#DejaVuSans-11" transform="translate(2348.59375 0)"/>
     <use xlink:href="#DejaVuSans-18" transform="translate(2380.375 0)"/>
     <use xlink:href="#DejaVuSans-18" transform="translate(2444 0)"/>
     <use xlink:href="#DejaVuSans-39" transform="translate(2507.625 0)"/>
     <use xlink:href="#DejaVuSans-1e" transform="translate(2576.03125 0)"/>
     <use xlink:href="#DejaVuSans-3" transform="translate(2609.71875 0)"/>
     <use xlink:href="#DejaVuSans-1c" transform="translate(2641.5 0)"/>
     <use xlink:href="#DejaVuSans-39" transform="translate(2705.125 0)"/>
     <use xlink:href="#DejaVuSans-3" transform="translate(2773.53125 0)"/>
     <use xlink:href="#DejaVuSans-46" transform="translate(2805.3125 0)"/>
     <use xlink:href="#DejaVuSans-55" transform="translate(2860.296875 0)"/>
     <use xlink:href="#DejaVuSans-44" transform="translate(2901.40625 0)"/>
     <use xlink:href="#DejaVuSans-51" transform="translate(2962.6875 0)"/>
     <use xlink:href="#DejaVuSans-4e" transform="translate(3026.0625 0)"/>
     <use xlink:href="#DejaVuSans-4c" transform="translate(3083.96875 0)"/>
     <use xlink:href="#DejaVuSans-51" transform="translate(3111.75 0)"/>
     <use xlink:href="#DejaVuSans-4a" transform="translate(3175.125 0)"/>
     <use xlink:href="#DejaVuSans-3" transform="translate(3238.609375 0)"/>
     <use xlink:href="#DejaVuSans-47" transform="translate(3270.390625 0)"/>
     <use xlink:href="#DejaVuSans-4c" transform="translate(3333.875 0)"/>
     <use xlink:href="#DejaVuSans-53" transform="translate(3361.65625 0)"/>
     <use xlink:href="#DejaVuSans-3" transform="translate(3425.140625 0)"/>
     <use xlink:href="#DejaVuSans-10" transform="translate(3456.921875 0)"/>
     <use xlink:href="#DejaVuSans-21" transform="translate(3493 0)"/>
     <use xlink:href="#DejaVuSans-3" transform="translate(3576.796875 0)"/>
     <use xlink:href="#DejaVuSans-14" transform="translate(3608.578125 0)"/>
     <use xlink:href="#DejaVuSans-11" transform="translate(3672.203125 0)"/>
     <use xlink:href="#DejaVuSans-1c" transform="translate(3703.984375 0)"/>
     <use xlink:href="#DejaVuSans-14" transform="translate(3767.609375 0)"/>
     <use xlink:href="#DejaVuSans-39" transform="translate(3831.234375 0)"/>
     <use xlink:href="#DejaVuSans-3" transform="translate(3899.640625 0)"/>
     <use xlink:href="#DejaVuSans-b" transform="translate(3931.421875 0)"/>
     <use xlink:href="#DejaVuSans-55" transform="translate(3970.4375 0)"/>
     <use xlink:href="#DejaVuSans-48" transform="translate(4009.34375 0)"/>
     <use xlink:href="#DejaVuSans-44" transform="translate(4070.875 0)"/>
     <use xlink:href="#DejaVuSans-47" transform="translate(4132.15625 0)"/>
     <use xlink:href="#DejaVuSans-56" transform="translate(4195.640625 0)"/>
     <use xlink:href="#DejaVuSans-3" transform="translate(4247.734375 0)"/>
     <use xlink:href="#DejaVuSans-4f" transform="translate(4279.515625 0)"/>
     <use xlink:href="#DejaVuSans-52" transform="translate(4307.296875 0)"/>
     <use xlink:href="#DejaVuSans-5a" transform="translate(4368.484375 0)"/>
     <use xlink:href="#DejaVuSans-c" transform="translate(4450.265625 0)"/>
     <use xlink:href="#DejaVuSans-11" transform="translate(4489.28125 0)"/>
    </g>
    <!-- The old 10k/4.7k pair put 4.6V on a 3.6V-abs-max pin at charging voltage - do not build it. -->
    <g transform="translate(71.179688 207.963437) scale(0.09 -0.09)">
     <defs>
      <path id="DejaVuSans-37" d="M -19 4666
L 3928 4666
L 3928 4134
L 2272 4134
L 2272 0
L 1638 0
L 1638 4134
L -19 4134
L -19 4666
z
" transform="scale(0.015625)"/>
      <path id="DejaVuSans-12" d="M 1625 4666
L 2156 4666
L 531 -594
L 0 -594
L 1625 4666
z
" transform="scale(0.015625)"/>
      <path id="DejaVuSans-58" d="M 544 1381
L 544 3500
L 1119 3500
L 1119 1403
Q 1119 906 1312 657
Q 1506 409 1894 409
Q 2359 409 2629 706
Q 2900 1003 2900 1516
L 2900 3500
L 3475 3500
L 3475 0
L 2900 0
L 2900 538
Q 2691 219 2414 64
Q 2138 -91 1772 -91
Q 1169 -91 856 284
Q 544 659 544 1381
z
M 1991 3584
L 1991 3584
z
" transform="scale(0.015625)"/>
      <path id="DejaVuSans-45" d="M 3116 1747
Q 3116 2381 2855 2742
Q 2594 3103 2138 3103
Q 1681 3103 1420 2742
Q 1159 2381 1159 1747
Q 1159 1113 1420 752
Q 1681 391 2138 391
Q 2594 391 2855 752
Q 3116 1113 3116 1747
z
M 1159 2969
Q 1341 3281 1617 3432
Q 1894 3584 2278 3584
Q 2916 3584 3314 3078
Q 3713 2572 3713 1747
Q 3713 922 3314 415
Q 2916 -91 2278 -91
Q 1894 -91 1617 61
Q 1341 213 1159 525
L 1159 0
L 581 0
L 581 4863
L 1159 4863
L 1159 2969
z
" transform="scale(0.015625)"/>
      <path id="DejaVuSans-50" d="M 3328 2828
Q 3544 3216 3844 3400
Q 4144 3584 4550 3584
Q 5097 3584 5394 3201
Q 5691 2819 5691 2113
L 5691 0
L 5113 0
L 5113 2094
Q 5113 2597 4934 2840
Q 4756 3084 4391 3084
Q 3944 3084 3684 2787
Q 3425 2491 3425 1978
L 3425 0
L 2847 0
L 2847 2094
Q 2847 2600 2669 2842
Q 2491 3084 2119 3084
Q 1678 3084 1418 2786
Q 1159 2488 1159 1978
L 1159 0
L 581 0
L 581 3500
L 1159 3500
L 1159 2956
Q 1356 3278 1631 3431
Q 1906 3584 2284 3584
Q 2666 3584 2933 3390
Q 3200 3197 3328 2828
z
" transform="scale(0.015625)"/>
      <path id="DejaVuSans-5b" d="M 3513 3500
L 2247 1797
L 3578 0
L 2900 0
L 1881 1375
L 863 0
L 184 0
L 1544 1831
L 300 3500
L 978 3500
L 1906 2253
L 2834 3500
L 3513 3500
z
" transform="scale(0.015625)"/>
      <path id="DejaVuSans-59" d="M 191 3500
L 800 3500
L 1894 563
L 2988 3500
L 3597 3500
L 2284 0
L 1503 0
L 191 3500
z
" transform="scale(0.015625)"/>
     </defs>
     <use xlink:href="#DejaVuSans-37"/>
     <use xlink:href="#DejaVuSans-4b" transform="translate(61.078125 0)"/>
     <use xlink:href="#DejaVuSans-48" transform="translate(124.453125 0)"/>
     <use xlink:href="#DejaVuSans-3" transform="translate(185.984375 0)"/>
     <use xlink:href="#DejaVuSans-52" transform="translate(217.765625 0)"/>
     <use xlink:href="#DejaVuSans-4f" transform="translate(278.953125 0)"/>
     <use xlink:href="#DejaVuSans-47" transform="translate(306.734375 0)"/>
     <use xlink:href="#DejaVuSans-3" transform="translate(370.21875 0)"/>
     <use xlink:href="#DejaVuSans-14" transform="translate(402 0)"/>
     <use xlink:href="#DejaVuSans-13" transform="translate(465.625 0)"/>
     <use xlink:href="#DejaVuSans-4e" transform="translate(529.25 0)"/>
     <use xlink:href="#DejaVuSans-12" transform="translate(587.15625 0)"/>
     <use xlink:href="#DejaVuSans-17" transform="translate(620.84375 0)"/>
     <use xlink:href="#DejaVuSans-11" transform="translate(684.46875 0)"/>
     <use xlink:href="#DejaVuSans-1a" transform="translate(716.25 0)"/>
     <use xlink:href="#DejaVuSans-4e" transform="translate(779.875 0)"/>
     <use xlink:href="#DejaVuSans-3" transform="translate(837.78125 0)"/>
     <use xlink:href="#DejaVuSans-53" transform="translate(869.5625 0)"/>
     <use xlink:href="#DejaVuSans-44" transform="translate(933.046875 0)"/>
     <use xlink:href="#DejaVuSans-4c" transform="translate(994.328125 0)"/>
     <use xlink:href="#DejaVuSans-55" transform="translate(1022.109375 0)"/>
     <use xlink:href="#DejaVuSans-3" transform="translate(1063.21875 0)"/>
     <use xlink:href="#DejaVuSans-53" transform="translate(1095 0)"/>
     <use xlink:href="#DejaVuSans-58" transform="translate(1158.484375 0)"/>
     <use xlink:href="#DejaVuSans-57" transform="translate(1221.859375 0)"/>
     <use xlink:href="#DejaVuSans-3" transform="translate(1261.0625 0)"/>
     <use xlink:href="#DejaVuSans-17" transform="translate(1292.84375 0)"/>
     <use xlink:href="#DejaVuSans-11" transform="translate(1356.46875 0)"/>
     <use xlink:href="#DejaVuSans-19" transform="translate(1388.25 0)"/>
     <use xlink:href="#DejaVuSans-39" transform="translate(1451.875 0)"/>
     <use xlink:href="#DejaVuSans-3" transform="translate(1520.28125 0)"/>
     <use xlink:href="#DejaVuSans-52" transform="translate(1552.0625 0)"/>
     <use xlink:href="#DejaVuSans-51" transform="translate(1613.25 0)"/>
     <use xlink:href="#DejaVuSans-3" transform="translate(1676.625 0)"/>
     <use xlink:href="#DejaVuSans-44" transform="translate(1708.40625 0)"/>
     <use xlink:href="#DejaVuSans-3" transform="translate(1769.6875 0)"/>
     <use xlink:href="#DejaVuSans-16" transform="translate(1801.46875 0)"/>
     <use xlink:href="#DejaVuSans-11" transform="translate(1865.09375 0)"/>
     <use xlink:href="#DejaVuSans-19" transform="translate(1896.875 0)"/>
     <use xlink:href="#DejaVuSans-39" transform="translate(1960.5 0)"/>
     <use xlink:href="#DejaVuSans-10" transform="translate(2023.046875 0)"/>
     <use xlink:href="#DejaVuSans-44" transform="translate(2059.125 0)"/>
     <use xlink:href="#DejaVuSans-45" transform="translate(2120.40625 0)"/>
     <use xlink:href="#DejaVuSans-56" transform="translate(2183.890625 0)"/>
     <use xlink:href="#DejaVuSans-10" transform="translate(2235.984375 0)"/>
     <use xlink:href="#DejaVuSans-50" transform="translate(2272.0625 0)"/>
     <use xlink:href="#DejaVuSans-44" transform="translate(2369.46875 0)"/>
     <use xlink:href="#DejaVuSans-5b" transform="translate(2430.75 0)"/>
     <use xlink:href="#DejaVuSans-3" transform="translate(2489.9375 0)"/>
     <use xlink:href="#DejaVuSans-53" transform="translate(2521.71875 0)"/>
     <use xlink:href="#DejaVuSans-4c" transform="translate(2585.203125 0)"/>
     <use xlink:href="#DejaVuSans-51" transform="translate(2612.984375 0)"/>
     <use xlink:href="#DejaVuSans-3" transform="translate(2676.359375 0)"/>
     <use xlink:href="#DejaVuSans-44" transform="translate(2708.140625 0)"/>
     <use xlink:href="#DejaVuSans-57" transform="translate(2769.421875 0)"/>
     <use xlink:href="#DejaVuSans-3" transform="translate(2808.625 0)"/>
     <use xlink:href="#DejaVuSans-46" transform="translate(2840.40625 0)"/>
     <use xlink:href="#DejaVuSans-4b" transform="translate(2895.390625 0)"/>
     <use xlink:href="#DejaVuSans-44" transform="translate(2958.765625 0)"/>
     <use xlink:href="#DejaVuSans-55" transform="translate(3020.046875 0)"/>
     <use xlink:href="#DejaVuSans-4a" transform="translate(3059.40625 0)"/>
     <use xlink:href="#DejaVuSans-4c" transform="translate(3122.890625 0)"/>
     <use xlink:href="#DejaVuSans-51" transform="translate(3150.671875 0)"/>
     <use xlink:href="#DejaVuSans-4a" transform="translate(3214.046875 0)"/>
     <use xlink:href="#DejaVuSans-3" transform="translate(3277.53125 0)"/>
     <use xlink:href="#DejaVuSans-59" transform="translate(3309.3125 0)"/>
     <use xlink:href="#DejaVuSans-52" transform="translate(3368.5 0)"/>
     <use xlink:href="#DejaVuSans-4f" transform="translate(3429.6875 0)"/>
     <use xlink:href="#DejaVuSans-57" transform="translate(3457.46875 0)"/>
     <use xlink:href="#DejaVuSans-44" transform="translate(3496.671875 0)"/>
     <use xlink:href="#DejaVuSans-4a" transform="translate(3557.953125 0)"/>
     <use xlink:href="#DejaVuSans-48" transform="translate(3621.4375 0)"/>
     <use xlink:href="#DejaVuSans-3" transform="translate(3682.96875 0)"/>
     <use xlink:href="#DejaVuSans-10" transform="translate(3714.75 0)"/>
     <use xlink:href="#DejaVuSans-3" transform="translate(3750.828125 0)"/>
     <use xlink:href="#DejaVuSans-47" transform="translate(3782.609375 0)"/>
     <use xlink:href="#DejaVuSans-52" transform="translate(3846.09375 0)"/>
     <use xlink:href="#DejaVuSans-3" transform="translate(3907.28125 0)"/>
     <use xlink:href="#DejaVuSans-51" transform="translate(3939.0625 0)"/>
     <use xlink:href="#DejaVuSans-52" transform="translate(4002.4375 0)"/>
     <use xlink:href="#DejaVuSans-57" transform="translate(4063.625 0)"/>
     <use xlink:href="#DejaVuSans-3" transform="translate(4102.828125 0)"/>
     <use xlink:href="#DejaVuSans-45" transform="translate(4134.609375 0)"/>
     <use xlink:href="#DejaVuSans-58" transform="translate(4198.09375 0)"/>
     <use xlink:href="#DejaVuSans-4c" transform="translate(4261.46875 0)"/>
     <use xlink:href="#DejaVuSans-4f" transform="translate(4289.25 0)"/>
     <use xlink:href="#DejaVuSans-47" transform="translate(4317.03125 0)"/>
     <use xlink:href="#DejaVuSans-3" transform="translate(4380.515625 0)"/>
     <use xlink:href="#DejaVuSans-4c" transform="translate(4412.296875 0)"/>
     <use xlink:href="#DejaVuSans-57" transform="translate(4440.078125 0)"/>
     <use xlink:href="#DejaVuSans-11" transform="translate(4479.28125 0)"/>
    </g>
   </g>
   <g id="patch_3">
    <path d="M 155.3775 48.88
C 156.093548 48.88 156.780366 48.595511 157.286688 48.089188
C 157.793011 47.582866 158.0775 46.896048 158.0775 46.18
C 158.0775 45.463952 157.793011 44.777134 157.286688 44.270812
C 156.780366 43.764489 156.093548 43.48 155.3775 43.48
C 154.661452 43.48 153.974634 43.764489 153.468312 44.270812
C 152.961989 44.777134 152.6775 45.463952 152.6775 46.18
C 152.6775 46.896048 152.961989 47.582866 153.468312 48.089188
C 153.974634 48.595511 154.661452 48.88 155.3775 48.88
z
" clip-path="url(#p6079fea948)" style="fill: #ffffff; stroke: #000000; stroke-width: 2; stroke-linejoin: miter"/>
   </g>
   <g id="text_5">
    <!-- 12V discrete signal -->
    <g transform="translate(44.079063 43.715312) scale(0.11 -0.11)">
     <use xlink:href="#DejaVuSans-14"/>
     <use xlink:href="#DejaVuSans-15" transform="translate(63.625 0)"/>
     <use xlink:href="#DejaVuSans-39" transform="translate(127.25 0)"/>
     <use xlink:href="#DejaVuSans-3" transform="translate(195.65625 0)"/>
     <use xlink:href="#DejaVuSans-47" transform="translate(227.4375 0)"/>
     <use xlink:href="#DejaVuSans-4c" transform="translate(290.921875 0)"/>
     <use xlink:href="#DejaVuSans-56" transform="translate(318.703125 0)"/>
     <use xlink:href="#DejaVuSans-46" transform="translate(370.796875 0)"/>
     <use xlink:href="#DejaVuSans-55" transform="translate(425.78125 0)"/>
     <use xlink:href="#DejaVuSans-48" transform="translate(464.6875 0)"/>
     <use xlink:href="#DejaVuSans-57" transform="translate(526.21875 0)"/>
     <use xlink:href="#DejaVuSans-48" transform="translate(565.421875 0)"/>
     <use xlink:href="#DejaVuSans-3" transform="translate(626.953125 0)"/>
     <use xlink:href="#DejaVuSans-56" transform="translate(658.734375 0)"/>
     <use xlink:href="#DejaVuSans-4c" transform="translate(710.828125 0)"/>
     <use xlink:href="#DejaVuSans-4a" transform="translate(738.609375 0)"/>
     <use xlink:href="#DejaVuSans-51" transform="translate(802.09375 0)"/>
     <use xlink:href="#DejaVuSans-44" transform="translate(865.46875 0)"/>
     <use xlink:href="#DejaVuSans-4f" transform="translate(926.75 0)"/>
    </g>
    <!-- (harness pins 2/3/4/6/9/10) -->
    <g transform="translate(0 54.715312) scale(0.11 -0.11)">
     <use xlink:href="#DejaVuSans-b"/>
     <use xlink:href="#DejaVuSans-4b" transform="translate(39.015625 0)"/>
     <use xlink:href="#DejaVuSans-44" transform="translate(102.390625 0)"/>
     <use xlink:href="#DejaVuSans-55" transform="translate(163.671875 0)"/>
     <use xlink:href="#DejaVuSans-51" transform="translate(203.03125 0)"/>
     <use xlink:href="#DejaVuSans-48" transform="translate(266.40625 0)"/>
     <use xlink:href="#DejaVuSans-56" transform="translate(327.9375 0)"/>
     <use xlink:href="#DejaVuSans-56" transform="translate(380.03125 0)"/>
     <use xlink:href="#DejaVuSans-3" transform="translate(432.125 0)"/>
     <use xlink:href="#DejaVuSans-53" transform="translate(463.90625 0)"/>
     <use xlink:href="#DejaVuSans-4c" transform="translate(527.390625 0)"/>
     <use xlink:href="#DejaVuSans-51" transform="translate(555.171875 0)"/>
     <use xlink:href="#DejaVuSans-56" transform="translate(618.546875 0)"/>
     <use xlink:href="#DejaVuSans-3" transform="translate(670.640625 0)"/>
     <use xlink:href="#DejaVuSans-15" transform="translate(702.421875 0)"/>
     <use xlink:href="#DejaVuSans-12" transform="translate(766.046875 0)"/>
     <use xlink:href="#DejaVuSans-16" transform="translate(799.734375 0)"/>
     <use xlink:href="#DejaVuSans-12" transform="translate(863.359375 0)"/>
     <use xlink:href="#DejaVuSans-17" transform="translate(897.046875 0)"/>
     <use xlink:href="#DejaVuSans-12" transform="translate(960.671875 0)"/>
     <use xlink:href="#DejaVuSans-19" transform="translate(994.359375 0)"/>
     <use xlink:href="#DejaVuSans-12" transform="translate(1057.984375 0)"/>
     <use xlink:href="#DejaVuSans-1c" transform="translate(1091.671875 0)"/>
     <use xlink:href="#DejaVuSans-12" transform="translate(1155.296875 0)"/>
     <use xlink:href="#DejaVuSans-14" transform="translate(1188.984375 0)"/>
     <use xlink:href="#DejaVuSans-13" transform="translate(1252.609375 0)"/>
     <use xlink:href="#DejaVuSans-c" transform="translate(1316.234375 0)"/>
    </g>
   </g>
   <g id="patch_4">
    <path d="M 281.3775 48.88
C 282.093548 48.88 282.780366 48.595511 283.286688 48.089188
C 283.793011 47.582866 284.0775 46.896048 284.0775 46.18
C 284.0775 45.463952 283.793011 44.777134 283.286688 44.270812
C 282.780366 43.764489 282.093548 43.48 281.3775 43.48
C 280.661452 43.48 279.974634 43.764489 279.468312 44.270812
C 278.961989 44.777134 278.6775 45.463952 278.6775 46.18
C 278.6775 46.896048 278.961989 47.582866 279.468312 48.089188
C 279.974634 48.595511 280.661452 48.88 281.3775 48.88
z
" clip-path="url(#p6079fea948)" style="stroke: #000000; stroke-width: 2; stroke-linejoin: miter"/>
   </g>
   <g id="patch_5">
    <path d="M 374.9775 12.88
C 375.693548 12.88 376.380366 12.595511 376.886688 12.089188
C 377.393011 11.582866 377.6775 10.896048 377.6775 10.18
C 377.6775 9.463952 377.393011 8.777134 376.886688 8.270812
C 376.380366 7.764489 375.693548 7.48 374.9775 7.48
C 374.261452 7.48 373.574634 7.764489 373.068312 8.270812
C 372.561989 8.777134 372.2775 9.463952 372.2775 10.18
C 372.2775 10.896048 372.561989 11.582866 373.068312 12.089188
C 373.574634 12.595511 374.261452 12.88 374.9775 12.88
z
" clip-path="url(#p6079fea948)" style="fill: #ffffff; stroke: #000000; stroke-width: 2; stroke-linejoin: miter"/>
   </g>
   <g id="text_6">
    <!-- P4 GPIO input -->
    <g transform="translate(381.2775 13.215312) scale(0.11 -0.11)">
     <use xlink:href="#DejaVuSans-33"/>
     <use xlink:href="#DejaVuSans-17" transform="translate(60.296875 0)"/>
     <use xlink:href="#DejaVuSans-3" transform="translate(123.921875 0)"/>
     <use xlink:href="#DejaVuSans-2a" transform="translate(155.703125 0)"/>
     <use xlink:href="#DejaVuSans-33" transform="translate(233.1875 0)"/>
     <use xlink:href="#DejaVuSans-2c" transform="translate(293.484375 0)"/>
     <use xlink:href="#DejaVuSans-32" transform="translate(322.984375 0)"/>
     <use xlink:href="#DejaVuSans-3" transform="translate(401.703125 0)"/>
     <use xlink:href="#DejaVuSans-4c" transform="translate(433.484375 0)"/>
     <use xlink:href="#DejaVuSans-51" transform="translate(461.265625 0)"/>
     <use xlink:href="#DejaVuSans-53" transform="translate(524.640625 0)"/>
     <use xlink:href="#DejaVuSans-58" transform="translate(588.125 0)"/>
     <use xlink:href="#DejaVuSans-57" transform="translate(651.5 0)"/>
    </g>
   </g>
  </g>
 </g>
 <defs>
  <clipPath id="p6079fea948">
   <rect x="10.3515" y="0" width="448.218" height="214.66"/>
  </clipPath>
 </defs>
</svg>
