<?xml version="1.0" encoding="utf-8" standalone="no"?>
<!DOCTYPE svg PUBLIC "-//W3C//DTD SVG 1.1//EN"
  "http://www.w3.org/Graphics/SVG/1.1/DTD/svg11.dtd">
<svg xmlns:xlink="http://www.w3.org/1999/xlink" width="491.561984pt" height="279.76pt" viewBox="0 0 491.561984 279.76" xmlns="http://www.w3.org/2000/svg" version="1.1">
 <metadata>
  <rdf:RDF xmlns:dc="http://purl.org/dc/elements/1.1/" xmlns:cc="http://creativecommons.org/ns#" xmlns:rdf="http://www.w3.org/1999/02/22-rdf-syntax-ns#">
   <cc:Work>
    <dc:type rdf:resource="http://purl.org/dc/dcmitype/StillImage"/>
    <dc:date>2026-07-10T21:07:41.118103</dc:date>
    <dc:format>image/svg+xml</dc:format>
    <dc:creator>
     <cc:Agent>
      <dc:title>Matplotlib v3.11.0, https://matplotlib.org/</dc:title>
     </cc:Agent>
    </dc:creator>
   </cc:Work>
  </rdf:RDF>
 </metadata>
 <defs>
  <style type="text/css">*{stroke-linejoin: round; stroke-linecap: butt}</style>
 </defs>
 <g id="figure_1">
  <g id="patch_1">
   <path d="M 0 279.76
L 491.561984 279.76
L 491.561984 0
L 0 0
z
" style="fill: #ffffff"/>
  </g>
  <g id="axes_1">
   <g id="line2d_1">
    <path d="M 129.713984 111.28
L 252.113984 111.28
L 252.113984 21.28
L 129.713984 21.28
L 129.713984 111.28
" clip-path="url(#p1dd65fbc71)" style="fill: none; stroke: #000000; stroke-width: 2; stroke-linecap: round"/>
   </g>
   <g id="line2d_2">
    <path d="M 129.713984 44.68
L 111.713984 44.68
" clip-path="url(#p1dd65fbc71)" style="fill: none; stroke: #000000; stroke-width: 2; stroke-linecap: round"/>
   </g>
   <g id="line2d_3">
    <path d="M 129.713984 87.88
L 111.713984 87.88
" clip-path="url(#p1dd65fbc71)" style="fill: none; stroke: #000000; stroke-width: 2; stroke-linecap: round"/>
   </g>
   <g id="line2d_4">
    <path d="M 252.113984 44.68
L 270.113984 44.68
" clip-path="url(#p1dd65fbc71)" style="fill: none; stroke: #000000; stroke-width: 2; stroke-linecap: round"/>
   </g>
   <g id="line2d_5">
    <path d="M 252.113984 87.88
L 270.113984 87.88
" clip-path="url(#p1dd65fbc71)" style="fill: none; stroke: #000000; stroke-width: 2; stroke-linecap: round"/>
   </g>
   <g id="line2d_6">
    <path d="M 111.713984 44.68
L 82.913984 44.68
L 54.113984 44.68
" clip-path="url(#p1dd65fbc71)" style="fill: none; stroke: #000000; stroke-width: 2; stroke-linecap: round"/>
   </g>
   <g id="line2d_7">
    <path d="M 54.113984 44.68
L 54.113984 30.28
" clip-path="url(#p1dd65fbc71)" style="fill: none; stroke: #000000; stroke-width: 2; stroke-linecap: round"/>
   </g>
   <g id="line2d_8">
    <path d="M 54.113984 30.28
L 47.363984 30.28
" clip-path="url(#p1dd65fbc71)" style="fill: none; stroke: #000000; stroke-width: 2; stroke-linecap: round"/>
   </g>
   <g id="line2d_9">
    <path d="M 54.113984 30.28
L 60.863984 30.28
" clip-path="url(#p1dd65fbc71)" style="fill: none; stroke: #000000; stroke-width: 2; stroke-linecap: round"/>
   </g>
   <g id="line2d_10">
    <path d="M 111.713984 87.88
L 82.913984 87.88
L 54.113984 87.88
" clip-path="url(#p1dd65fbc71)" style="fill: none; stroke: #000000; stroke-width: 2; stroke-linecap: round"/>
   </g>
   <g id="line2d_11">
    <path d="M 54.113984 87.88
L 54.113984 102.28
L 45.113984 102.28
L 63.113984 102.28
M 47.813984 106.6
L 60.413984 106.6
M 52.313984 110.92
L 55.913984 110.92
" clip-path="url(#p1dd65fbc71)" style="fill: none; stroke: #000000; stroke-width: 2; stroke-linecap: round"/>
   </g>
   <g id="line2d_12">
    <path d="M 270.113984 44.68
L 306.113984 44.68
L 342.113984 44.68
" clip-path="url(#p1dd65fbc71)" style="fill: none; stroke: #000000; stroke-width: 2; stroke-linecap: round"/>
   </g>
   <g id="line2d_13">
    <path d="M 270.113984 87.88
L 306.113984 87.88
L 342.113984 87.88
" clip-path="url(#p1dd65fbc71)" style="fill: none; stroke-dasharray: 7.4,3.2; stroke-dashoffset: 0; stroke: #888888; stroke-width: 2"/>
   </g>
   <g id="text_1">
    <!-- VCC -->
    <g transform="translate(135.113984 49.775781) scale(0.14 -0.14)">
     <defs>
      <path id="DejaVuSans-39" d="M 1831 0
L 50 4666
L 709 4666
L 2188 738
L 3669 4666
L 4325 4666
L 2547 0
L 1831 0
z
" transform="scale(0.015625)"/>
      <path id="DejaVuSans-26" d="M 4122 4306
L 4122 3641
Q 3803 3938 3442 4084
Q 3081 4231 2675 4231
Q 1875 4231 1450 3742
Q 1025 3253 1025 2328
Q 1025 1406 1450 917
Q 1875 428 2675 428
Q 3081 428 3442 575
Q 3803 722 4122 1019
L 4122 359
Q 3791 134 3420 21
Q 3050 -91 2638 -91
Q 1578 -91 968 557
Q 359 1206 359 2328
Q 359 3453 968 4101
Q 1578 4750 2638 4750
Q 3056 4750 3426 4639
Q 3797 4528 4122 4306
z
" transform="scale(0.015625)"/>
     </defs>
     <use xlink:href="#DejaVuSans-39"/>
     <use xlink:href="#DejaVuSans-26" transform="translate(68.40625 0)"/>
     <use xlink:href="#DejaVuSans-26" transform="translate(138.234375 0)"/>
    </g>
   </g>
   <g id="text_2">
    <!-- GND -->
    <g transform="translate(135.113984 92.975781) scale(0.14 -0.14)">
     <defs>
      <path id="DejaVuSans-2a" d="M 3809 666
L 3809 1919
L 2778 1919
L 2778 2438
L 4434 2438
L 4434 434
Q 4069 175 3628 42
Q 3188 -91 2688 -91
Q 1594 -91 976 548
Q 359 1188 359 2328
Q 359 3472 976 4111
Q 1594 4750 2688 4750
Q 3144 4750 3555 4637
Q 3966 4525 4313 4306
L 4313 3634
Q 3963 3931 3569 4081
Q 3175 4231 2741 4231
Q 1884 4231 1454 3753
Q 1025 3275 1025 2328
Q 1025 1384 1454 906
Q 1884 428 2741 428
Q 3075 428 3337 486
Q 3600 544 3809 666
z
" transform="scale(0.015625)"/>
      <path id="DejaVuSans-31" d="M 628 4666
L 1478 4666
L 3547 763
L 3547 4666
L 4159 4666
L 4159 0
L 3309 0
L 1241 3903
L 1241 0
L 628 0
L 628 4666
z
" transform="scale(0.015625)"/>
      <path id="DejaVuSans-27" d="M 1259 4147
L 1259 519
L 2022 519
Q 2988 519 3436 956
Q 3884 1394 3884 2338
Q 3884 3275 3436 3711
Q 2988 4147 2022 4147
L 1259 4147
z
M 628 4666
L 1925 4666
Q 3281 4666 3915 4102
Q 4550 3538 4550 2338
Q 4550 1131 3912 565
Q 3275 0 1925 0
L 628 0
L 628 4666
z
" transform="scale(0.015625)"/>
     </defs>
     <use xlink:href="#DejaVuSans-2a"/>
     <use xlink:href="#DejaVuSans-31" transform="translate(77.484375 0)"/>
     <use xlink:href="#DejaVuSans-27" transform="translate(152.296875 0)"/>
    </g>
   </g>
   <g id="text_3">
    <!-- TX -->
    <g transform="translate(228.573047 49.783438) scale(0.14 -0.14)">
     <defs>
      <path id="DejaVuSans-37" d="M -19 4666
L 3928 4666
L 3928 4134
L 2272 4134
L 2272 0
L 1638 0
L 1638 4134
L -19 4134
L -19 4666
z
" transform="scale(0.015625)"/>
      <path id="DejaVuSans-3b" d="M 403 4666
L 1081 4666
L 2241 2931
L 3406 4666
L 4084 4666
L 2584 2425
L 4184 0
L 3506 0
L 2194 1984
L 872 0
L 191 0
L 1856 2491
L 403 4666
z
" transform="scale(0.015625)"/>
     </defs>
     <use xlink:href="#DejaVuSans-37"/>
     <use xlink:href="#DejaVuSans-3b" transform="translate(61.078125 0)"/>
    </g>
   </g>
   <g id="text_4">
    <!-- RX -->
    <g transform="translate(227.396172 92.983438) scale(0.14 -0.14)">
     <defs>
      <path id="DejaVuSans-35" d="M 2841 2188
Q 3044 2119 3236 1894
Q 3428 1669 3622 1275
L 4263 0
L 3584 0
L 2988 1197
Q 2756 1666 2539 1819
Q 2322 1972 1947 1972
L 1259 1972
L 1259 0
L 628 0
L 628 4666
L 2053 4666
Q 2853 4666 3247 4331
Q 3641 3997 3641 3322
Q 3641 2881 3436 2590
Q 3231 2300 2841 2188
z
M 1259 4147
L 1259 2491
L 2053 2491
Q 2509 2491 2742 2702
Q 2975 2913 2975 3322
Q 2975 3731 2742 3939
Q 2509 4147 2053 4147
L 1259 4147
z
" transform="scale(0.015625)"/>
     </defs>
     <use xlink:href="#DejaVuSans-35"/>
     <use xlink:href="#DejaVuSans-3b" transform="translate(69.484375 0)"/>
    </g>
   </g>
   <g id="text_5">
    <!-- GY-NEO6MV2 -->
    <g transform="translate(158.409062 55.683828) scale(0.11 -0.11)">
     <defs>
      <path id="DejaVuSans-3c" d="M -13 4666
L 666 4666
L 1959 2747
L 3244 4666
L 3922 4666
L 2272 2222
L 2272 0
L 1638 0
L 1638 2222
L -13 4666
z
" transform="scale(0.015625)"/>
      <path id="DejaVuSans-10" d="M 313 2009
L 1997 2009
L 1997 1497
L 313 1497
L 313 2009
z
" transform="scale(0.015625)"/>
      <path id="DejaVuSans-28" d="M 628 4666
L 3578 4666
L 3578 4134
L 1259 4134
L 1259 2753
L 3481 2753
L 3481 2222
L 1259 2222
L 1259 531
L 3634 531
L 3634 0
L 628 0
L 628 4666
z
" transform="scale(0.015625)"/>
      <path id="DejaVuSans-32" d="M 2522 4238
Q 1834 4238 1429 3725
Q 1025 3213 1025 2328
Q 1025 1447 1429 934
Q 1834 422 2522 422
Q 3209 422 3611 934
Q 4013 1447 4013 2328
Q 4013 3213 3611 3725
Q 3209 4238 2522 4238
z
M 2522 4750
Q 3503 4750 4090 4092
Q 4678 3434 4678 2328
Q 4678 1225 4090 567
Q 3503 -91 2522 -91
Q 1538 -91 948 565
Q 359 1222 359 2328
Q 359 3434 948 4092
Q 1538 4750 2522 4750
z
" transform="scale(0.015625)"/>
      <path id="DejaVuSans-19" d="M 2113 2584
Q 1688 2584 1439 2293
Q 1191 2003 1191 1497
Q 1191 994 1439 701
Q 1688 409 2113 409
Q 2538 409 2786 701
Q 3034 994 3034 1497
Q 3034 2003 2786 2293
Q 2538 2584 2113 2584
z
M 3366 4563
L 3366 3988
Q 3128 4100 2886 4159
Q 2644 4219 2406 4219
Q 1781 4219 1451 3797
Q 1122 3375 1075 2522
Q 1259 2794 1537 2939
Q 1816 3084 2150 3084
Q 2853 3084 3261 2657
Q 3669 2231 3669 1497
Q 3669 778 3244 343
Q 2819 -91 2113 -91
Q 1303 -91 875 529
Q 447 1150 447 2328
Q 447 3434 972 4092
Q 1497 4750 2381 4750
Q 2619 4750 2861 4703
Q 3103 4656 3366 4563
z
" transform="scale(0.015625)"/>
      <path id="DejaVuSans-30" d="M 628 4666
L 1569 4666
L 2759 1491
L 3956 4666
L 4897 4666
L 4897 0
L 4281 0
L 4281 4097
L 3078 897
L 2444 897
L 1241 4097
L 1241 0
L 628 0
L 628 4666
z
" transform="scale(0.015625)"/>
      <path id="DejaVuSans-15" d="M 1228 531
L 3431 531
L 3431 0
L 469 0
L 469 531
Q 828 903 1448 1529
Q 2069 2156 2228 2338
Q 2531 2678 2651 2914
Q 2772 3150 2772 3378
Q 2772 3750 2511 3984
Q 2250 4219 1831 4219
Q 1534 4219 1204 4116
Q 875 4013 500 3803
L 500 4441
Q 881 4594 1212 4672
Q 1544 4750 1819 4750
Q 2544 4750 2975 4387
Q 3406 4025 3406 3419
Q 3406 3131 3298 2873
Q 3191 2616 2906 2266
Q 2828 2175 2409 1742
Q 1991 1309 1228 531
z
" transform="scale(0.015625)"/>
     </defs>
     <use xlink:href="#DejaVuSans-2a"/>
     <use xlink:href="#DejaVuSans-3c" transform="translate(72.5 0)"/>
     <use xlink:href="#DejaVuSans-10" transform="translate(121.71875 0)"/>
     <use xlink:href="#DejaVuSans-31" transform="translate(157.796875 0)"/>
     <use xlink:href="#DejaVuSans-28" transform="translate(232.609375 0)"/>
     <use xlink:href="#DejaVuSans-32" transform="translate(295.796875 0)"/>
     <use xlink:href="#DejaVuSans-19" transform="translate(374.515625 0)"/>
     <use xlink:href="#DejaVuSans-30" transform="translate(438.140625 0)"/>
     <use xlink:href="#DejaVuSans-39" transform="translate(524.421875 0)"/>
     <use xlink:href="#DejaVuSans-15" transform="translate(592.828125 0)"/>
    </g>
    <!-- (NEO-6M) -->
    <g transform="translate(167.920625 66.127813) scale(0.11 -0.11)">
     <defs>
      <path id="DejaVuSans-b" d="M 1984 4856
Q 1566 4138 1362 3434
Q 1159 2731 1159 2009
Q 1159 1288 1364 580
Q 1569 -128 1984 -844
L 1484 -844
Q 1016 -109 783 600
Q 550 1309 550 2009
Q 550 2706 781 3412
Q 1013 4119 1484 4856
L 1984 4856
z
" transform="scale(0.015625)"/>
      <path id="DejaVuSans-c" d="M 513 4856
L 1013 4856
Q 1481 4119 1714 3412
Q 1947 2706 1947 2009
Q 1947 1309 1714 600
Q 1481 -109 1013 -844
L 513 -844
Q 928 -128 1133 580
Q 1338 1288 1338 2009
Q 1338 2731 1133 3434
Q 928 4138 513 4856
z
" transform="scale(0.015625)"/>
     </defs>
     <use xlink:href="#DejaVuSans-b"/>
     <use xlink:href="#DejaVuSans-31" transform="translate(39.015625 0)"/>
     <use xlink:href="#DejaVuSans-28" transform="translate(113.828125 0)"/>
     <use xlink:href="#DejaVuSans-32" transform="translate(177.015625 0)"/>
     <use xlink:href="#DejaVuSans-10" transform="translate(258.515625 0)"/>
     <use xlink:href="#DejaVuSans-19" transform="translate(294.59375 0)"/>
     <use xlink:href="#DejaVuSans-30" transform="translate(358.21875 0)"/>
     <use xlink:href="#DejaVuSans-c" transform="translate(444.5 0)"/>
    </g>
    <!-- + patch antenna -->
    <g transform="translate(148.142969 76.715313) scale(0.11 -0.11)">
     <defs>
      <path id="DejaVuSans-e" d="M 2944 4013
L 2944 2272
L 4684 2272
L 4684 1741
L 2944 1741
L 2944 0
L 2419 0
L 2419 1741
L 678 1741
L 678 2272
L 2419 2272
L 2419 4013
L 2944 4013
z
" transform="scale(0.015625)"/>
      <path id="DejaVuSans-3" transform="scale(0.015625)"/>
      <path id="DejaVuSans-53" d="M 1159 525
L 1159 -1331
L 581 -1331
L 581 3500
L 1159 3500
L 1159 2969
Q 1341 3281 1617 3432
Q 1894 3584 2278 3584
Q 2916 3584 3314 3078
Q 3713 2572 3713 1747
Q 3713 922 3314 415
Q 2916 -91 2278 -91
Q 1894 -91 1617 61
Q 1341 213 1159 525
z
M 3116 1747
Q 3116 2381 2855 2742
Q 2594 3103 2138 3103
Q 1681 3103 1420 2742
Q 1159 2381 1159 1747
Q 1159 1113 1420 752
Q 1681 391 2138 391
Q 2594 391 2855 752
Q 3116 1113 3116 1747
z
" transform="scale(0.015625)"/>
      <path id="DejaVuSans-44" d="M 2194 1759
Q 1497 1759 1228 1600
Q 959 1441 959 1056
Q 959 750 1161 570
Q 1363 391 1709 391
Q 2188 391 2477 730
Q 2766 1069 2766 1631
L 2766 1759
L 2194 1759
z
M 3341 1997
L 3341 0
L 2766 0
L 2766 531
Q 2569 213 2275 61
Q 1981 -91 1556 -91
Q 1019 -91 701 211
Q 384 513 384 1019
Q 384 1609 779 1909
Q 1175 2209 1959 2209
L 2766 2209
L 2766 2266
Q 2766 2663 2505 2880
Q 2244 3097 1772 3097
Q 1472 3097 1187 3025
Q 903 2953 641 2809
L 641 3341
Q 956 3463 1253 3523
Q 1550 3584 1831 3584
Q 2591 3584 2966 3190
Q 3341 2797 3341 1997
z
" transform="scale(0.015625)"/>
      <path id="DejaVuSans-57" d="M 1172 4494
L 1172 3500
L 2356 3500
L 2356 3053
L 1172 3053
L 1172 1153
Q 1172 725 1289 603
Q 1406 481 1766 481
L 2356 481
L 2356 0
L 1766 0
Q 1100 0 847 248
Q 594 497 594 1153
L 594 3053
L 172 3053
L 172 3500
L 594 3500
L 594 4494
L 1172 4494
z
" transform="scale(0.015625)"/>
      <path id="DejaVuSans-46" d="M 3122 3366
L 3122 2828
Q 2878 2963 2633 3030
Q 2388 3097 2138 3097
Q 1578 3097 1268 2742
Q 959 2388 959 1747
Q 959 1106 1268 751
Q 1578 397 2138 397
Q 2388 397 2633 464
Q 2878 531 3122 666
L 3122 134
Q 2881 22 2623 -34
Q 2366 -91 2075 -91
Q 1284 -91 818 406
Q 353 903 353 1747
Q 353 2603 823 3093
Q 1294 3584 2113 3584
Q 2378 3584 2631 3529
Q 2884 3475 3122 3366
z
" transform="scale(0.015625)"/>
      <path id="DejaVuSans-4b" d="M 3513 2113
L 3513 0
L 2938 0
L 2938 2094
Q 2938 2591 2744 2837
Q 2550 3084 2163 3084
Q 1697 3084 1428 2787
Q 1159 2491 1159 1978
L 1159 0
L 581 0
L 581 4863
L 1159 4863
L 1159 2956
Q 1366 3272 1645 3428
Q 1925 3584 2291 3584
Q 2894 3584 3203 3211
Q 3513 2838 3513 2113
z
" transform="scale(0.015625)"/>
      <path id="DejaVuSans-51" d="M 3513 2113
L 3513 0
L 2938 0
L 2938 2094
Q 2938 2591 2744 2837
Q 2550 3084 2163 3084
Q 1697 3084 1428 2787
Q 1159 2491 1159 1978
L 1159 0
L 581 0
L 581 3500
L 1159 3500
L 1159 2956
Q 1366 3272 1645 3428
Q 1925 3584 2291 3584
Q 2894 3584 3203 3211
Q 3513 2838 3513 2113
z
" transform="scale(0.015625)"/>
      <path id="DejaVuSans-48" d="M 3597 1894
L 3597 1613
L 953 1613
Q 991 1019 1311 708
Q 1631 397 2203 397
Q 2534 397 2845 478
Q 3156 559 3463 722
L 3463 178
Q 3153 47 2828 -22
Q 2503 -91 2169 -91
Q 1331 -91 842 396
Q 353 884 353 1716
Q 353 2575 817 3079
Q 1281 3584 2069 3584
Q 2775 3584 3186 3129
Q 3597 2675 3597 1894
z
M 3022 2063
Q 3016 2534 2758 2815
Q 2500 3097 2075 3097
Q 1594 3097 1305 2825
Q 1016 2553 972 2059
L 3022 2063
z
" transform="scale(0.015625)"/>
     </defs>
     <use xlink:href="#DejaVuSans-e"/>
     <use xlink:href="#DejaVuSans-3" transform="translate(83.796875 0)"/>
     <use xlink:href="#DejaVuSans-53" transform="translate(115.578125 0)"/>
     <use xlink:href="#DejaVuSans-44" transform="translate(179.0625 0)"/>
     <use xlink:href="#DejaVuSans-57" transform="translate(240.34375 0)"/>
     <use xlink:href="#DejaVuSans-46" transform="translate(279.546875 0)"/>
     <use xlink:href="#DejaVuSans-4b" transform="translate(334.53125 0)"/>
     <use xlink:href="#DejaVuSans-3" transform="translate(397.90625 0)"/>
     <use xlink:href="#DejaVuSans-44" transform="translate(429.6875 0)"/>
     <use xlink:href="#DejaVuSans-51" transform="translate(490.96875 0)"/>
     <use xlink:href="#DejaVuSans-57" transform="translate(554.34375 0)"/>
     <use xlink:href="#DejaVuSans-48" transform="translate(593.546875 0)"/>
     <use xlink:href="#DejaVuSans-51" transform="translate(655.078125 0)"/>
     <use xlink:href="#DejaVuSans-51" transform="translate(718.453125 0)"/>
     <use xlink:href="#DejaVuSans-44" transform="translate(781.828125 0)"/>
    </g>
   </g>
   <g id="text_6">
    <!-- +5V -->
    <g transform="translate(42.243437 14.111641) scale(0.11 -0.11)">
     <defs>
      <path id="DejaVuSans-18" d="M 691 4666
L 3169 4666
L 3169 4134
L 1269 4134
L 1269 2991
Q 1406 3038 1543 3061
Q 1681 3084 1819 3084
Q 2600 3084 3056 2656
Q 3513 2228 3513 1497
Q 3513 744 3044 326
Q 2575 -91 1722 -91
Q 1428 -91 1123 -41
Q 819 9 494 109
L 494 744
Q 775 591 1075 516
Q 1375 441 1709 441
Q 2250 441 2565 725
Q 2881 1009 2881 1497
Q 2881 1984 2565 2268
Q 2250 2553 1709 2553
Q 1456 2553 1204 2497
Q 953 2441 691 2322
L 691 4666
z
" transform="scale(0.015625)"/>
     </defs>
     <use xlink:href="#DejaVuSans-e"/>
     <use xlink:href="#DejaVuSans-18" transform="translate(83.796875 0)"/>
     <use xlink:href="#DejaVuSans-39" transform="translate(147.421875 0)"/>
    </g>
    <!-- (bike-power 5V rail) -->
    <g transform="translate(0 24.215312) scale(0.11 -0.11)">
     <defs>
      <path id="DejaVuSans-45" d="M 3116 1747
Q 3116 2381 2855 2742
Q 2594 3103 2138 3103
Q 1681 3103 1420 2742
Q 1159 2381 1159 1747
Q 1159 1113 1420 752
Q 1681 391 2138 391
Q 2594 391 2855 752
Q 3116 1113 3116 1747
z
M 1159 2969
Q 1341 3281 1617 3432
Q 1894 3584 2278 3584
Q 2916 3584 3314 3078
Q 3713 2572 3713 1747
Q 3713 922 3314 415
Q 2916 -91 2278 -91
Q 1894 -91 1617 61
Q 1341 213 1159 525
L 1159 0
L 581 0
L 581 4863
L 1159 4863
L 1159 2969
z
" transform="scale(0.015625)"/>
      <path id="DejaVuSans-4c" d="M 603 3500
L 1178 3500
L 1178 0
L 603 0
L 603 3500
z
M 603 4863
L 1178 4863
L 1178 4134
L 603 4134
L 603 4863
z
" transform="scale(0.015625)"/>
      <path id="DejaVuSans-4e" d="M 581 4863
L 1159 4863
L 1159 1991
L 2875 3500
L 3609 3500
L 1753 1863
L 3688 0
L 2938 0
L 1159 1709
L 1159 0
L 581 0
L 581 4863
z
" transform="scale(0.015625)"/>
      <path id="DejaVuSans-52" d="M 1959 3097
Q 1497 3097 1228 2736
Q 959 2375 959 1747
Q 959 1119 1226 758
Q 1494 397 1959 397
Q 2419 397 2687 759
Q 2956 1122 2956 1747
Q 2956 2369 2687 2733
Q 2419 3097 1959 3097
z
M 1959 3584
Q 2709 3584 3137 3096
Q 3566 2609 3566 1747
Q 3566 888 3137 398
Q 2709 -91 1959 -91
Q 1206 -91 779 398
Q 353 888 353 1747
Q 353 2609 779 3096
Q 1206 3584 1959 3584
z
" transform="scale(0.015625)"/>
      <path id="DejaVuSans-5a" d="M 269 3500
L 844 3500
L 1563 769
L 2278 3500
L 2956 3500
L 3675 769
L 4391 3500
L 4966 3500
L 4050 0
L 3372 0
L 2619 2869
L 1863 0
L 1184 0
L 269 3500
z
" transform="scale(0.015625)"/>
      <path id="DejaVuSans-55" d="M 2631 2963
Q 2534 3019 2420 3045
Q 2306 3072 2169 3072
Q 1681 3072 1420 2755
Q 1159 2438 1159 1844
L 1159 0
L 581 0
L 581 3500
L 1159 3500
L 1159 2956
Q 1341 3275 1631 3429
Q 1922 3584 2338 3584
Q 2397 3584 2469 3576
Q 2541 3569 2628 3553
L 2631 2963
z
" transform="scale(0.015625)"/>
      <path id="DejaVuSans-4f" d="M 603 4863
L 1178 4863
L 1178 0
L 603 0
L 603 4863
z
" transform="scale(0.015625)"/>
     </defs>
     <use xlink:href="#DejaVuSans-b"/>
     <use xlink:href="#DejaVuSans-45" transform="translate(39.015625 0)"/>
     <use xlink:href="#DejaVuSans-4c" transform="translate(102.5 0)"/>
     <use xlink:href="#DejaVuSans-4e" transform="translate(130.28125 0)"/>
     <use xlink:href="#DejaVuSans-48" transform="translate(184.625 0)"/>
     <use xlink:href="#DejaVuSans-10" transform="translate(246.15625 0)"/>
     <use xlink:href="#DejaVuSans-53" transform="translate(282.234375 0)"/>
     <use xlink:href="#DejaVuSans-52" transform="translate(345.71875 0)"/>
     <use xlink:href="#DejaVuSans-5a" transform="translate(406.90625 0)"/>
     <use xlink:href="#DejaVuSans-48" transform="translate(488.6875 0)"/>
     <use xlink:href="#DejaVuSans-55" transform="translate(550.21875 0)"/>
     <use xlink:href="#DejaVuSans-3" transform="translate(591.328125 0)"/>
     <use xlink:href="#DejaVuSans-18" transform="translate(623.109375 0)"/>
     <use xlink:href="#DejaVuSans-39" transform="translate(686.734375 0)"/>
     <use xlink:href="#DejaVuSans-3" transform="translate(755.140625 0)"/>
     <use xlink:href="#DejaVuSans-55" transform="translate(786.921875 0)"/>
     <use xlink:href="#DejaVuSans-44" transform="translate(828.03125 0)"/>
     <use xlink:href="#DejaVuSans-4c" transform="translate(889.3125 0)"/>
     <use xlink:href="#DejaVuSans-4f" transform="translate(917.09375 0)"/>
     <use xlink:href="#DejaVuSans-c" transform="translate(944.875 0)"/>
    </g>
   </g>
   <g id="text_7">
    <!-- GND -->
    <g transform="translate(41.502656 124.023828) scale(0.11 -0.11)">
     <use xlink:href="#DejaVuSans-2a"/>
     <use xlink:href="#DejaVuSans-31" transform="translate(77.484375 0)"/>
     <use xlink:href="#DejaVuSans-27" transform="translate(152.296875 0)"/>
    </g>
    <!-- (common with P4) -->
    <g transform="translate(3.887813 134.473828) scale(0.11 -0.11)">
     <defs>
      <path id="DejaVuSans-50" d="M 3328 2828
Q 3544 3216 3844 3400
Q 4144 3584 4550 3584
Q 5097 3584 5394 3201
Q 5691 2819 5691 2113
L 5691 0
L 5113 0
L 5113 2094
Q 5113 2597 4934 2840
Q 4756 3084 4391 3084
Q 3944 3084 3684 2787
Q 3425 2491 3425 1978
L 3425 0
L 2847 0
L 2847 2094
Q 2847 2600 2669 2842
Q 2491 3084 2119 3084
Q 1678 3084 1418 2786
Q 1159 2488 1159 1978
L 1159 0
L 581 0
L 581 3500
L 1159 3500
L 1159 2956
Q 1356 3278 1631 3431
Q 1906 3584 2284 3584
Q 2666 3584 2933 3390
Q 3200 3197 3328 2828
z
" transform="scale(0.015625)"/>
      <path id="DejaVuSans-33" d="M 1259 4147
L 1259 2394
L 2053 2394
Q 2494 2394 2734 2622
Q 2975 2850 2975 3272
Q 2975 3691 2734 3919
Q 2494 4147 2053 4147
L 1259 4147
z
M 628 4666
L 2053 4666
Q 2838 4666 3239 4311
Q 3641 3956 3641 3272
Q 3641 2581 3239 2228
Q 2838 1875 2053 1875
L 1259 1875
L 1259 0
L 628 0
L 628 4666
z
" transform="scale(0.015625)"/>
      <path id="DejaVuSans-17" d="M 2419 4116
L 825 1625
L 2419 1625
L 2419 4116
z
M 2253 4666
L 3047 4666
L 3047 1625
L 3713 1625
L 3713 1100
L 3047 1100
L 3047 0
L 2419 0
L 2419 1100
L 313 1100
L 313 1709
L 2253 4666
z
" transform="scale(0.015625)"/>
     </defs>
     <use xlink:href="#DejaVuSans-b"/>
     <use xlink:href="#DejaVuSans-46" transform="translate(39.015625 0)"/>
     <use xlink:href="#DejaVuSans-52" transform="translate(94 0)"/>
     <use xlink:href="#DejaVuSans-50" transform="translate(155.1875 0)"/>
     <use xlink:href="#DejaVuSans-50" transform="translate(252.59375 0)"/>
     <use xlink:href="#DejaVuSans-52" transform="translate(350 0)"/>
     <use xlink:href="#DejaVuSans-51" transform="translate(411.1875 0)"/>
     <use xlink:href="#DejaVuSans-3" transform="translate(474.5625 0)"/>
     <use xlink:href="#DejaVuSans-5a" transform="translate(506.34375 0)"/>
     <use xlink:href="#DejaVuSans-4c" transform="translate(588.125 0)"/>
     <use xlink:href="#DejaVuSans-57" transform="translate(615.90625 0)"/>
     <use xlink:href="#DejaVuSans-4b" transform="translate(655.109375 0)"/>
     <use xlink:href="#DejaVuSans-3" transform="translate(718.484375 0)"/>
     <use xlink:href="#DejaVuSans-33" transform="translate(750.265625 0)"/>
     <use xlink:href="#DejaVuSans-17" transform="translate(810.5625 0)"/>
     <use xlink:href="#DejaVuSans-c" transform="translate(874.1875 0)"/>
    </g>
   </g>
   <g id="text_8">
    <!-- 9600 baud, NMEA RMC. RX-only: TX pin left unwired (fixes need RX alone). -->
    <g transform="translate(19.453438 264.063438) scale(0.09 -0.09)">
     <defs>
      <path id="DejaVuSans-1c" d="M 703 97
L 703 672
Q 941 559 1184 500
Q 1428 441 1663 441
Q 2288 441 2617 861
Q 2947 1281 2994 2138
Q 2813 1869 2534 1725
Q 2256 1581 1919 1581
Q 1219 1581 811 2004
Q 403 2428 403 3163
Q 403 3881 828 4315
Q 1253 4750 1959 4750
Q 2769 4750 3195 4129
Q 3622 3509 3622 2328
Q 3622 1225 3098 567
Q 2575 -91 1691 -91
Q 1453 -91 1209 -44
Q 966 3 703 97
z
M 1959 2075
Q 2384 2075 2632 2365
Q 2881 2656 2881 3163
Q 2881 3666 2632 3958
Q 2384 4250 1959 4250
Q 1534 4250 1286 3958
Q 1038 3666 1038 3163
Q 1038 2656 1286 2365
Q 1534 2075 1959 2075
z
" transform="scale(0.015625)"/>
      <path id="DejaVuSans-13" d="M 2034 4250
Q 1547 4250 1301 3770
Q 1056 3291 1056 2328
Q 1056 1369 1301 889
Q 1547 409 2034 409
Q 2525 409 2770 889
Q 3016 1369 3016 2328
Q 3016 3291 2770 3770
Q 2525 4250 2034 4250
z
M 2034 4750
Q 2819 4750 3233 4129
Q 3647 3509 3647 2328
Q 3647 1150 3233 529
Q 2819 -91 2034 -91
Q 1250 -91 836 529
Q 422 1150 422 2328
Q 422 3509 836 4129
Q 1250 4750 2034 4750
z
" transform="scale(0.015625)"/>
      <path id="DejaVuSans-58" d="M 544 1381
L 544 3500
L 1119 3500
L 1119 1403
Q 1119 906 1312 657
Q 1506 409 1894 409
Q 2359 409 2629 706
Q 2900 1003 2900 1516
L 2900 3500
L 3475 3500
L 3475 0
L 2900 0
L 2900 538
Q 2691 219 2414 64
Q 2138 -91 1772 -91
Q 1169 -91 856 284
Q 544 659 544 1381
z
M 1991 3584
L 1991 3584
z
" transform="scale(0.015625)"/>
      <path id="DejaVuSans-47" d="M 2906 2969
L 2906 4863
L 3481 4863
L 3481 0
L 2906 0
L 2906 525
Q 2725 213 2448 61
Q 2172 -91 1784 -91
Q 1150 -91 751 415
Q 353 922 353 1747
Q 353 2572 751 3078
Q 1150 3584 1784 3584
Q 2172 3584 2448 3432
Q 2725 3281 2906 2969
z
M 947 1747
Q 947 1113 1208 752
Q 1469 391 1925 391
Q 2381 391 2643 752
Q 2906 1113 2906 1747
Q 2906 2381 2643 2742
Q 2381 3103 1925 3103
Q 1469 3103 1208 2742
Q 947 2381 947 1747
z
" transform="scale(0.015625)"/>
      <path id="DejaVuSans-f" d="M 750 794
L 1409 794
L 1409 256
L 897 -744
L 494 -744
L 750 256
L 750 794
z
" transform="scale(0.015625)"/>
      <path id="DejaVuSans-24" d="M 2188 4044
L 1331 1722
L 3047 1722
L 2188 4044
z
M 1831 4666
L 2547 4666
L 4325 0
L 3669 0
L 3244 1197
L 1141 1197
L 716 0
L 50 0
L 1831 4666
z
" transform="scale(0.015625)"/>
      <path id="DejaVuSans-11" d="M 684 794
L 1344 794
L 1344 0
L 684 0
L 684 794
z
" transform="scale(0.015625)"/>
      <path id="DejaVuSans-5c" d="M 2059 -325
Q 1816 -950 1584 -1140
Q 1353 -1331 966 -1331
L 506 -1331
L 506 -850
L 844 -850
Q 1081 -850 1212 -737
Q 1344 -625 1503 -206
L 1606 56
L 191 3500
L 800 3500
L 1894 763
L 2988 3500
L 3597 3500
L 2059 -325
z
" transform="scale(0.015625)"/>
      <path id="DejaVuSans-1d" d="M 750 794
L 1409 794
L 1409 0
L 750 0
L 750 794
z
M 750 3309
L 1409 3309
L 1409 2516
L 750 2516
L 750 3309
z
" transform="scale(0.015625)"/>
      <path id="DejaVuSans-49" d="M 2375 4863
L 2375 4384
L 1825 4384
Q 1516 4384 1395 4259
Q 1275 4134 1275 3809
L 1275 3500
L 2222 3500
L 2222 3053
L 1275 3053
L 1275 0
L 697 0
L 697 3053
L 147 3053
L 147 3500
L 697 3500
L 697 3744
Q 697 4328 969 4595
Q 1241 4863 1831 4863
L 2375 4863
z
" transform="scale(0.015625)"/>
      <path id="DejaVuSans-13af" d="M 3431 3500
L 3431 0
L 2853 0
L 2853 3053
L 1275 3053
L 1275 0
L 697 0
L 697 3053
L 147 3053
L 147 3500
L 697 3500
L 697 3744
Q 697 4316 967 4589
Q 1238 4863 1797 4863
L 2375 4863
L 2375 4384
L 1825 4384
Q 1516 4384 1395 4259
Q 1275 4134 1275 3809
L 1275 3500
L 3431 3500
z
M 2853 4856
L 3431 4856
L 3431 4128
L 2853 4128
L 2853 4856
z
" transform="scale(0.015625)"/>
      <path id="DejaVuSans-5b" d="M 3513 3500
L 2247 1797
L 3578 0
L 2900 0
L 1881 1375
L 863 0
L 184 0
L 1544 1831
L 300 3500
L 978 3500
L 1906 2253
L 2834 3500
L 3513 3500
z
" transform="scale(0.015625)"/>
      <path id="DejaVuSans-56" d="M 2834 3397
L 2834 2853
Q 2591 2978 2328 3040
Q 2066 3103 1784 3103
Q 1356 3103 1142 2972
Q 928 2841 928 2578
Q 928 2378 1081 2264
Q 1234 2150 1697 2047
L 1894 2003
Q 2506 1872 2764 1633
Q 3022 1394 3022 966
Q 3022 478 2636 193
Q 2250 -91 1575 -91
Q 1294 -91 989 -36
Q 684 19 347 128
L 347 722
Q 666 556 975 473
Q 1284 391 1588 391
Q 1994 391 2212 530
Q 2431 669 2431 922
Q 2431 1156 2273 1281
Q 2116 1406 1581 1522
L 1381 1569
Q 847 1681 609 1914
Q 372 2147 372 2553
Q 372 3047 722 3315
Q 1072 3584 1716 3584
Q 2034 3584 2315 3537
Q 2597 3491 2834 3397
z
" transform="scale(0.015625)"/>
     </defs>
     <use xlink:href="#DejaVuSans-1c"/>
     <use xlink:href="#DejaVuSans-19" transform="translate(63.625 0)"/>
     <use xlink:href="#DejaVuSans-13" transform="translate(127.25 0)"/>
     <use xlink:href="#DejaVuSans-13" transform="translate(190.875 0)"/>
     <use xlink:href="#DejaVuSans-3" transform="translate(254.5 0)"/>
     <use xlink:href="#DejaVuSans-45" transform="translate(286.28125 0)"/>
     <use xlink:href="#DejaVuSans-44" transform="translate(349.765625 0)"/>
     <use xlink:href="#DejaVuSans-58" transform="translate(411.046875 0)"/>
     <use xlink:href="#DejaVuSans-47" transform="translate(474.421875 0)"/>
     <use xlink:href="#DejaVuSans-f" transform="translate(537.90625 0)"/>
     <use xlink:href="#DejaVuSans-3" transform="translate(569.6875 0)"/>
     <use xlink:href="#DejaVuSans-31" transform="translate(601.46875 0)"/>
     <use xlink:href="#DejaVuSans-30" transform="translate(676.28125 0)"/>
     <use xlink:href="#DejaVuSans-28" transform="translate(762.5625 0)"/>
     <use xlink:href="#DejaVuSans-24" transform="translate(825.75 0)"/>
     <use xlink:href="#DejaVuSans-3" transform="translate(894.15625 0)"/>
     <use xlink:href="#DejaVuSans-35" transform="translate(925.9375 0)"/>
     <use xlink:href="#DejaVuSans-30" transform="translate(995.421875 0)"/>
     <use xlink:href="#DejaVuSans-26" transform="translate(1081.703125 0)"/>
     <use xlink:href="#DejaVuSans-11" transform="translate(1151.53125 0)"/>
     <use xlink:href="#DejaVuSans-3" transform="translate(1183.3125 0)"/>
     <use xlink:href="#DejaVuSans-35" transform="translate(1215.09375 0)"/>
     <use xlink:href="#DejaVuSans-3b" transform="translate(1284.578125 0)"/>
     <use xlink:href="#DejaVuSans-10" transform="translate(1348.09375 0)"/>
     <use xlink:href="#DejaVuSans-52" transform="translate(1386.03125 0)"/>
     <use xlink:href="#DejaVuSans-51" transform="translate(1447.21875 0)"/>
     <use xlink:href="#DejaVuSans-4f" transform="translate(1510.59375 0)"/>
     <use xlink:href="#DejaVuSans-5c" transform="translate(1538.375 0)"/>
     <use xlink:href="#DejaVuSans-1d" transform="translate(1590.28125 0)"/>
     <use xlink:href="#DejaVuSans-3" transform="translate(1623.96875 0)"/>
     <use xlink:href="#DejaVuSans-37" transform="translate(1655.75 0)"/>
     <use xlink:href="#DejaVuSans-3b" transform="translate(1716.828125 0)"/>
     <use xlink:href="#DejaVuSans-3" transform="translate(1785.328125 0)"/>
     <use xlink:href="#DejaVuSans-53" transform="translate(1817.109375 0)"/>
     <use xlink:href="#DejaVuSans-4c" transform="translate(1880.59375 0)"/>
     <use xlink:href="#DejaVuSans-51" transform="translate(1908.375 0)"/>
     <use xlink:href="#DejaVuSans-3" transform="translate(1971.75 0)"/>
     <use xlink:href="#DejaVuSans-4f" transform="translate(2003.53125 0)"/>
     <use xlink:href="#DejaVuSans-48" transform="translate(2031.3125 0)"/>
     <use xlink:href="#DejaVuSans-49" transform="translate(2092.84375 0)"/>
     <use xlink:href="#DejaVuSans-57" transform="translate(2126.296875 0)"/>
     <use xlink:href="#DejaVuSans-3" transform="translate(2165.5 0)"/>
     <use xlink:href="#DejaVuSans-58" transform="translate(2197.28125 0)"/>
     <use xlink:href="#DejaVuSans-51" transform="translate(2260.65625 0)"/>
     <use xlink:href="#DejaVuSans-5a" transform="translate(2324.03125 0)"/>
     <use xlink:href="#DejaVuSans-4c" transform="translate(2405.8125 0)"/>
     <use xlink:href="#DejaVuSans-55" transform="translate(2433.59375 0)"/>
     <use xlink:href="#DejaVuSans-48" transform="translate(2472.5 0)"/>
     <use xlink:href="#DejaVuSans-47" transform="translate(2534.03125 0)"/>
     <use xlink:href="#DejaVuSans-3" transform="translate(2597.515625 0)"/>
     <use xlink:href="#DejaVuSans-b" transform="translate(2629.296875 0)"/>
     <use xlink:href="#DejaVuSans-13af" transform="translate(2668.3125 0)"/>
     <use xlink:href="#DejaVuSans-5b" transform="translate(2731.296875 0)"/>
     <use xlink:href="#DejaVuSans-48" transform="translate(2787.40625 0)"/>
     <use xlink:href="#DejaVuSans-56" transform="translate(2848.9375 0)"/>
     <use xlink:href="#DejaVuSans-3" transform="translate(2901.03125 0)"/>
     <use xlink:href="#DejaVuSans-51" transform="translate(2932.8125 0)"/>
     <use xlink:href="#DejaVuSans-48" transform="translate(2996.1875 0)"/>
     <use xlink:href="#DejaVuSans-48" transform="translate(3057.71875 0)"/>
     <use xlink:href="#DejaVuSans-47" transform="translate(3119.25 0)"/>
     <use xlink:href="#DejaVuSans-3" transform="translate(3182.734375 0)"/>
     <use xlink:href="#DejaVuSans-35" transform="translate(3214.515625 0)"/>
     <use xlink:href="#DejaVuSans-3b" transform="translate(3284 0)"/>
     <use xlink:href="#DejaVuSans-3" transform="translate(3352.5 0)"/>
     <use xlink:href="#DejaVuSans-44" transform="translate(3384.28125 0)"/>
     <use xlink:href="#DejaVuSans-4f" transform="translate(3445.5625 0)"/>
     <use xlink:href="#DejaVuSans-52" transform="translate(3473.34375 0)"/>
     <use xlink:href="#DejaVuSans-51" transform="translate(3534.53125 0)"/>
     <use xlink:href="#DejaVuSans-48" transform="translate(3597.90625 0)"/>
     <use xlink:href="#DejaVuSans-c" transform="translate(3659.4375 0)"/>
     <use xlink:href="#DejaVuSans-11" transform="translate(3698.453125 0)"/>
    </g>
    <!-- 3.3V TTL straight to the GPIO - - no level shift. Antenna needs sky view. -->
    <g transform="translate(28.101875 273.063438) scale(0.09 -0.09)">
     <defs>
      <path id="DejaVuSans-16" d="M 2597 2516
Q 3050 2419 3304 2112
Q 3559 1806 3559 1356
Q 3559 666 3084 287
Q 2609 -91 1734 -91
Q 1441 -91 1130 -33
Q 819 25 488 141
L 488 750
Q 750 597 1062 519
Q 1375 441 1716 441
Q 2309 441 2620 675
Q 2931 909 2931 1356
Q 2931 1769 2642 2001
Q 2353 2234 1838 2234
L 1294 2234
L 1294 2753
L 1863 2753
Q 2328 2753 2575 2939
Q 2822 3125 2822 3475
Q 2822 3834 2567 4026
Q 2313 4219 1838 4219
Q 1578 4219 1281 4162
Q 984 4106 628 3988
L 628 4550
Q 988 4650 1302 4700
Q 1616 4750 1894 4750
Q 2613 4750 3031 4423
Q 3450 4097 3450 3541
Q 3450 3153 3228 2886
Q 3006 2619 2597 2516
z
" transform="scale(0.015625)"/>
      <path id="DejaVuSans-2f" d="M 628 4666
L 1259 4666
L 1259 531
L 3531 531
L 3531 0
L 628 0
L 628 4666
z
" transform="scale(0.015625)"/>
      <path id="DejaVuSans-4a" d="M 2906 1791
Q 2906 2416 2648 2759
Q 2391 3103 1925 3103
Q 1463 3103 1205 2759
Q 947 2416 947 1791
Q 947 1169 1205 825
Q 1463 481 1925 481
Q 2391 481 2648 825
Q 2906 1169 2906 1791
z
M 3481 434
Q 3481 -459 3084 -895
Q 2688 -1331 1869 -1331
Q 1566 -1331 1297 -1286
Q 1028 -1241 775 -1147
L 775 -588
Q 1028 -725 1275 -790
Q 1522 -856 1778 -856
Q 2344 -856 2625 -561
Q 2906 -266 2906 331
L 2906 616
Q 2728 306 2450 153
Q 2172 0 1784 0
Q 1141 0 747 490
Q 353 981 353 1791
Q 353 2603 747 3093
Q 1141 3584 1784 3584
Q 2172 3584 2450 3431
Q 2728 3278 2906 2969
L 2906 3500
L 3481 3500
L 3481 434
z
" transform="scale(0.015625)"/>
      <path id="DejaVuSans-2c" d="M 628 4666
L 1259 4666
L 1259 0
L 628 0
L 628 4666
z
" transform="scale(0.015625)"/>
      <path id="DejaVuSans-59" d="M 191 3500
L 800 3500
L 1894 563
L 2988 3500
L 3597 3500
L 2284 0
L 1503 0
L 191 3500
z
" transform="scale(0.015625)"/>
     </defs>
     <use xlink:href="#DejaVuSans-16"/>
     <use xlink:href="#DejaVuSans-11" transform="translate(63.625 0)"/>
     <use xlink:href="#DejaVuSans-16" transform="translate(95.40625 0)"/>
     <use xlink:href="#DejaVuSans-39" transform="translate(159.03125 0)"/>
     <use xlink:href="#DejaVuSans-3" transform="translate(227.4375 0)"/>
     <use xlink:href="#DejaVuSans-37" transform="translate(259.21875 0)"/>
     <use xlink:href="#DejaVuSans-37" transform="translate(318.546875 0)"/>
     <use xlink:href="#DejaVuSans-2f" transform="translate(379.625 0)"/>
     <use xlink:href="#DejaVuSans-3" transform="translate(435.34375 0)"/>
     <use xlink:href="#DejaVuSans-56" transform="translate(467.125 0)"/>
     <use xlink:href="#DejaVuSans-57" transform="translate(519.21875 0)"/>
     <use xlink:href="#DejaVuSans-55" transform="translate(558.421875 0)"/>
     <use xlink:href="#DejaVuSans-44" transform="translate(599.53125 0)"/>
     <use xlink:href="#DejaVuSans-4c" transform="translate(660.8125 0)"/>
     <use xlink:href="#DejaVuSans-4a" transform="translate(688.59375 0)"/>
     <use xlink:href="#DejaVuSans-4b" transform="translate(752.078125 0)"/>
     <use xlink:href="#DejaVuSans-57" transform="translate(815.453125 0)"/>
     <use xlink:href="#DejaVuSans-3" transform="translate(854.65625 0)"/>
     <use xlink:href="#DejaVuSans-57" transform="translate(886.4375 0)"/>
     <use xlink:href="#DejaVuSans-52" transform="translate(925.640625 0)"/>
     <use xlink:href="#DejaVuSans-3" transform="translate(986.828125 0)"/>
     <use xlink:href="#DejaVuSans-57" transform="translate(1018.609375 0)"/>
     <use xlink:href="#DejaVuSans-4b" transform="translate(1057.8125 0)"/>
     <use xlink:href="#DejaVuSans-48" transform="translate(1121.1875 0)"/>
     <use xlink:href="#DejaVuSans-3" transform="translate(1182.71875 0)"/>
     <use xlink:href="#DejaVuSans-2a" transform="translate(1214.5 0)"/>
     <use xlink:href="#DejaVuSans-33" transform="translate(1291.984375 0)"/>
     <use xlink:href="#DejaVuSans-2c" transform="translate(1352.28125 0)"/>
     <use xlink:href="#DejaVuSans-32" transform="translate(1381.78125 0)"/>
     <use xlink:href="#DejaVuSans-3" transform="translate(1460.5 0)"/>
     <use xlink:href="#DejaVuSans-10" transform="translate(1492.28125 0)"/>
     <use xlink:href="#DejaVuSans-10" transform="translate(1528.359375 0)"/>
     <use xlink:href="#DejaVuSans-3" transform="translate(1564.4375 0)"/>
     <use xlink:href="#DejaVuSans-51" transform="translate(1596.21875 0)"/>
     <use xlink:href="#DejaVuSans-52" transform="translate(1659.59375 0)"/>
     <use xlink:href="#DejaVuSans-3" transform="translate(1720.78125 0)"/>
     <use xlink:href="#DejaVuSans-4f" transform="translate(1752.5625 0)"/>
     <use xlink:href="#DejaVuSans-48" transform="translate(1780.34375 0)"/>
     <use xlink:href="#DejaVuSans-59" transform="translate(1841.875 0)"/>
     <use xlink:href="#DejaVuSans-48" transform="translate(1901.0625 0)"/>
     <use xlink:href="#DejaVuSans-4f" transform="translate(1962.59375 0)"/>
     <use xlink:href="#DejaVuSans-3" transform="translate(1990.375 0)"/>
     <use xlink:href="#DejaVuSans-56" transform="translate(2022.15625 0)"/>
     <use xlink:href="#DejaVuSans-4b" transform="translate(2074.25 0)"/>
     <use xlink:href="#DejaVuSans-4c" transform="translate(2137.625 0)"/>
     <use xlink:href="#DejaVuSans-49" transform="translate(2165.40625 0)"/>
     <use xlink:href="#DejaVuSans-57" transform="translate(2198.859375 0)"/>
     <use xlink:href="#DejaVuSans-11" transform="translate(2238.0625 0)"/>
     <use xlink:href="#DejaVuSans-3" transform="translate(2269.84375 0)"/>
     <use xlink:href="#DejaVuSans-24" transform="translate(2301.625 0)"/>
     <use xlink:href="#DejaVuSans-51" transform="translate(2370.03125 0)"/>
     <use xlink:href="#DejaVuSans-57" transform="translate(2433.40625 0)"/>
     <use xlink:href="#DejaVuSans-48" transform="translate(2472.609375 0)"/>
     <use xlink:href="#DejaVuSans-51" transform="translate(2534.140625 0)"/>
     <use xlink:href="#DejaVuSans-51" transform="translate(2597.515625 0)"/>
     <use xlink:href="#DejaVuSans-44" transform="translate(2660.890625 0)"/>
     <use xlink:href="#DejaVuSans-3" transform="translate(2722.171875 0)"/>
     <use xlink:href="#DejaVuSans-51" transform="translate(2753.953125 0)"/>
     <use xlink:href="#DejaVuSans-48" transform="translate(2817.328125 0)"/>
     <use xlink:href="#DejaVuSans-48" transform="translate(2878.859375 0)"/>
     <use xlink:href="#DejaVuSans-47" transform="translate(2940.390625 0)"/>
     <use xlink:href="#DejaVuSans-56" transform="translate(3003.875 0)"/>
     <use xlink:href="#DejaVuSans-3" transform="translate(3055.96875 0)"/>
     <use xlink:href="#DejaVuSans-56" transform="translate(3087.75 0)"/>
     <use xlink:href="#DejaVuSans-4e" transform="translate(3139.84375 0)"/>
     <use xlink:href="#DejaVuSans-5c" transform="translate(3194.1875 0)"/>
     <use xlink:href="#DejaVuSans-3" transform="translate(3253.375 0)"/>
     <use xlink:href="#DejaVuSans-59" transform="translate(3285.15625 0)"/>
     <use xlink:href="#DejaVuSans-4c" transform="translate(3344.34375 0)"/>
     <use xlink:href="#DejaVuSans-48" transform="translate(3372.125 0)"/>
     <use xlink:href="#DejaVuSans-5a" transform="translate(3433.65625 0)"/>
     <use xlink:href="#DejaVuSans-11" transform="translate(3506.265625 0)"/>
    </g>
   </g>
   <g id="patch_2">
    <path d="M 342.113984 47.38
C 342.830033 47.38 343.51685 47.095511 344.023173 46.589188
C 344.529495 46.082866 344.813984 45.396048 344.813984 44.68
C 344.813984 43.963952 344.529495 43.277134 344.023173 42.770812
C 343.51685 42.264489 342.830033 41.98 342.113984 41.98
C 341.397936 41.98 340.711119 42.264489 340.204796 42.770812
C 339.698473 43.277134 339.413984 43.963952 339.413984 44.68
C 339.413984 45.396048 339.698473 46.082866 340.204796 46.589188
C 340.711119 47.095511 341.397936 47.38 342.113984 47.38
z
" clip-path="url(#p1dd65fbc71)" style="fill: #ffffff; stroke: #000000; stroke-width: 2; stroke-linejoin: miter"/>
   </g>
   <g id="text_9">
    <!-- ESP32-P4 GPIO 21 -->
    <g transform="translate(348.413984 43.183828) scale(0.11 -0.11)">
     <defs>
      <path id="DejaVuSans-36" d="M 3425 4513
L 3425 3897
Q 3066 4069 2747 4153
Q 2428 4238 2131 4238
Q 1616 4238 1336 4038
Q 1056 3838 1056 3469
Q 1056 3159 1242 3001
Q 1428 2844 1947 2747
L 2328 2669
Q 3034 2534 3370 2195
Q 3706 1856 3706 1288
Q 3706 609 3251 259
Q 2797 -91 1919 -91
Q 1588 -91 1214 -16
Q 841 59 441 206
L 441 856
Q 825 641 1194 531
Q 1563 422 1919 422
Q 2459 422 2753 634
Q 3047 847 3047 1241
Q 3047 1584 2836 1778
Q 2625 1972 2144 2069
L 1759 2144
Q 1053 2284 737 2584
Q 422 2884 422 3419
Q 422 4038 858 4394
Q 1294 4750 2059 4750
Q 2388 4750 2728 4690
Q 3069 4631 3425 4513
z
" transform="scale(0.015625)"/>
      <path id="DejaVuSans-14" d="M 794 531
L 1825 531
L 1825 4091
L 703 3866
L 703 4441
L 1819 4666
L 2450 4666
L 2450 531
L 3481 531
L 3481 0
L 794 0
L 794 531
z
" transform="scale(0.015625)"/>
     </defs>
     <use xlink:href="#DejaVuSans-28"/>
     <use xlink:href="#DejaVuSans-36" transform="translate(63.1875 0)"/>
     <use xlink:href="#DejaVuSans-33" transform="translate(126.671875 0)"/>
     <use xlink:href="#DejaVuSans-16" transform="translate(186.96875 0)"/>
     <use xlink:href="#DejaVuSans-15" transform="translate(250.59375 0)"/>
     <use xlink:href="#DejaVuSans-10" transform="translate(314.21875 0)"/>
     <use xlink:href="#DejaVuSans-33" transform="translate(350.296875 0)"/>
     <use xlink:href="#DejaVuSans-17" transform="translate(410.59375 0)"/>
     <use xlink:href="#DejaVuSans-3" transform="translate(474.21875 0)"/>
     <use xlink:href="#DejaVuSans-2a" transform="translate(506 0)"/>
     <use xlink:href="#DejaVuSans-33" transform="translate(583.484375 0)"/>
     <use xlink:href="#DejaVuSans-2c" transform="translate(643.78125 0)"/>
     <use xlink:href="#DejaVuSans-32" transform="translate(673.28125 0)"/>
     <use xlink:href="#DejaVuSans-3" transform="translate(752 0)"/>
     <use xlink:href="#DejaVuSans-15" transform="translate(783.78125 0)"/>
     <use xlink:href="#DejaVuSans-14" transform="translate(847.40625 0)"/>
    </g>
    <!-- (VROD_GPS_RX_GPIO) -->
    <g transform="translate(348.413984 53.056328) scale(0.11 -0.11)">
     <defs>
      <path id="DejaVuSans-42" d="M 3263 -1063
L 3263 -1509
L -63 -1509
L -63 -1063
L 3263 -1063
z
" transform="scale(0.015625)"/>
     </defs>
     <use xlink:href="#DejaVuSans-b"/>
     <use xlink:href="#DejaVuSans-39" transform="translate(39.015625 0)"/>
     <use xlink:href="#DejaVuSans-35" transform="translate(107.421875 0)"/>
     <use xlink:href="#DejaVuSans-32" transform="translate(176.90625 0)"/>
     <use xlink:href="#DejaVuSans-27" transform="translate(255.625 0)"/>
     <use xlink:href="#DejaVuSans-42" transform="translate(332.625 0)"/>
     <use xlink:href="#DejaVuSans-2a" transform="translate(382.625 0)"/>
     <use xlink:href="#DejaVuSans-33" transform="translate(460.109375 0)"/>
     <use xlink:href="#DejaVuSans-36" transform="translate(520.40625 0)"/>
     <use xlink:href="#DejaVuSans-42" transform="translate(583.890625 0)"/>
     <use xlink:href="#DejaVuSans-35" transform="translate(633.890625 0)"/>
     <use xlink:href="#DejaVuSans-3b" transform="translate(703.375 0)"/>
     <use xlink:href="#DejaVuSans-42" transform="translate(771.875 0)"/>
     <use xlink:href="#DejaVuSans-2a" transform="translate(821.875 0)"/>
     <use xlink:href="#DejaVuSans-33" transform="translate(899.359375 0)"/>
     <use xlink:href="#DejaVuSans-2c" transform="translate(959.65625 0)"/>
     <use xlink:href="#DejaVuSans-32" transform="translate(989.15625 0)"/>
     <use xlink:href="#DejaVuSans-c" transform="translate(1067.875 0)"/>
    </g>
   </g>
   <g id="patch_3">
    <path d="M 342.113984 90.58
C 342.830033 90.58 343.51685 90.295511 344.023173 89.789188
C 344.529495 89.282866 344.813984 88.596048 344.813984 87.88
C 344.813984 87.163952 344.529495 86.477134 344.023173 85.970812
C 343.51685 85.464489 342.830033 85.18 342.113984 85.18
C 341.397936 85.18 340.711119 85.464489 340.204796 85.970812
C 339.698473 86.477134 339.413984 87.163952 339.413984 87.88
C 339.413984 88.596048 339.698473 89.282866 340.204796 89.789188
C 340.711119 90.295511 341.397936 90.58 342.113984 90.58
z
" clip-path="url(#p1dd65fbc71)" style="fill: #ffffff; stroke: #888888; stroke-width: 2; stroke-linejoin: miter"/>
   </g>
   <g id="text_10">
    <!-- (optional) P4 TX -->
    <g style="fill: #888888" transform="translate(348.413984 85.415312) scale(0.11 -0.11)">
     <use xlink:href="#DejaVuSans-b"/>
     <use xlink:href="#DejaVuSans-52" transform="translate(39.015625 0)"/>
     <use xlink:href="#DejaVuSans-53" transform="translate(100.203125 0)"/>
     <use xlink:href="#DejaVuSans-57" transform="translate(163.6875 0)"/>
     <use xlink:href="#DejaVuSans-4c" transform="translate(202.890625 0)"/>
     <use xlink:href="#DejaVuSans-52" transform="translate(230.671875 0)"/>
     <use xlink:href="#DejaVuSans-51" transform="translate(291.859375 0)"/>
     <use xlink:href="#DejaVuSans-44" transform="translate(355.234375 0)"/>
     <use xlink:href="#DejaVuSans-4f" transform="translate(416.515625 0)"/>
     <use xlink:href="#DejaVuSans-c" transform="translate(444.296875 0)"/>
     <use xlink:href="#DejaVuSans-3" transform="translate(483.3125 0)"/>
     <use xlink:href="#DejaVuSans-33" transform="translate(515.09375 0)"/>
     <use xlink:href="#DejaVuSans-17" transform="translate(575.390625 0)"/>
     <use xlink:href="#DejaVuSans-3" transform="translate(639.015625 0)"/>
     <use xlink:href="#DejaVuSans-37" transform="translate(670.796875 0)"/>
     <use xlink:href="#DejaVuSans-3b" transform="translate(731.875 0)"/>
    </g>
    <!-- VROD_GPS_TX_GPIO = -1 -->
    <g style="fill: #888888" transform="translate(348.413984 96.165234) scale(0.11 -0.11)">
     <defs>
      <path id="DejaVuSans-20" d="M 678 2906
L 4684 2906
L 4684 2381
L 678 2381
L 678 2906
z
M 678 1631
L 4684 1631
L 4684 1100
L 678 1100
L 678 1631
z
" transform="scale(0.015625)"/>
     </defs>
     <use xlink:href="#DejaVuSans-39"/>
     <use xlink:href="#DejaVuSans-35" transform="translate(68.40625 0)"/>
     <use xlink:href="#DejaVuSans-32" transform="translate(137.890625 0)"/>
     <use xlink:href="#DejaVuSans-27" transform="translate(216.609375 0)"/>
     <use xlink:href="#DejaVuSans-42" transform="translate(293.609375 0)"/>
     <use xlink:href="#DejaVuSans-2a" transform="translate(343.609375 0)"/>
     <use xlink:href="#DejaVuSans-33" transform="translate(421.09375 0)"/>
     <use xlink:href="#DejaVuSans-36" transform="translate(481.390625 0)"/>
     <use xlink:href="#DejaVuSans-42" transform="translate(544.875 0)"/>
     <use xlink:href="#DejaVuSans-37" transform="translate(594.875 0)"/>
     <use xlink:href="#DejaVuSans-3b" transform="translate(655.953125 0)"/>
     <use xlink:href="#DejaVuSans-42" transform="translate(724.453125 0)"/>
     <use xlink:href="#DejaVuSans-2a" transform="translate(774.453125 0)"/>
     <use xlink:href="#DejaVuSans-33" transform="translate(851.9375 0)"/>
     <use xlink:href="#DejaVuSans-2c" transform="translate(912.234375 0)"/>
     <use xlink:href="#DejaVuSans-32" transform="translate(941.734375 0)"/>
     <use xlink:href="#DejaVuSans-3" transform="translate(1020.453125 0)"/>
     <use xlink:href="#DejaVuSans-20" transform="translate(1052.234375 0)"/>
     <use xlink:href="#DejaVuSans-3" transform="translate(1136.03125 0)"/>
     <use xlink:href="#DejaVuSans-10" transform="translate(1167.8125 0)"/>
     <use xlink:href="#DejaVuSans-14" transform="translate(1203.890625 0)"/>
    </g>
   </g>
  </g>
 </g>
 <defs>
  <clipPath id="p1dd65fbc71">
   <rect x="1.286984" y="0" width="490.275" height="279.76"/>
  </clipPath>
 </defs>
</svg>
