<?xml version="1.0" encoding="utf-8" standalone="no"?>
<!DOCTYPE svg PUBLIC "-//W3C//DTD SVG 1.1//EN"
  "http://www.w3.org/Graphics/SVG/1.1/DTD/svg11.dtd">
<svg xmlns:xlink="http://www.w3.org/1999/xlink" width="439.294125pt" height="373.16pt" viewBox="0 0 439.294125 373.16" xmlns="http://www.w3.org/2000/svg" version="1.1">
 <metadata>
  <rdf:RDF xmlns:dc="http://purl.org/dc/elements/1.1/" xmlns:cc="http://creativecommons.org/ns#" xmlns:rdf="http://www.w3.org/1999/02/22-rdf-syntax-ns#">
   <cc:Work>
    <dc:type rdf:resource="http://purl.org/dc/dcmitype/StillImage"/>
    <dc:date>2026-07-03T20:24:22.524609</dc:date>
    <dc:format>image/svg+xml</dc:format>
    <dc:creator>
     <cc:Agent>
      <dc:title>Matplotlib v3.11.0, https://matplotlib.org/</dc:title>
     </cc:Agent>
    </dc:creator>
   </cc:Work>
  </rdf:RDF>
 </metadata>
 <defs>
  <style type="text/css">*{stroke-linejoin: round; stroke-linecap: butt}</style>
 </defs>
 <g id="figure_1">
  <g id="patch_1">
   <path d="M 0 373.16
L 439.294125 373.16
L 439.294125 0
L 0 0
z
" style="fill: #ffffff"/>
  </g>
  <g id="axes_1">
   <g id="patch_2">
    <path d="M 240.036 132.68
C 245.287021 132.68 250.323681 130.593747 254.036714 126.880714
C 257.749747 123.167681 259.836 118.131021 259.836 112.88
C 259.836 107.628979 257.749747 102.592319 254.036714 98.879286
C 250.323681 95.166253 245.287021 93.08 240.036 93.08
C 234.784979 93.08 229.748319 95.166253 226.035286 98.879286
C 222.322253 102.592319 220.236 107.628979 220.236 112.88
C 220.236 118.131021 222.322253 123.167681 226.035286 126.880714
C 229.748319 130.593747 234.784979 132.68 240.036 132.68
L 240.036 132.68
z
" clip-path="url(#p9cbf1abf97)" style="fill: none; stroke: #000000; stroke-width: 2; stroke-linejoin: miter"/>
   </g>
   <g id="line2d_1">
    <path d="M 111.036 233.48
L 132.636 233.48
L 135.636 224.48
L 141.636 242.48
L 147.636 224.48
L 153.636 242.48
L 159.636 224.48
L 165.636 242.48
L 168.636 233.48
L 190.236 233.48
" clip-path="url(#p9cbf1abf97)" style="fill: none; stroke: #000000; stroke-width: 2; stroke-linecap: round"/>
   </g>
   <g id="line2d_2">
    <path d="M 141.036 206.48
L 141.036 221.48
L 165.036 221.48
L 165.036 245.48
L 141.036 245.48
L 141.036 260.48
" clip-path="url(#p9cbf1abf97)" style="fill: none; stroke: #000000; stroke-width: 2; stroke-linecap: round"/>
   </g>
   <g id="line2d_3">
    <path d="M 171.036 221.48
L 171.036 245.48
" clip-path="url(#p9cbf1abf97)" style="fill: none; stroke: #000000; stroke-width: 2; stroke-linecap: round"/>
   </g>
   <g id="line2d_4">
    <path d="M 171.036 233.48
L 190.236 233.48
" clip-path="url(#p9cbf1abf97)" style="fill: none; stroke: #000000; stroke-width: 2; stroke-linecap: round"/>
   </g>
   <g id="line2d_5">
    <path d="M 141.036 260.48
L 141.036 274.88
L 132.036 274.88
L 150.036 274.88
M 134.736 279.2
L 147.336 279.2
M 139.236 283.52
L 142.836 283.52
" clip-path="url(#p9cbf1abf97)" style="fill: none; stroke: #000000; stroke-width: 2; stroke-linecap: round"/>
   </g>
   <g id="line2d_6">
    <path d="M 141.036 206.48
L 141.036 199.28
L 141.036 192.08
" clip-path="url(#p9cbf1abf97)" style="fill: none; stroke: #000000; stroke-width: 2; stroke-linecap: round"/>
   </g>
   <g id="line2d_7">
    <path d="M 141.036 192.08
L 141.036 170.48
L 132.036 167.48
L 150.036 161.48
L 132.036 155.48
L 150.036 149.48
L 132.036 143.48
L 150.036 137.48
L 141.036 134.48
L 141.036 112.88
" clip-path="url(#p9cbf1abf97)" style="fill: none; stroke: #000000; stroke-width: 2; stroke-linecap: round"/>
   </g>
   <g id="line2d_8">
    <path d="M 141.036 112.88
L 141.036 91.28
L 132.036 88.28
L 150.036 82.28
L 132.036 76.28
L 150.036 70.28
L 132.036 64.28
L 150.036 58.28
L 141.036 55.28
L 141.036 33.68
" clip-path="url(#p9cbf1abf97)" style="fill: none; stroke: #000000; stroke-width: 2; stroke-linecap: round"/>
   </g>
   <g id="line2d_9">
    <path d="M 141.036 112.88
L 180.636 112.88
L 220.236 112.88
" clip-path="url(#p9cbf1abf97)" style="fill: none; stroke: #000000; stroke-width: 2; stroke-linecap: round"/>
   </g>
   <g id="line2d_10">
    <path d="M 220.236 112.88
L 233.436 112.88
" clip-path="url(#p9cbf1abf97)" style="fill: none; stroke: #000000; stroke-width: 2; stroke-linecap: round"/>
   </g>
   <g id="line2d_11">
    <path d="M 233.436 126.08
L 233.436 99.68
" clip-path="url(#p9cbf1abf97)" style="fill: none; stroke: #000000; stroke-width: 2; stroke-linecap: round"/>
   </g>
   <g id="line2d_12">
    <path d="M 233.436 119.48
L 247.296 131.36
L 247.296 137.96
" clip-path="url(#p9cbf1abf97)" style="fill: none; stroke: #000000; stroke-width: 2; stroke-linecap: round"/>
   </g>
   <g id="line2d_13">
    <path d="M 233.436 106.28
L 247.296 94.4
L 247.296 87.8
" clip-path="url(#p9cbf1abf97)" style="fill: none; stroke: #000000; stroke-width: 2; stroke-linecap: round"/>
   </g>
   <g id="line2d_14">
    <path d="M 247.296 131.36
L 240.269309 125.337122
" clip-path="url(#p9cbf1abf97)" style="fill: none; stroke: #000000; stroke-width: 2; stroke-linecap: round"/>
   </g>
   <g id="patch_3">
    <path d="M 237.92646 128.070446
L 233.436 119.48
L 242.612158 122.603799
z
" clip-path="url(#p9cbf1abf97)"/>
   </g>
   <g id="line2d_15">
    <path d="M 247.296 137.96
L 247.296 85.82
L 247.296 33.68
" clip-path="url(#p9cbf1abf97)" style="fill: none; stroke: #000000; stroke-width: 2; stroke-linecap: round"/>
   </g>
   <g id="line2d_16">
    <path d="M 247.296 33.68
L 194.166 33.68
L 141.036 33.68
" clip-path="url(#p9cbf1abf97)" style="fill: none; stroke: #000000; stroke-width: 2; stroke-linecap: round"/>
   </g>
   <g id="line2d_17">
    <path d="M 247.296 33.68
L 247.296 19.28
" clip-path="url(#p9cbf1abf97)" style="fill: none; stroke: #000000; stroke-width: 2; stroke-linecap: round"/>
   </g>
   <g id="line2d_18">
    <path d="M 247.296 19.28
L 240.546 19.28
" clip-path="url(#p9cbf1abf97)" style="fill: none; stroke: #000000; stroke-width: 2; stroke-linecap: round"/>
   </g>
   <g id="line2d_19">
    <path d="M 247.296 19.28
L 254.046 19.28
" clip-path="url(#p9cbf1abf97)" style="fill: none; stroke: #000000; stroke-width: 2; stroke-linecap: round"/>
   </g>
   <g id="line2d_20">
    <path d="M 247.296 87.8
L 247.296 98.6
L 247.296 109.4
" clip-path="url(#p9cbf1abf97)" style="fill: none; stroke: #000000; stroke-width: 2; stroke-linecap: round"/>
   </g>
   <g id="line2d_21">
    <path d="M 247.296 109.4
L 247.296 131
L 256.296 134
L 238.296 140
L 256.296 146
L 238.296 152
L 256.296 158
L 238.296 164
L 247.296 167
L 247.296 188.6
" clip-path="url(#p9cbf1abf97)" style="fill: none; stroke: #000000; stroke-width: 2; stroke-linecap: round"/>
   </g>
   <g id="line2d_22">
    <path d="M 247.296 188.6
L 247.296 195.8
L 247.296 203
" clip-path="url(#p9cbf1abf97)" style="fill: none; stroke: #000000; stroke-width: 2; stroke-linecap: round"/>
   </g>
   <g id="text_1">
    <!-- R3 -->
    <g transform="translate(143.314984 208.383828) scale(0.11 -0.11)">
     <defs>
      <path id="DejaVuSans-35" d="M 2841 2188
Q 3044 2119 3236 1894
Q 3428 1669 3622 1275
L 4263 0
L 3584 0
L 2988 1197
Q 2756 1666 2539 1819
Q 2322 1972 1947 1972
L 1259 1972
L 1259 0
L 628 0
L 628 4666
L 2053 4666
Q 2853 4666 3247 4331
Q 3641 3997 3641 3322
Q 3641 2881 3436 2590
Q 3231 2300 2841 2188
z
M 1259 4147
L 1259 2491
L 2053 2491
Q 2509 2491 2742 2702
Q 2975 2913 2975 3322
Q 2975 3731 2742 3939
Q 2509 4147 2053 4147
L 1259 4147
z
" transform="scale(0.015625)"/>
      <path id="DejaVuSans-16" d="M 2597 2516
Q 3050 2419 3304 2112
Q 3559 1806 3559 1356
Q 3559 666 3084 287
Q 2609 -91 1734 -91
Q 1441 -91 1130 -33
Q 819 25 488 141
L 488 750
Q 750 597 1062 519
Q 1375 441 1716 441
Q 2309 441 2620 675
Q 2931 909 2931 1356
Q 2931 1769 2642 2001
Q 2353 2234 1838 2234
L 1294 2234
L 1294 2753
L 1863 2753
Q 2328 2753 2575 2939
Q 2822 3125 2822 3475
Q 2822 3834 2567 4026
Q 2313 4219 1838 4219
Q 1578 4219 1281 4162
Q 984 4106 628 3988
L 628 4550
Q 988 4650 1302 4700
Q 1616 4750 1894 4750
Q 2613 4750 3031 4423
Q 3450 4097 3450 3541
Q 3450 3153 3228 2886
Q 3006 2619 2597 2516
z
" transform="scale(0.015625)"/>
     </defs>
     <use xlink:href="#DejaVuSans-35"/>
     <use xlink:href="#DejaVuSans-16" transform="translate(69.484375 0)"/>
    </g>
    <!-- 1k -->
    <g transform="translate(143.951781 219.559141) scale(0.11 -0.11)">
     <defs>
      <path id="DejaVuSans-14" d="M 794 531
L 1825 531
L 1825 4091
L 703 3866
L 703 4441
L 1819 4666
L 2450 4666
L 2450 531
L 3481 531
L 3481 0
L 794 0
L 794 531
z
" transform="scale(0.015625)"/>
      <path id="DejaVuSans-4e" d="M 581 4863
L 1159 4863
L 1159 1991
L 2875 3500
L 3609 3500
L 1753 1863
L 3688 0
L 2938 0
L 1159 1709
L 1159 0
L 581 0
L 581 4863
z
" transform="scale(0.015625)"/>
     </defs>
     <use xlink:href="#DejaVuSans-14"/>
     <use xlink:href="#DejaVuSans-4e" transform="translate(63.625 0)"/>
    </g>
   </g>
   <g id="text_2">
    <!-- Q1 -->
    <g transform="translate(193.836 231.353047) scale(0.11 -0.11)">
     <defs>
      <path id="DejaVuSans-34" d="M 2522 4238
Q 1834 4238 1429 3725
Q 1025 3213 1025 2328
Q 1025 1447 1429 934
Q 1834 422 2522 422
Q 3209 422 3611 934
Q 4013 1447 4013 2328
Q 4013 3213 3611 3725
Q 3209 4238 2522 4238
z
M 3406 84
L 4238 -825
L 3475 -825
L 2784 -78
Q 2681 -84 2626 -87
Q 2572 -91 2522 -91
Q 1538 -91 948 567
Q 359 1225 359 2328
Q 359 3434 948 4092
Q 1538 4750 2522 4750
Q 3503 4750 4090 4092
Q 4678 3434 4678 2328
Q 4678 1516 4351 937
Q 4025 359 3406 84
z
" transform="scale(0.015625)"/>
     </defs>
     <use xlink:href="#DejaVuSans-34"/>
     <use xlink:href="#DejaVuSans-14" transform="translate(78.71875 0)"/>
    </g>
    <!-- IRLZ44N -->
    <g transform="translate(193.836 242.989844) scale(0.11 -0.11)">
     <defs>
      <path id="DejaVuSans-2c" d="M 628 4666
L 1259 4666
L 1259 0
L 628 0
L 628 4666
z
" transform="scale(0.015625)"/>
      <path id="DejaVuSans-2f" d="M 628 4666
L 1259 4666
L 1259 531
L 3531 531
L 3531 0
L 628 0
L 628 4666
z
" transform="scale(0.015625)"/>
      <path id="DejaVuSans-3d" d="M 359 4666
L 4025 4666
L 4025 4184
L 1075 531
L 4097 531
L 4097 0
L 288 0
L 288 481
L 3238 4134
L 359 4134
L 359 4666
z
" transform="scale(0.015625)"/>
      <path id="DejaVuSans-17" d="M 2419 4116
L 825 1625
L 2419 1625
L 2419 4116
z
M 2253 4666
L 3047 4666
L 3047 1625
L 3713 1625
L 3713 1100
L 3047 1100
L 3047 0
L 2419 0
L 2419 1100
L 313 1100
L 313 1709
L 2253 4666
z
" transform="scale(0.015625)"/>
      <path id="DejaVuSans-31" d="M 628 4666
L 1478 4666
L 3547 763
L 3547 4666
L 4159 4666
L 4159 0
L 3309 0
L 1241 3903
L 1241 0
L 628 0
L 628 4666
z
" transform="scale(0.015625)"/>
     </defs>
     <use xlink:href="#DejaVuSans-2c"/>
     <use xlink:href="#DejaVuSans-35" transform="translate(29.5 0)"/>
     <use xlink:href="#DejaVuSans-2f" transform="translate(98.984375 0)"/>
     <use xlink:href="#DejaVuSans-3d" transform="translate(154.703125 0)"/>
     <use xlink:href="#DejaVuSans-17" transform="translate(223.203125 0)"/>
     <use xlink:href="#DejaVuSans-17" transform="translate(286.828125 0)"/>
     <use xlink:href="#DejaVuSans-31" transform="translate(350.453125 0)"/>
    </g>
   </g>
   <g id="text_3">
    <!-- R4 -->
    <g transform="translate(113.793969 150.989844) scale(0.11 -0.11)">
     <use xlink:href="#DejaVuSans-35"/>
     <use xlink:href="#DejaVuSans-17" transform="translate(69.484375 0)"/>
    </g>
    <!-- 10k -->
    <g transform="translate(108.068813 162.080938) scale(0.11 -0.11)">
     <defs>
      <path id="DejaVuSans-13" d="M 2034 4250
Q 1547 4250 1301 3770
Q 1056 3291 1056 2328
Q 1056 1369 1301 889
Q 1547 409 2034 409
Q 2525 409 2770 889
Q 3016 1369 3016 2328
Q 3016 3291 2770 3770
Q 2525 4250 2034 4250
z
M 2034 4750
Q 2819 4750 3233 4129
Q 3647 3509 3647 2328
Q 3647 1150 3233 529
Q 2819 -91 2034 -91
Q 1250 -91 836 529
Q 422 1150 422 2328
Q 422 3509 836 4129
Q 1250 4750 2034 4750
z
" transform="scale(0.015625)"/>
     </defs>
     <use xlink:href="#DejaVuSans-14"/>
     <use xlink:href="#DejaVuSans-13" transform="translate(63.625 0)"/>
     <use xlink:href="#DejaVuSans-4e" transform="translate(127.25 0)"/>
    </g>
   </g>
   <g id="text_4">
    <!-- R6 -->
    <g transform="translate(113.793969 71.783828) scale(0.11 -0.11)">
     <defs>
      <path id="DejaVuSans-19" d="M 2113 2584
Q 1688 2584 1439 2293
Q 1191 2003 1191 1497
Q 1191 994 1439 701
Q 1688 409 2113 409
Q 2538 409 2786 701
Q 3034 994 3034 1497
Q 3034 2003 2786 2293
Q 2538 2584 2113 2584
z
M 3366 4563
L 3366 3988
Q 3128 4100 2886 4159
Q 2644 4219 2406 4219
Q 1781 4219 1451 3797
Q 1122 3375 1075 2522
Q 1259 2794 1537 2939
Q 1816 3084 2150 3084
Q 2853 3084 3261 2657
Q 3669 2231 3669 1497
Q 3669 778 3244 343
Q 2819 -91 2113 -91
Q 1303 -91 875 529
Q 447 1150 447 2328
Q 447 3434 972 4092
Q 1497 4750 2381 4750
Q 2619 4750 2861 4703
Q 3103 4656 3366 4563
z
" transform="scale(0.015625)"/>
     </defs>
     <use xlink:href="#DejaVuSans-35"/>
     <use xlink:href="#DejaVuSans-19" transform="translate(69.484375 0)"/>
    </g>
    <!-- 10k -->
    <g transform="translate(108.068813 82.880938) scale(0.11 -0.11)">
     <use xlink:href="#DejaVuSans-14"/>
     <use xlink:href="#DejaVuSans-13" transform="translate(63.625 0)"/>
     <use xlink:href="#DejaVuSans-4e" transform="translate(127.25 0)"/>
    </g>
   </g>
   <g id="text_5">
    <!-- Q2  2N2907 / S8550 -->
    <g transform="translate(274.236 136.253047) scale(0.11 -0.11)">
     <defs>
      <path id="DejaVuSans-15" d="M 1228 531
L 3431 531
L 3431 0
L 469 0
L 469 531
Q 828 903 1448 1529
Q 2069 2156 2228 2338
Q 2531 2678 2651 2914
Q 2772 3150 2772 3378
Q 2772 3750 2511 3984
Q 2250 4219 1831 4219
Q 1534 4219 1204 4116
Q 875 4013 500 3803
L 500 4441
Q 881 4594 1212 4672
Q 1544 4750 1819 4750
Q 2544 4750 2975 4387
Q 3406 4025 3406 3419
Q 3406 3131 3298 2873
Q 3191 2616 2906 2266
Q 2828 2175 2409 1742
Q 1991 1309 1228 531
z
" transform="scale(0.015625)"/>
      <path id="DejaVuSans-3" transform="scale(0.015625)"/>
      <path id="DejaVuSans-1c" d="M 703 97
L 703 672
Q 941 559 1184 500
Q 1428 441 1663 441
Q 2288 441 2617 861
Q 2947 1281 2994 2138
Q 2813 1869 2534 1725
Q 2256 1581 1919 1581
Q 1219 1581 811 2004
Q 403 2428 403 3163
Q 403 3881 828 4315
Q 1253 4750 1959 4750
Q 2769 4750 3195 4129
Q 3622 3509 3622 2328
Q 3622 1225 3098 567
Q 2575 -91 1691 -91
Q 1453 -91 1209 -44
Q 966 3 703 97
z
M 1959 2075
Q 2384 2075 2632 2365
Q 2881 2656 2881 3163
Q 2881 3666 2632 3958
Q 2384 4250 1959 4250
Q 1534 4250 1286 3958
Q 1038 3666 1038 3163
Q 1038 2656 1286 2365
Q 1534 2075 1959 2075
z
" transform="scale(0.015625)"/>
      <path id="DejaVuSans-1a" d="M 525 4666
L 3525 4666
L 3525 4397
L 1831 0
L 1172 0
L 2766 4134
L 525 4134
L 525 4666
z
" transform="scale(0.015625)"/>
      <path id="DejaVuSans-12" d="M 1625 4666
L 2156 4666
L 531 -594
L 0 -594
L 1625 4666
z
" transform="scale(0.015625)"/>
      <path id="DejaVuSans-36" d="M 3425 4513
L 3425 3897
Q 3066 4069 2747 4153
Q 2428 4238 2131 4238
Q 1616 4238 1336 4038
Q 1056 3838 1056 3469
Q 1056 3159 1242 3001
Q 1428 2844 1947 2747
L 2328 2669
Q 3034 2534 3370 2195
Q 3706 1856 3706 1288
Q 3706 609 3251 259
Q 2797 -91 1919 -91
Q 1588 -91 1214 -16
Q 841 59 441 206
L 441 856
Q 825 641 1194 531
Q 1563 422 1919 422
Q 2459 422 2753 634
Q 3047 847 3047 1241
Q 3047 1584 2836 1778
Q 2625 1972 2144 2069
L 1759 2144
Q 1053 2284 737 2584
Q 422 2884 422 3419
Q 422 4038 858 4394
Q 1294 4750 2059 4750
Q 2388 4750 2728 4690
Q 3069 4631 3425 4513
z
" transform="scale(0.015625)"/>
      <path id="DejaVuSans-1b" d="M 2034 2216
Q 1584 2216 1326 1975
Q 1069 1734 1069 1313
Q 1069 891 1326 650
Q 1584 409 2034 409
Q 2484 409 2743 651
Q 3003 894 3003 1313
Q 3003 1734 2745 1975
Q 2488 2216 2034 2216
z
M 1403 2484
Q 997 2584 770 2862
Q 544 3141 544 3541
Q 544 4100 942 4425
Q 1341 4750 2034 4750
Q 2731 4750 3128 4425
Q 3525 4100 3525 3541
Q 3525 3141 3298 2862
Q 3072 2584 2669 2484
Q 3125 2378 3379 2068
Q 3634 1759 3634 1313
Q 3634 634 3220 271
Q 2806 -91 2034 -91
Q 1263 -91 848 271
Q 434 634 434 1313
Q 434 1759 690 2068
Q 947 2378 1403 2484
z
M 1172 3481
Q 1172 3119 1398 2916
Q 1625 2713 2034 2713
Q 2441 2713 2670 2916
Q 2900 3119 2900 3481
Q 2900 3844 2670 4047
Q 2441 4250 2034 4250
Q 1625 4250 1398 4047
Q 1172 3844 1172 3481
z
" transform="scale(0.015625)"/>
      <path id="DejaVuSans-18" d="M 691 4666
L 3169 4666
L 3169 4134
L 1269 4134
L 1269 2991
Q 1406 3038 1543 3061
Q 1681 3084 1819 3084
Q 2600 3084 3056 2656
Q 3513 2228 3513 1497
Q 3513 744 3044 326
Q 2575 -91 1722 -91
Q 1428 -91 1123 -41
Q 819 9 494 109
L 494 744
Q 775 591 1075 516
Q 1375 441 1709 441
Q 2250 441 2565 725
Q 2881 1009 2881 1497
Q 2881 1984 2565 2268
Q 2250 2553 1709 2553
Q 1456 2553 1204 2497
Q 953 2441 691 2322
L 691 4666
z
" transform="scale(0.015625)"/>
     </defs>
     <use xlink:href="#DejaVuSans-34"/>
     <use xlink:href="#DejaVuSans-15" transform="translate(78.71875 0)"/>
     <use xlink:href="#DejaVuSans-3" transform="translate(142.34375 0)"/>
     <use xlink:href="#DejaVuSans-3" transform="translate(174.125 0)"/>
     <use xlink:href="#DejaVuSans-15" transform="translate(205.90625 0)"/>
     <use xlink:href="#DejaVuSans-31" transform="translate(269.53125 0)"/>
     <use xlink:href="#DejaVuSans-15" transform="translate(344.34375 0)"/>
     <use xlink:href="#DejaVuSans-1c" transform="translate(407.96875 0)"/>
     <use xlink:href="#DejaVuSans-13" transform="translate(471.59375 0)"/>
     <use xlink:href="#DejaVuSans-1a" transform="translate(535.21875 0)"/>
     <use xlink:href="#DejaVuSans-3" transform="translate(598.84375 0)"/>
     <use xlink:href="#DejaVuSans-12" transform="translate(630.625 0)"/>
     <use xlink:href="#DejaVuSans-3" transform="translate(664.3125 0)"/>
     <use xlink:href="#DejaVuSans-36" transform="translate(696.09375 0)"/>
     <use xlink:href="#DejaVuSans-1b" transform="translate(759.578125 0)"/>
     <use xlink:href="#DejaVuSans-18" transform="translate(823.203125 0)"/>
     <use xlink:href="#DejaVuSans-18" transform="translate(886.828125 0)"/>
     <use xlink:href="#DejaVuSans-13" transform="translate(950.453125 0)"/>
    </g>
    <!-- (assortment) -->
    <g transform="translate(274.236 147.327813) scale(0.11 -0.11)">
     <defs>
      <path id="DejaVuSans-b" d="M 1984 4856
Q 1566 4138 1362 3434
Q 1159 2731 1159 2009
Q 1159 1288 1364 580
Q 1569 -128 1984 -844
L 1484 -844
Q 1016 -109 783 600
Q 550 1309 550 2009
Q 550 2706 781 3412
Q 1013 4119 1484 4856
L 1984 4856
z
" transform="scale(0.015625)"/>
      <path id="DejaVuSans-44" d="M 2194 1759
Q 1497 1759 1228 1600
Q 959 1441 959 1056
Q 959 750 1161 570
Q 1363 391 1709 391
Q 2188 391 2477 730
Q 2766 1069 2766 1631
L 2766 1759
L 2194 1759
z
M 3341 1997
L 3341 0
L 2766 0
L 2766 531
Q 2569 213 2275 61
Q 1981 -91 1556 -91
Q 1019 -91 701 211
Q 384 513 384 1019
Q 384 1609 779 1909
Q 1175 2209 1959 2209
L 2766 2209
L 2766 2266
Q 2766 2663 2505 2880
Q 2244 3097 1772 3097
Q 1472 3097 1187 3025
Q 903 2953 641 2809
L 641 3341
Q 956 3463 1253 3523
Q 1550 3584 1831 3584
Q 2591 3584 2966 3190
Q 3341 2797 3341 1997
z
" transform="scale(0.015625)"/>
      <path id="DejaVuSans-56" d="M 2834 3397
L 2834 2853
Q 2591 2978 2328 3040
Q 2066 3103 1784 3103
Q 1356 3103 1142 2972
Q 928 2841 928 2578
Q 928 2378 1081 2264
Q 1234 2150 1697 2047
L 1894 2003
Q 2506 1872 2764 1633
Q 3022 1394 3022 966
Q 3022 478 2636 193
Q 2250 -91 1575 -91
Q 1294 -91 989 -36
Q 684 19 347 128
L 347 722
Q 666 556 975 473
Q 1284 391 1588 391
Q 1994 391 2212 530
Q 2431 669 2431 922
Q 2431 1156 2273 1281
Q 2116 1406 1581 1522
L 1381 1569
Q 847 1681 609 1914
Q 372 2147 372 2553
Q 372 3047 722 3315
Q 1072 3584 1716 3584
Q 2034 3584 2315 3537
Q 2597 3491 2834 3397
z
" transform="scale(0.015625)"/>
      <path id="DejaVuSans-52" d="M 1959 3097
Q 1497 3097 1228 2736
Q 959 2375 959 1747
Q 959 1119 1226 758
Q 1494 397 1959 397
Q 2419 397 2687 759
Q 2956 1122 2956 1747
Q 2956 2369 2687 2733
Q 2419 3097 1959 3097
z
M 1959 3584
Q 2709 3584 3137 3096
Q 3566 2609 3566 1747
Q 3566 888 3137 398
Q 2709 -91 1959 -91
Q 1206 -91 779 398
Q 353 888 353 1747
Q 353 2609 779 3096
Q 1206 3584 1959 3584
z
" transform="scale(0.015625)"/>
      <path id="DejaVuSans-55" d="M 2631 2963
Q 2534 3019 2420 3045
Q 2306 3072 2169 3072
Q 1681 3072 1420 2755
Q 1159 2438 1159 1844
L 1159 0
L 581 0
L 581 3500
L 1159 3500
L 1159 2956
Q 1341 3275 1631 3429
Q 1922 3584 2338 3584
Q 2397 3584 2469 3576
Q 2541 3569 2628 3553
L 2631 2963
z
" transform="scale(0.015625)"/>
      <path id="DejaVuSans-57" d="M 1172 4494
L 1172 3500
L 2356 3500
L 2356 3053
L 1172 3053
L 1172 1153
Q 1172 725 1289 603
Q 1406 481 1766 481
L 2356 481
L 2356 0
L 1766 0
Q 1100 0 847 248
Q 594 497 594 1153
L 594 3053
L 172 3053
L 172 3500
L 594 3500
L 594 4494
L 1172 4494
z
" transform="scale(0.015625)"/>
      <path id="DejaVuSans-50" d="M 3328 2828
Q 3544 3216 3844 3400
Q 4144 3584 4550 3584
Q 5097 3584 5394 3201
Q 5691 2819 5691 2113
L 5691 0
L 5113 0
L 5113 2094
Q 5113 2597 4934 2840
Q 4756 3084 4391 3084
Q 3944 3084 3684 2787
Q 3425 2491 3425 1978
L 3425 0
L 2847 0
L 2847 2094
Q 2847 2600 2669 2842
Q 2491 3084 2119 3084
Q 1678 3084 1418 2786
Q 1159 2488 1159 1978
L 1159 0
L 581 0
L 581 3500
L 1159 3500
L 1159 2956
Q 1356 3278 1631 3431
Q 1906 3584 2284 3584
Q 2666 3584 2933 3390
Q 3200 3197 3328 2828
z
" transform="scale(0.015625)"/>
      <path id="DejaVuSans-48" d="M 3597 1894
L 3597 1613
L 953 1613
Q 991 1019 1311 708
Q 1631 397 2203 397
Q 2534 397 2845 478
Q 3156 559 3463 722
L 3463 178
Q 3153 47 2828 -22
Q 2503 -91 2169 -91
Q 1331 -91 842 396
Q 353 884 353 1716
Q 353 2575 817 3079
Q 1281 3584 2069 3584
Q 2775 3584 3186 3129
Q 3597 2675 3597 1894
z
M 3022 2063
Q 3016 2534 2758 2815
Q 2500 3097 2075 3097
Q 1594 3097 1305 2825
Q 1016 2553 972 2059
L 3022 2063
z
" transform="scale(0.015625)"/>
      <path id="DejaVuSans-51" d="M 3513 2113
L 3513 0
L 2938 0
L 2938 2094
Q 2938 2591 2744 2837
Q 2550 3084 2163 3084
Q 1697 3084 1428 2787
Q 1159 2491 1159 1978
L 1159 0
L 581 0
L 581 3500
L 1159 3500
L 1159 2956
Q 1366 3272 1645 3428
Q 1925 3584 2291 3584
Q 2894 3584 3203 3211
Q 3513 2838 3513 2113
z
" transform="scale(0.015625)"/>
      <path id="DejaVuSans-c" d="M 513 4856
L 1013 4856
Q 1481 4119 1714 3412
Q 1947 2706 1947 2009
Q 1947 1309 1714 600
Q 1481 -109 1013 -844
L 513 -844
Q 928 -128 1133 580
Q 1338 1288 1338 2009
Q 1338 2731 1133 3434
Q 928 4138 513 4856
z
" transform="scale(0.015625)"/>
     </defs>
     <use xlink:href="#DejaVuSans-b"/>
     <use xlink:href="#DejaVuSans-44" transform="translate(39.015625 0)"/>
     <use xlink:href="#DejaVuSans-56" transform="translate(100.296875 0)"/>
     <use xlink:href="#DejaVuSans-56" transform="translate(152.390625 0)"/>
     <use xlink:href="#DejaVuSans-52" transform="translate(204.484375 0)"/>
     <use xlink:href="#DejaVuSans-55" transform="translate(265.671875 0)"/>
     <use xlink:href="#DejaVuSans-57" transform="translate(306.78125 0)"/>
     <use xlink:href="#DejaVuSans-50" transform="translate(345.984375 0)"/>
     <use xlink:href="#DejaVuSans-48" transform="translate(443.390625 0)"/>
     <use xlink:href="#DejaVuSans-51" transform="translate(504.921875 0)"/>
     <use xlink:href="#DejaVuSans-57" transform="translate(568.296875 0)"/>
     <use xlink:href="#DejaVuSans-c" transform="translate(607.5 0)"/>
    </g>
   </g>
   <g id="text_6">
    <!-- +12V (bike, switched) -->
    <g transform="translate(186.564828 13.633828) scale(0.11 -0.11)">
     <defs>
      <path id="DejaVuSans-e" d="M 2944 4013
L 2944 2272
L 4684 2272
L 4684 1741
L 2944 1741
L 2944 0
L 2419 0
L 2419 1741
L 678 1741
L 678 2272
L 2419 2272
L 2419 4013
L 2944 4013
z
" transform="scale(0.015625)"/>
      <path id="DejaVuSans-39" d="M 1831 0
L 50 4666
L 709 4666
L 2188 738
L 3669 4666
L 4325 4666
L 2547 0
L 1831 0
z
" transform="scale(0.015625)"/>
      <path id="DejaVuSans-45" d="M 3116 1747
Q 3116 2381 2855 2742
Q 2594 3103 2138 3103
Q 1681 3103 1420 2742
Q 1159 2381 1159 1747
Q 1159 1113 1420 752
Q 1681 391 2138 391
Q 2594 391 2855 752
Q 3116 1113 3116 1747
z
M 1159 2969
Q 1341 3281 1617 3432
Q 1894 3584 2278 3584
Q 2916 3584 3314 3078
Q 3713 2572 3713 1747
Q 3713 922 3314 415
Q 2916 -91 2278 -91
Q 1894 -91 1617 61
Q 1341 213 1159 525
L 1159 0
L 581 0
L 581 4863
L 1159 4863
L 1159 2969
z
" transform="scale(0.015625)"/>
      <path id="DejaVuSans-4c" d="M 603 3500
L 1178 3500
L 1178 0
L 603 0
L 603 3500
z
M 603 4863
L 1178 4863
L 1178 4134
L 603 4134
L 603 4863
z
" transform="scale(0.015625)"/>
      <path id="DejaVuSans-f" d="M 750 794
L 1409 794
L 1409 256
L 897 -744
L 494 -744
L 750 256
L 750 794
z
" transform="scale(0.015625)"/>
      <path id="DejaVuSans-5a" d="M 269 3500
L 844 3500
L 1563 769
L 2278 3500
L 2956 3500
L 3675 769
L 4391 3500
L 4966 3500
L 4050 0
L 3372 0
L 2619 2869
L 1863 0
L 1184 0
L 269 3500
z
" transform="scale(0.015625)"/>
      <path id="DejaVuSans-46" d="M 3122 3366
L 3122 2828
Q 2878 2963 2633 3030
Q 2388 3097 2138 3097
Q 1578 3097 1268 2742
Q 959 2388 959 1747
Q 959 1106 1268 751
Q 1578 397 2138 397
Q 2388 397 2633 464
Q 2878 531 3122 666
L 3122 134
Q 2881 22 2623 -34
Q 2366 -91 2075 -91
Q 1284 -91 818 406
Q 353 903 353 1747
Q 353 2603 823 3093
Q 1294 3584 2113 3584
Q 2378 3584 2631 3529
Q 2884 3475 3122 3366
z
" transform="scale(0.015625)"/>
      <path id="DejaVuSans-4b" d="M 3513 2113
L 3513 0
L 2938 0
L 2938 2094
Q 2938 2591 2744 2837
Q 2550 3084 2163 3084
Q 1697 3084 1428 2787
Q 1159 2491 1159 1978
L 1159 0
L 581 0
L 581 4863
L 1159 4863
L 1159 2956
Q 1366 3272 1645 3428
Q 1925 3584 2291 3584
Q 2894 3584 3203 3211
Q 3513 2838 3513 2113
z
" transform="scale(0.015625)"/>
      <path id="DejaVuSans-47" d="M 2906 2969
L 2906 4863
L 3481 4863
L 3481 0
L 2906 0
L 2906 525
Q 2725 213 2448 61
Q 2172 -91 1784 -91
Q 1150 -91 751 415
Q 353 922 353 1747
Q 353 2572 751 3078
Q 1150 3584 1784 3584
Q 2172 3584 2448 3432
Q 2725 3281 2906 2969
z
M 947 1747
Q 947 1113 1208 752
Q 1469 391 1925 391
Q 2381 391 2643 752
Q 2906 1113 2906 1747
Q 2906 2381 2643 2742
Q 2381 3103 1925 3103
Q 1469 3103 1208 2742
Q 947 2381 947 1747
z
" transform="scale(0.015625)"/>
     </defs>
     <use xlink:href="#DejaVuSans-e"/>
     <use xlink:href="#DejaVuSans-14" transform="translate(83.796875 0)"/>
     <use xlink:href="#DejaVuSans-15" transform="translate(147.421875 0)"/>
     <use xlink:href="#DejaVuSans-39" transform="translate(211.046875 0)"/>
     <use xlink:href="#DejaVuSans-3" transform="translate(279.453125 0)"/>
     <use xlink:href="#DejaVuSans-b" transform="translate(311.234375 0)"/>
     <use xlink:href="#DejaVuSans-45" transform="translate(350.25 0)"/>
     <use xlink:href="#DejaVuSans-4c" transform="translate(413.734375 0)"/>
     <use xlink:href="#DejaVuSans-4e" transform="translate(441.515625 0)"/>
     <use xlink:href="#DejaVuSans-48" transform="translate(495.859375 0)"/>
     <use xlink:href="#DejaVuSans-f" transform="translate(557.390625 0)"/>
     <use xlink:href="#DejaVuSans-3" transform="translate(589.171875 0)"/>
     <use xlink:href="#DejaVuSans-56" transform="translate(620.953125 0)"/>
     <use xlink:href="#DejaVuSans-5a" transform="translate(673.046875 0)"/>
     <use xlink:href="#DejaVuSans-4c" transform="translate(754.828125 0)"/>
     <use xlink:href="#DejaVuSans-57" transform="translate(782.609375 0)"/>
     <use xlink:href="#DejaVuSans-46" transform="translate(821.8125 0)"/>
     <use xlink:href="#DejaVuSans-4b" transform="translate(876.796875 0)"/>
     <use xlink:href="#DejaVuSans-48" transform="translate(940.171875 0)"/>
     <use xlink:href="#DejaVuSans-47" transform="translate(1001.703125 0)"/>
     <use xlink:href="#DejaVuSans-c" transform="translate(1065.1875 0)"/>
    </g>
   </g>
   <g id="text_7">
    <!-- R5 -->
    <g transform="translate(220.053969 147.431641) scale(0.11 -0.11)">
     <use xlink:href="#DejaVuSans-35"/>
     <use xlink:href="#DejaVuSans-18" transform="translate(69.484375 0)"/>
    </g>
    <!-- 100Ω -->
    <g transform="translate(205.293344 158.503828) scale(0.11 -0.11)">
     <defs>
      <path id="DejaVuSans-33d" d="M 4647 556
L 4647 0
L 2772 0
L 2772 556
Q 3325 859 3634 1378
Q 3944 1897 3944 2528
Q 3944 3278 3531 3731
Q 3119 4184 2444 4184
Q 1769 4184 1355 3729
Q 941 3275 941 2528
Q 941 1897 1250 1378
Q 1563 859 2119 556
L 2119 0
L 244 0
L 244 556
L 1241 556
Q 747 991 519 1456
Q 294 1922 294 2497
Q 294 3491 894 4106
Q 1491 4722 2444 4722
Q 3391 4722 3994 4106
Q 4594 3494 4594 2528
Q 4594 1922 4372 1459
Q 4150 997 3647 556
L 4647 556
z
" transform="scale(0.015625)"/>
     </defs>
     <use xlink:href="#DejaVuSans-14"/>
     <use xlink:href="#DejaVuSans-13" transform="translate(63.625 0)"/>
     <use xlink:href="#DejaVuSans-13" transform="translate(127.25 0)"/>
     <use xlink:href="#DejaVuSans-33d" transform="translate(190.875 0)"/>
    </g>
   </g>
   <g id="text_8">
    <!-- Never hold TX high outside a VPW symbol - a stuck-high TX jams the whole bus. -->
    <g transform="translate(77.977875 357.463437) scale(0.09 -0.09)">
     <defs>
      <path id="DejaVuSans-59" d="M 191 3500
L 800 3500
L 1894 563
L 2988 3500
L 3597 3500
L 2284 0
L 1503 0
L 191 3500
z
" transform="scale(0.015625)"/>
      <path id="DejaVuSans-4f" d="M 603 4863
L 1178 4863
L 1178 0
L 603 0
L 603 4863
z
" transform="scale(0.015625)"/>
      <path id="DejaVuSans-37" d="M -19 4666
L 3928 4666
L 3928 4134
L 2272 4134
L 2272 0
L 1638 0
L 1638 4134
L -19 4134
L -19 4666
z
" transform="scale(0.015625)"/>
      <path id="DejaVuSans-3b" d="M 403 4666
L 1081 4666
L 2241 2931
L 3406 4666
L 4084 4666
L 2584 2425
L 4184 0
L 3506 0
L 2194 1984
L 872 0
L 191 0
L 1856 2491
L 403 4666
z
" transform="scale(0.015625)"/>
      <path id="DejaVuSans-4a" d="M 2906 1791
Q 2906 2416 2648 2759
Q 2391 3103 1925 3103
Q 1463 3103 1205 2759
Q 947 2416 947 1791
Q 947 1169 1205 825
Q 1463 481 1925 481
Q 2391 481 2648 825
Q 2906 1169 2906 1791
z
M 3481 434
Q 3481 -459 3084 -895
Q 2688 -1331 1869 -1331
Q 1566 -1331 1297 -1286
Q 1028 -1241 775 -1147
L 775 -588
Q 1028 -725 1275 -790
Q 1522 -856 1778 -856
Q 2344 -856 2625 -561
Q 2906 -266 2906 331
L 2906 616
Q 2728 306 2450 153
Q 2172 0 1784 0
Q 1141 0 747 490
Q 353 981 353 1791
Q 353 2603 747 3093
Q 1141 3584 1784 3584
Q 2172 3584 2450 3431
Q 2728 3278 2906 2969
L 2906 3500
L 3481 3500
L 3481 434
z
" transform="scale(0.015625)"/>
      <path id="DejaVuSans-58" d="M 544 1381
L 544 3500
L 1119 3500
L 1119 1403
Q 1119 906 1312 657
Q 1506 409 1894 409
Q 2359 409 2629 706
Q 2900 1003 2900 1516
L 2900 3500
L 3475 3500
L 3475 0
L 2900 0
L 2900 538
Q 2691 219 2414 64
Q 2138 -91 1772 -91
Q 1169 -91 856 284
Q 544 659 544 1381
z
M 1991 3584
L 1991 3584
z
" transform="scale(0.015625)"/>
      <path id="DejaVuSans-33" d="M 1259 4147
L 1259 2394
L 2053 2394
Q 2494 2394 2734 2622
Q 2975 2850 2975 3272
Q 2975 3691 2734 3919
Q 2494 4147 2053 4147
L 1259 4147
z
M 628 4666
L 2053 4666
Q 2838 4666 3239 4311
Q 3641 3956 3641 3272
Q 3641 2581 3239 2228
Q 2838 1875 2053 1875
L 1259 1875
L 1259 0
L 628 0
L 628 4666
z
" transform="scale(0.015625)"/>
      <path id="DejaVuSans-3a" d="M 213 4666
L 850 4666
L 1831 722
L 2809 4666
L 3519 4666
L 4500 722
L 5478 4666
L 6119 4666
L 4947 0
L 4153 0
L 3169 4050
L 2175 0
L 1381 0
L 213 4666
z
" transform="scale(0.015625)"/>
      <path id="DejaVuSans-5c" d="M 2059 -325
Q 1816 -950 1584 -1140
Q 1353 -1331 966 -1331
L 506 -1331
L 506 -850
L 844 -850
Q 1081 -850 1212 -737
Q 1344 -625 1503 -206
L 1606 56
L 191 3500
L 800 3500
L 1894 763
L 2988 3500
L 3597 3500
L 2059 -325
z
" transform="scale(0.015625)"/>
      <path id="DejaVuSans-10" d="M 313 2009
L 1997 2009
L 1997 1497
L 313 1497
L 313 2009
z
" transform="scale(0.015625)"/>
      <path id="DejaVuSans-4d" d="M 603 3500
L 1178 3500
L 1178 -63
Q 1178 -731 923 -1031
Q 669 -1331 103 -1331
L -116 -1331
L -116 -844
L 38 -844
Q 366 -844 484 -692
Q 603 -541 603 -63
L 603 3500
z
M 603 4863
L 1178 4863
L 1178 4134
L 603 4134
L 603 4863
z
" transform="scale(0.015625)"/>
      <path id="DejaVuSans-11" d="M 684 794
L 1344 794
L 1344 0
L 684 0
L 684 794
z
" transform="scale(0.015625)"/>
     </defs>
     <use xlink:href="#DejaVuSans-31"/>
     <use xlink:href="#DejaVuSans-48" transform="translate(74.8125 0)"/>
     <use xlink:href="#DejaVuSans-59" transform="translate(136.34375 0)"/>
     <use xlink:href="#DejaVuSans-48" transform="translate(195.53125 0)"/>
     <use xlink:href="#DejaVuSans-55" transform="translate(257.0625 0)"/>
     <use xlink:href="#DejaVuSans-3" transform="translate(298.171875 0)"/>
     <use xlink:href="#DejaVuSans-4b" transform="translate(329.953125 0)"/>
     <use xlink:href="#DejaVuSans-52" transform="translate(393.328125 0)"/>
     <use xlink:href="#DejaVuSans-4f" transform="translate(454.515625 0)"/>
     <use xlink:href="#DejaVuSans-47" transform="translate(482.296875 0)"/>
     <use xlink:href="#DejaVuSans-3" transform="translate(545.78125 0)"/>
     <use xlink:href="#DejaVuSans-37" transform="translate(577.5625 0)"/>
     <use xlink:href="#DejaVuSans-3b" transform="translate(638.640625 0)"/>
     <use xlink:href="#DejaVuSans-3" transform="translate(707.140625 0)"/>
     <use xlink:href="#DejaVuSans-4b" transform="translate(738.921875 0)"/>
     <use xlink:href="#DejaVuSans-4c" transform="translate(802.296875 0)"/>
     <use xlink:href="#DejaVuSans-4a" transform="translate(830.078125 0)"/>
     <use xlink:href="#DejaVuSans-4b" transform="translate(893.5625 0)"/>
     <use xlink:href="#DejaVuSans-3" transform="translate(956.9375 0)"/>
     <use xlink:href="#DejaVuSans-52" transform="translate(988.71875 0)"/>
     <use xlink:href="#DejaVuSans-58" transform="translate(1049.90625 0)"/>
     <use xlink:href="#DejaVuSans-57" transform="translate(1113.28125 0)"/>
     <use xlink:href="#DejaVuSans-56" transform="translate(1152.484375 0)"/>
     <use xlink:href="#DejaVuSans-4c" transform="translate(1204.578125 0)"/>
     <use xlink:href="#DejaVuSans-47" transform="translate(1232.359375 0)"/>
     <use xlink:href="#DejaVuSans-48" transform="translate(1295.84375 0)"/>
     <use xlink:href="#DejaVuSans-3" transform="translate(1357.375 0)"/>
     <use xlink:href="#DejaVuSans-44" transform="translate(1389.15625 0)"/>
     <use xlink:href="#DejaVuSans-3" transform="translate(1450.4375 0)"/>
     <use xlink:href="#DejaVuSans-39" transform="translate(1482.21875 0)"/>
     <use xlink:href="#DejaVuSans-33" transform="translate(1550.625 0)"/>
     <use xlink:href="#DejaVuSans-3a" transform="translate(1610.921875 0)"/>
     <use xlink:href="#DejaVuSans-3" transform="translate(1709.796875 0)"/>
     <use xlink:href="#DejaVuSans-56" transform="translate(1741.578125 0)"/>
     <use xlink:href="#DejaVuSans-5c" transform="translate(1793.671875 0)"/>
     <use xlink:href="#DejaVuSans-50" transform="translate(1852.859375 0)"/>
     <use xlink:href="#DejaVuSans-45" transform="translate(1950.265625 0)"/>
     <use xlink:href="#DejaVuSans-52" transform="translate(2013.75 0)"/>
     <use xlink:href="#DejaVuSans-4f" transform="translate(2074.9375 0)"/>
     <use xlink:href="#DejaVuSans-3" transform="translate(2102.71875 0)"/>
     <use xlink:href="#DejaVuSans-10" transform="translate(2134.5 0)"/>
     <use xlink:href="#DejaVuSans-3" transform="translate(2170.578125 0)"/>
     <use xlink:href="#DejaVuSans-44" transform="translate(2202.359375 0)"/>
     <use xlink:href="#DejaVuSans-3" transform="translate(2263.640625 0)"/>
     <use xlink:href="#DejaVuSans-56" transform="translate(2295.421875 0)"/>
     <use xlink:href="#DejaVuSans-57" transform="translate(2347.515625 0)"/>
     <use xlink:href="#DejaVuSans-58" transform="translate(2386.71875 0)"/>
     <use xlink:href="#DejaVuSans-46" transform="translate(2450.09375 0)"/>
     <use xlink:href="#DejaVuSans-4e" transform="translate(2505.078125 0)"/>
     <use xlink:href="#DejaVuSans-10" transform="translate(2562.984375 0)"/>
     <use xlink:href="#DejaVuSans-4b" transform="translate(2599.0625 0)"/>
     <use xlink:href="#DejaVuSans-4c" transform="translate(2662.4375 0)"/>
     <use xlink:href="#DejaVuSans-4a" transform="translate(2690.21875 0)"/>
     <use xlink:href="#DejaVuSans-4b" transform="translate(2753.703125 0)"/>
     <use xlink:href="#DejaVuSans-3" transform="translate(2817.078125 0)"/>
     <use xlink:href="#DejaVuSans-37" transform="translate(2848.859375 0)"/>
     <use xlink:href="#DejaVuSans-3b" transform="translate(2909.9375 0)"/>
     <use xlink:href="#DejaVuSans-3" transform="translate(2978.4375 0)"/>
     <use xlink:href="#DejaVuSans-4d" transform="translate(3010.21875 0)"/>
     <use xlink:href="#DejaVuSans-44" transform="translate(3038 0)"/>
     <use xlink:href="#DejaVuSans-50" transform="translate(3099.28125 0)"/>
     <use xlink:href="#DejaVuSans-56" transform="translate(3196.6875 0)"/>
     <use xlink:href="#DejaVuSans-3" transform="translate(3248.78125 0)"/>
     <use xlink:href="#DejaVuSans-57" transform="translate(3280.5625 0)"/>
     <use xlink:href="#DejaVuSans-4b" transform="translate(3319.765625 0)"/>
     <use xlink:href="#DejaVuSans-48" transform="translate(3383.140625 0)"/>
     <use xlink:href="#DejaVuSans-3" transform="translate(3444.671875 0)"/>
     <use xlink:href="#DejaVuSans-5a" transform="translate(3476.453125 0)"/>
     <use xlink:href="#DejaVuSans-4b" transform="translate(3558.234375 0)"/>
     <use xlink:href="#DejaVuSans-52" transform="translate(3621.609375 0)"/>
     <use xlink:href="#DejaVuSans-4f" transform="translate(3682.796875 0)"/>
     <use xlink:href="#DejaVuSans-48" transform="translate(3710.578125 0)"/>
     <use xlink:href="#DejaVuSans-3" transform="translate(3772.109375 0)"/>
     <use xlink:href="#DejaVuSans-45" transform="translate(3803.890625 0)"/>
     <use xlink:href="#DejaVuSans-58" transform="translate(3867.375 0)"/>
     <use xlink:href="#DejaVuSans-56" transform="translate(3930.75 0)"/>
     <use xlink:href="#DejaVuSans-11" transform="translate(3982.84375 0)"/>
    </g>
    <!-- The firmware's TX watchdog is mandatory before this stage touches the bike. -->
    <g transform="translate(83.818734 366.463437) scale(0.09 -0.09)">
     <defs>
      <path id="DejaVuSans-13af" d="M 3431 3500
L 3431 0
L 2853 0
L 2853 3053
L 1275 3053
L 1275 0
L 697 0
L 697 3053
L 147 3053
L 147 3500
L 697 3500
L 697 3744
Q 697 4316 967 4589
Q 1238 4863 1797 4863
L 2375 4863
L 2375 4384
L 1825 4384
Q 1516 4384 1395 4259
Q 1275 4134 1275 3809
L 1275 3500
L 3431 3500
z
M 2853 4856
L 3431 4856
L 3431 4128
L 2853 4128
L 2853 4856
z
" transform="scale(0.015625)"/>
      <path id="DejaVuSans-a" d="M 1147 4666
L 1147 2931
L 616 2931
L 616 4666
L 1147 4666
z
" transform="scale(0.015625)"/>
      <path id="DejaVuSans-49" d="M 2375 4863
L 2375 4384
L 1825 4384
Q 1516 4384 1395 4259
Q 1275 4134 1275 3809
L 1275 3500
L 2222 3500
L 2222 3053
L 1275 3053
L 1275 0
L 697 0
L 697 3053
L 147 3053
L 147 3500
L 697 3500
L 697 3744
Q 697 4328 969 4595
Q 1241 4863 1831 4863
L 2375 4863
z
" transform="scale(0.015625)"/>
     </defs>
     <use xlink:href="#DejaVuSans-37"/>
     <use xlink:href="#DejaVuSans-4b" transform="translate(61.078125 0)"/>
     <use xlink:href="#DejaVuSans-48" transform="translate(124.453125 0)"/>
     <use xlink:href="#DejaVuSans-3" transform="translate(185.984375 0)"/>
     <use xlink:href="#DejaVuSans-13af" transform="translate(217.765625 0)"/>
     <use xlink:href="#DejaVuSans-55" transform="translate(280.75 0)"/>
     <use xlink:href="#DejaVuSans-50" transform="translate(320.109375 0)"/>
     <use xlink:href="#DejaVuSans-5a" transform="translate(417.515625 0)"/>
     <use xlink:href="#DejaVuSans-44" transform="translate(499.296875 0)"/>
     <use xlink:href="#DejaVuSans-55" transform="translate(560.578125 0)"/>
     <use xlink:href="#DejaVuSans-48" transform="translate(599.484375 0)"/>
     <use xlink:href="#DejaVuSans-a" transform="translate(661.015625 0)"/>
     <use xlink:href="#DejaVuSans-56" transform="translate(688.5 0)"/>
     <use xlink:href="#DejaVuSans-3" transform="translate(740.59375 0)"/>
     <use xlink:href="#DejaVuSans-37" transform="translate(772.375 0)"/>
     <use xlink:href="#DejaVuSans-3b" transform="translate(833.453125 0)"/>
     <use xlink:href="#DejaVuSans-3" transform="translate(901.953125 0)"/>
     <use xlink:href="#DejaVuSans-5a" transform="translate(933.734375 0)"/>
     <use xlink:href="#DejaVuSans-44" transform="translate(1015.515625 0)"/>
     <use xlink:href="#DejaVuSans-57" transform="translate(1076.796875 0)"/>
     <use xlink:href="#DejaVuSans-46" transform="translate(1116 0)"/>
     <use xlink:href="#DejaVuSans-4b" transform="translate(1170.984375 0)"/>
     <use xlink:href="#DejaVuSans-47" transform="translate(1234.359375 0)"/>
     <use xlink:href="#DejaVuSans-52" transform="translate(1297.84375 0)"/>
     <use xlink:href="#DejaVuSans-4a" transform="translate(1359.03125 0)"/>
     <use xlink:href="#DejaVuSans-3" transform="translate(1422.515625 0)"/>
     <use xlink:href="#DejaVuSans-4c" transform="translate(1454.296875 0)"/>
     <use xlink:href="#DejaVuSans-56" transform="translate(1482.078125 0)"/>
     <use xlink:href="#DejaVuSans-3" transform="translate(1534.171875 0)"/>
     <use xlink:href="#DejaVuSans-50" transform="translate(1565.953125 0)"/>
     <use xlink:href="#DejaVuSans-44" transform="translate(1663.359375 0)"/>
     <use xlink:href="#DejaVuSans-51" transform="translate(1724.640625 0)"/>
     <use xlink:href="#DejaVuSans-47" transform="translate(1788.015625 0)"/>
     <use xlink:href="#DejaVuSans-44" transform="translate(1851.5 0)"/>
     <use xlink:href="#DejaVuSans-57" transform="translate(1912.78125 0)"/>
     <use xlink:href="#DejaVuSans-52" transform="translate(1951.984375 0)"/>
     <use xlink:href="#DejaVuSans-55" transform="translate(2013.171875 0)"/>
     <use xlink:href="#DejaVuSans-5c" transform="translate(2054.28125 0)"/>
     <use xlink:href="#DejaVuSans-3" transform="translate(2113.46875 0)"/>
     <use xlink:href="#DejaVuSans-45" transform="translate(2145.25 0)"/>
     <use xlink:href="#DejaVuSans-48" transform="translate(2208.734375 0)"/>
     <use xlink:href="#DejaVuSans-49" transform="translate(2270.265625 0)"/>
     <use xlink:href="#DejaVuSans-52" transform="translate(2305.46875 0)"/>
     <use xlink:href="#DejaVuSans-55" transform="translate(2366.65625 0)"/>
     <use xlink:href="#DejaVuSans-48" transform="translate(2405.5625 0)"/>
     <use xlink:href="#DejaVuSans-3" transform="translate(2467.09375 0)"/>
     <use xlink:href="#DejaVuSans-57" transform="translate(2498.875 0)"/>
     <use xlink:href="#DejaVuSans-4b" transform="translate(2538.078125 0)"/>
     <use xlink:href="#DejaVuSans-4c" transform="translate(2601.453125 0)"/>
     <use xlink:href="#DejaVuSans-56" transform="translate(2629.234375 0)"/>
     <use xlink:href="#DejaVuSans-3" transform="translate(2681.328125 0)"/>
     <use xlink:href="#DejaVuSans-56" transform="translate(2713.109375 0)"/>
     <use xlink:href="#DejaVuSans-57" transform="translate(2765.203125 0)"/>
     <use xlink:href="#DejaVuSans-44" transform="translate(2804.40625 0)"/>
     <use xlink:href="#DejaVuSans-4a" transform="translate(2865.6875 0)"/>
     <use xlink:href="#DejaVuSans-48" transform="translate(2929.171875 0)"/>
     <use xlink:href="#DejaVuSans-3" transform="translate(2990.703125 0)"/>
     <use xlink:href="#DejaVuSans-57" transform="translate(3022.484375 0)"/>
     <use xlink:href="#DejaVuSans-52" transform="translate(3061.6875 0)"/>
     <use xlink:href="#DejaVuSans-58" transform="translate(3122.875 0)"/>
     <use xlink:href="#DejaVuSans-46" transform="translate(3186.25 0)"/>
     <use xlink:href="#DejaVuSans-4b" transform="translate(3241.234375 0)"/>
     <use xlink:href="#DejaVuSans-48" transform="translate(3304.609375 0)"/>
     <use xlink:href="#DejaVuSans-56" transform="translate(3366.140625 0)"/>
     <use xlink:href="#DejaVuSans-3" transform="translate(3418.234375 0)"/>
     <use xlink:href="#DejaVuSans-57" transform="translate(3450.015625 0)"/>
     <use xlink:href="#DejaVuSans-4b" transform="translate(3489.21875 0)"/>
     <use xlink:href="#DejaVuSans-48" transform="translate(3552.59375 0)"/>
     <use xlink:href="#DejaVuSans-3" transform="translate(3614.125 0)"/>
     <use xlink:href="#DejaVuSans-45" transform="translate(3645.90625 0)"/>
     <use xlink:href="#DejaVuSans-4c" transform="translate(3709.390625 0)"/>
     <use xlink:href="#DejaVuSans-4e" transform="translate(3737.171875 0)"/>
     <use xlink:href="#DejaVuSans-48" transform="translate(3791.515625 0)"/>
     <use xlink:href="#DejaVuSans-11" transform="translate(3853.046875 0)"/>
    </g>
   </g>
   <g id="patch_4">
    <path d="M 111.036 236.18
C 111.752048 236.18 112.438866 235.895511 112.945188 235.389188
C 113.451511 234.882866 113.736 234.196048 113.736 233.48
C 113.736 232.763952 113.451511 232.077134 112.945188 231.570812
C 112.438866 231.064489 111.752048 230.78 111.036 230.78
C 110.319952 230.78 109.633134 231.064489 109.126812 231.570812
C 108.620489 232.077134 108.336 232.763952 108.336 233.48
C 108.336 234.196048 108.620489 234.882866 109.126812 235.389188
C 109.633134 235.895511 110.319952 236.18 111.036 236.18
z
" clip-path="url(#p9cbf1abf97)" style="fill: #ffffff; stroke: #000000; stroke-width: 2; stroke-linejoin: miter"/>
   </g>
   <g id="text_9">
    <!-- ESP32-P4 TX GPIO -->
    <g transform="translate(4.266469 237.483828) scale(0.11 -0.11)">
     <defs>
      <path id="DejaVuSans-28" d="M 628 4666
L 3578 4666
L 3578 4134
L 1259 4134
L 1259 2753
L 3481 2753
L 3481 2222
L 1259 2222
L 1259 531
L 3634 531
L 3634 0
L 628 0
L 628 4666
z
" transform="scale(0.015625)"/>
      <path id="DejaVuSans-2a" d="M 3809 666
L 3809 1919
L 2778 1919
L 2778 2438
L 4434 2438
L 4434 434
Q 4069 175 3628 42
Q 3188 -91 2688 -91
Q 1594 -91 976 548
Q 359 1188 359 2328
Q 359 3472 976 4111
Q 1594 4750 2688 4750
Q 3144 4750 3555 4637
Q 3966 4525 4313 4306
L 4313 3634
Q 3963 3931 3569 4081
Q 3175 4231 2741 4231
Q 1884 4231 1454 3753
Q 1025 3275 1025 2328
Q 1025 1384 1454 906
Q 1884 428 2741 428
Q 3075 428 3337 486
Q 3600 544 3809 666
z
" transform="scale(0.015625)"/>
      <path id="DejaVuSans-32" d="M 2522 4238
Q 1834 4238 1429 3725
Q 1025 3213 1025 2328
Q 1025 1447 1429 934
Q 1834 422 2522 422
Q 3209 422 3611 934
Q 4013 1447 4013 2328
Q 4013 3213 3611 3725
Q 3209 4238 2522 4238
z
M 2522 4750
Q 3503 4750 4090 4092
Q 4678 3434 4678 2328
Q 4678 1225 4090 567
Q 3503 -91 2522 -91
Q 1538 -91 948 565
Q 359 1222 359 2328
Q 359 3434 948 4092
Q 1538 4750 2522 4750
z
" transform="scale(0.015625)"/>
     </defs>
     <use xlink:href="#DejaVuSans-28"/>
     <use xlink:href="#DejaVuSans-36" transform="translate(63.1875 0)"/>
     <use xlink:href="#DejaVuSans-33" transform="translate(126.671875 0)"/>
     <use xlink:href="#DejaVuSans-16" transform="translate(186.96875 0)"/>
     <use xlink:href="#DejaVuSans-15" transform="translate(250.59375 0)"/>
     <use xlink:href="#DejaVuSans-10" transform="translate(314.21875 0)"/>
     <use xlink:href="#DejaVuSans-33" transform="translate(350.296875 0)"/>
     <use xlink:href="#DejaVuSans-17" transform="translate(410.59375 0)"/>
     <use xlink:href="#DejaVuSans-3" transform="translate(474.21875 0)"/>
     <use xlink:href="#DejaVuSans-37" transform="translate(506 0)"/>
     <use xlink:href="#DejaVuSans-3b" transform="translate(567.078125 0)"/>
     <use xlink:href="#DejaVuSans-3" transform="translate(635.578125 0)"/>
     <use xlink:href="#DejaVuSans-2a" transform="translate(667.359375 0)"/>
     <use xlink:href="#DejaVuSans-33" transform="translate(744.84375 0)"/>
     <use xlink:href="#DejaVuSans-2c" transform="translate(805.140625 0)"/>
     <use xlink:href="#DejaVuSans-32" transform="translate(834.640625 0)"/>
    </g>
   </g>
   <g id="patch_5">
    <path d="M 141.036 115.58
C 141.752048 115.58 142.438866 115.295511 142.945188 114.789188
C 143.451511 114.282866 143.736 113.596048 143.736 112.88
C 143.736 112.163952 143.451511 111.477134 142.945188 110.970812
C 142.438866 110.464489 141.752048 110.18 141.036 110.18
C 140.319952 110.18 139.633134 110.464489 139.126812 110.970812
C 138.620489 111.477134 138.336 112.163952 138.336 112.88
C 138.336 113.596048 138.620489 114.282866 139.126812 114.789188
C 139.633134 115.295511 140.319952 115.58 141.036 115.58
z
" clip-path="url(#p9cbf1abf97)" style="stroke: #000000; stroke-width: 2; stroke-linejoin: miter"/>
   </g>
   <g id="patch_6">
    <path d="M 141.036 36.38
C 141.752048 36.38 142.438866 36.095511 142.945188 35.589188
C 143.451511 35.082866 143.736 34.396048 143.736 33.68
C 143.736 32.963952 143.451511 32.277134 142.945188 31.770812
C 142.438866 31.264489 141.752048 30.98 141.036 30.98
C 140.319952 30.98 139.633134 31.264489 139.126812 31.770812
C 138.620489 32.277134 138.336 32.963952 138.336 33.68
C 138.336 34.396048 138.620489 35.082866 139.126812 35.589188
C 139.633134 36.095511 140.319952 36.38 141.036 36.38
z
" clip-path="url(#p9cbf1abf97)" style="stroke: #000000; stroke-width: 2; stroke-linejoin: miter"/>
   </g>
   <g id="patch_7">
    <path d="M 247.296 36.38
C 248.012048 36.38 248.698866 36.095511 249.205188 35.589188
C 249.711511 35.082866 249.996 34.396048 249.996 33.68
C 249.996 32.963952 249.711511 32.277134 249.205188 31.770812
C 248.698866 31.264489 248.012048 30.98 247.296 30.98
C 246.579952 30.98 245.893134 31.264489 245.386812 31.770812
C 244.880489 32.277134 244.596 32.963952 244.596 33.68
C 244.596 34.396048 244.880489 35.082866 245.386812 35.589188
C 245.893134 36.095511 246.579952 36.38 247.296 36.38
z
" clip-path="url(#p9cbf1abf97)" style="stroke: #000000; stroke-width: 2; stroke-linejoin: miter"/>
   </g>
   <g id="patch_8">
    <path d="M 247.296 205.7
C 248.012048 205.7 248.698866 205.415511 249.205188 204.909188
C 249.711511 204.402866 249.996 203.716048 249.996 203
C 249.996 202.283952 249.711511 201.597134 249.205188 201.090812
C 248.698866 200.584489 248.012048 200.3 247.296 200.3
C 246.579952 200.3 245.893134 200.584489 245.386812 201.090812
C 244.880489 201.597134 244.596 202.283952 244.596 203
C 244.596 203.716048 244.880489 204.402866 245.386812 204.909188
C 245.893134 205.415511 246.579952 205.7 247.296 205.7
z
" clip-path="url(#p9cbf1abf97)" style="fill: #ffffff; stroke: #000000; stroke-width: 2; stroke-linejoin: miter"/>
   </g>
   <g id="text_10">
    <!-- to J1850 BUS node -->
    <g transform="translate(253.596 200.578281) scale(0.11 -0.11)">
     <defs>
      <path id="DejaVuSans-2d" d="M 628 4666
L 1259 4666
L 1259 325
Q 1259 -519 939 -900
Q 619 -1281 -91 -1281
L -331 -1281
L -331 -750
L -134 -750
Q 284 -750 456 -515
Q 628 -281 628 325
L 628 4666
z
" transform="scale(0.015625)"/>
      <path id="DejaVuSans-25" d="M 1259 2228
L 1259 519
L 2272 519
Q 2781 519 3026 730
Q 3272 941 3272 1375
Q 3272 1813 3026 2020
Q 2781 2228 2272 2228
L 1259 2228
z
M 1259 4147
L 1259 2741
L 2194 2741
Q 2656 2741 2882 2914
Q 3109 3088 3109 3444
Q 3109 3797 2882 3972
Q 2656 4147 2194 4147
L 1259 4147
z
M 628 4666
L 2241 4666
Q 2963 4666 3353 4366
Q 3744 4066 3744 3513
Q 3744 3084 3544 2831
Q 3344 2578 2956 2516
Q 3422 2416 3680 2098
Q 3938 1781 3938 1306
Q 3938 681 3513 340
Q 3088 0 2303 0
L 628 0
L 628 4666
z
" transform="scale(0.015625)"/>
      <path id="DejaVuSans-38" d="M 556 4666
L 1191 4666
L 1191 1831
Q 1191 1081 1462 751
Q 1734 422 2344 422
Q 2950 422 3222 751
Q 3494 1081 3494 1831
L 3494 4666
L 4128 4666
L 4128 1753
Q 4128 841 3676 375
Q 3225 -91 2344 -91
Q 1459 -91 1007 375
Q 556 841 556 1753
L 556 4666
z
" transform="scale(0.015625)"/>
     </defs>
     <use xlink:href="#DejaVuSans-57"/>
     <use xlink:href="#DejaVuSans-52" transform="translate(39.203125 0)"/>
     <use xlink:href="#DejaVuSans-3" transform="translate(100.390625 0)"/>
     <use xlink:href="#DejaVuSans-2d" transform="translate(132.171875 0)"/>
     <use xlink:href="#DejaVuSans-14" transform="translate(161.671875 0)"/>
     <use xlink:href="#DejaVuSans-1b" transform="translate(225.296875 0)"/>
     <use xlink:href="#DejaVuSans-18" transform="translate(288.921875 0)"/>
     <use xlink:href="#DejaVuSans-13" transform="translate(352.546875 0)"/>
     <use xlink:href="#DejaVuSans-3" transform="translate(416.171875 0)"/>
     <use xlink:href="#DejaVuSans-25" transform="translate(447.953125 0)"/>
     <use xlink:href="#DejaVuSans-38" transform="translate(516.5625 0)"/>
     <use xlink:href="#DejaVuSans-36" transform="translate(589.75 0)"/>
     <use xlink:href="#DejaVuSans-3" transform="translate(653.234375 0)"/>
     <use xlink:href="#DejaVuSans-51" transform="translate(685.015625 0)"/>
     <use xlink:href="#DejaVuSans-52" transform="translate(748.390625 0)"/>
     <use xlink:href="#DejaVuSans-47" transform="translate(809.578125 0)"/>
     <use xlink:href="#DejaVuSans-48" transform="translate(873.0625 0)"/>
    </g>
    <!-- (the RX tap — D1 clamps it) -->
    <g transform="translate(253.596 211.535313) scale(0.11 -0.11)">
     <defs>
      <path id="DejaVuSans-53" d="M 1159 525
L 1159 -1331
L 581 -1331
L 581 3500
L 1159 3500
L 1159 2969
Q 1341 3281 1617 3432
Q 1894 3584 2278 3584
Q 2916 3584 3314 3078
Q 3713 2572 3713 1747
Q 3713 922 3314 415
Q 2916 -91 2278 -91
Q 1894 -91 1617 61
Q 1341 213 1159 525
z
M 3116 1747
Q 3116 2381 2855 2742
Q 2594 3103 2138 3103
Q 1681 3103 1420 2742
Q 1159 2381 1159 1747
Q 1159 1113 1420 752
Q 1681 391 2138 391
Q 2594 391 2855 752
Q 3116 1113 3116 1747
z
" transform="scale(0.015625)"/>
      <path id="DejaVuSans-af6" d="M 313 1978
L 6088 1978
L 6088 1528
L 313 1528
L 313 1978
z
" transform="scale(0.015625)"/>
      <path id="DejaVuSans-27" d="M 1259 4147
L 1259 519
L 2022 519
Q 2988 519 3436 956
Q 3884 1394 3884 2338
Q 3884 3275 3436 3711
Q 2988 4147 2022 4147
L 1259 4147
z
M 628 4666
L 1925 4666
Q 3281 4666 3915 4102
Q 4550 3538 4550 2338
Q 4550 1131 3912 565
Q 3275 0 1925 0
L 628 0
L 628 4666
z
" transform="scale(0.015625)"/>
     </defs>
     <use xlink:href="#DejaVuSans-b"/>
     <use xlink:href="#DejaVuSans-57" transform="translate(39.015625 0)"/>
     <use xlink:href="#DejaVuSans-4b" transform="translate(78.21875 0)"/>
     <use xlink:href="#DejaVuSans-48" transform="translate(141.59375 0)"/>
     <use xlink:href="#DejaVuSans-3" transform="translate(203.125 0)"/>
     <use xlink:href="#DejaVuSans-35" transform="translate(234.90625 0)"/>
     <use xlink:href="#DejaVuSans-3b" transform="translate(304.390625 0)"/>
     <use xlink:href="#DejaVuSans-3" transform="translate(372.890625 0)"/>
     <use xlink:href="#DejaVuSans-57" transform="translate(404.671875 0)"/>
     <use xlink:href="#DejaVuSans-44" transform="translate(443.875 0)"/>
     <use xlink:href="#DejaVuSans-53" transform="translate(505.15625 0)"/>
     <use xlink:href="#DejaVuSans-3" transform="translate(568.640625 0)"/>
     <use xlink:href="#DejaVuSans-af6" transform="translate(600.421875 0)"/>
     <use xlink:href="#DejaVuSans-3" transform="translate(700.421875 0)"/>
     <use xlink:href="#DejaVuSans-27" transform="translate(732.203125 0)"/>
     <use xlink:href="#DejaVuSans-14" transform="translate(809.203125 0)"/>
     <use xlink:href="#DejaVuSans-3" transform="translate(872.828125 0)"/>
     <use xlink:href="#DejaVuSans-46" transform="translate(904.609375 0)"/>
     <use xlink:href="#DejaVuSans-4f" transform="translate(959.59375 0)"/>
     <use xlink:href="#DejaVuSans-44" transform="translate(987.375 0)"/>
     <use xlink:href="#DejaVuSans-50" transform="translate(1048.65625 0)"/>
     <use xlink:href="#DejaVuSans-53" transform="translate(1146.0625 0)"/>
     <use xlink:href="#DejaVuSans-56" transform="translate(1209.546875 0)"/>
     <use xlink:href="#DejaVuSans-3" transform="translate(1261.640625 0)"/>
     <use xlink:href="#DejaVuSans-4c" transform="translate(1293.421875 0)"/>
     <use xlink:href="#DejaVuSans-57" transform="translate(1321.203125 0)"/>
     <use xlink:href="#DejaVuSans-c" transform="translate(1360.40625 0)"/>
    </g>
   </g>
  </g>
 </g>
 <defs>
  <clipPath id="p9cbf1abf97">
   <rect x="0" y="0" width="423.048" height="373.16"/>
  </clipPath>
 </defs>
</svg>
