<?xml version="1.0" encoding="utf-8" standalone="no"?>
<!DOCTYPE svg PUBLIC "-//W3C//DTD SVG 1.1//EN"
  "http://www.w3.org/Graphics/SVG/1.1/DTD/svg11.dtd">
<svg xmlns:xlink="http://www.w3.org/1999/xlink" width="468.506531pt" height="214.96pt" viewBox="0 0 468.506531 214.96" xmlns="http://www.w3.org/2000/svg" version="1.1">
 <metadata>
  <rdf:RDF xmlns:dc="http://purl.org/dc/elements/1.1/" xmlns:cc="http://creativecommons.org/ns#" xmlns:rdf="http://www.w3.org/1999/02/22-rdf-syntax-ns#">
   <cc:Work>
    <dc:type rdf:resource="http://purl.org/dc/dcmitype/StillImage"/>
    <dc:date>2026-07-03T20:20:37.382187</dc:date>
    <dc:format>image/svg+xml</dc:format>
    <dc:creator>
     <cc:Agent>
      <dc:title>Matplotlib v3.11.0, https://matplotlib.org/</dc:title>
     </cc:Agent>
    </dc:creator>
   </cc:Work>
  </rdf:RDF>
 </metadata>
 <defs>
  <style type="text/css">*{stroke-linejoin: round; stroke-linecap: butt}</style>
 </defs>
 <g id="figure_1">
  <g id="patch_1">
   <path d="M 0 214.96
L 468.506531 214.96
L 468.506531 0
L 0 0
z
" style="fill: #ffffff"/>
  </g>
  <g id="axes_1">
   <g id="patch_2">
    <path d="M 171.734531 90.58
L 180.734531 77.98
L 189.734531 90.58
L 171.734531 90.58
z
" clip-path="url(#pbf815074fc)" style="fill: none; stroke: #000000; stroke-width: 2; stroke-linecap: round"/>
   </g>
   <g id="line2d_1">
    <path d="M 126.734531 39.28
L 153.734531 39.28
L 180.734531 39.28
" clip-path="url(#pbf815074fc)" style="fill: none; stroke: #000000; stroke-width: 2; stroke-linecap: round"/>
   </g>
   <g id="line2d_2">
    <path d="M 180.734531 39.28
L 180.734531 77.98
M 171.734531 77.98
L 189.734531 77.98
M 180.734531 90.58
L 180.734531 129.28
" clip-path="url(#pbf815074fc)" style="fill: none; stroke: #000000; stroke-width: 2; stroke-linecap: round"/>
   </g>
   <g id="line2d_3">
    <path d="M 193.334531 74.38
L 189.734531 77.98
" clip-path="url(#pbf815074fc)" style="fill: none; stroke: #000000; stroke-width: 2; stroke-linecap: round"/>
   </g>
   <g id="line2d_4">
    <path d="M 168.134531 81.58
L 171.734531 77.98
" clip-path="url(#pbf815074fc)" style="fill: none; stroke: #000000; stroke-width: 2; stroke-linecap: round"/>
   </g>
   <g id="line2d_5">
    <path d="M 180.734531 129.28
L 180.734531 143.68
L 171.734531 143.68
L 189.734531 143.68
M 174.434531 148
L 187.034531 148
M 178.934531 152.32
L 182.534531 152.32
" clip-path="url(#pbf815074fc)" style="fill: none; stroke: #000000; stroke-width: 2; stroke-linecap: round"/>
   </g>
   <g id="line2d_6">
    <path d="M 180.734531 39.28
L 207.734531 39.28
L 210.734531 30.28
L 216.734531 48.28
L 222.734531 30.28
L 228.734531 48.28
L 234.734531 30.28
L 240.734531 48.28
L 243.734531 39.28
L 270.734531 39.28
" clip-path="url(#pbf815074fc)" style="fill: none; stroke: #000000; stroke-width: 2; stroke-linecap: round"/>
   </g>
   <g id="line2d_7">
    <path d="M 270.734531 39.28
L 270.734531 66.28
L 279.734531 69.28
L 261.734531 75.28
L 279.734531 81.28
L 261.734531 87.28
L 279.734531 93.28
L 261.734531 99.28
L 270.734531 102.28
L 270.734531 129.28
" clip-path="url(#pbf815074fc)" style="fill: none; stroke: #000000; stroke-width: 2; stroke-linecap: round"/>
   </g>
   <g id="line2d_8">
    <path d="M 270.734531 129.28
L 270.734531 143.68
L 261.734531 143.68
L 279.734531 143.68
M 264.434531 148
L 277.034531 148
M 268.934531 152.32
L 272.534531 152.32
" clip-path="url(#pbf815074fc)" style="fill: none; stroke: #000000; stroke-width: 2; stroke-linecap: round"/>
   </g>
   <g id="line2d_9">
    <path d="M 270.734531 39.28
L 297.734531 39.28
L 324.734531 39.28
" clip-path="url(#pbf815074fc)" style="fill: none; stroke: #000000; stroke-width: 2; stroke-linecap: round"/>
   </g>
   <g id="text_1">
    <!-- D1 -->
    <g transform="translate(196.934531 82.789844) scale(0.11 -0.11)">
     <defs>
      <path id="DejaVuSans-27" d="M 1259 4147
L 1259 519
L 2022 519
Q 2988 519 3436 956
Q 3884 1394 3884 2338
Q 3884 3275 3436 3711
Q 2988 4147 2022 4147
L 1259 4147
z
M 628 4666
L 1925 4666
Q 3281 4666 3915 4102
Q 4550 3538 4550 2338
Q 4550 1131 3912 565
Q 3275 0 1925 0
L 628 0
L 628 4666
z
" transform="scale(0.015625)"/>
      <path id="DejaVuSans-14" d="M 794 531
L 1825 531
L 1825 4091
L 703 3866
L 703 4441
L 1819 4666
L 2450 4666
L 2450 531
L 3481 531
L 3481 0
L 794 0
L 794 531
z
" transform="scale(0.015625)"/>
     </defs>
     <use xlink:href="#DejaVuSans-27"/>
     <use xlink:href="#DejaVuSans-14" transform="translate(77 0)"/>
    </g>
    <!-- 7.5V 1W -->
    <g transform="translate(196.934531 93.711641) scale(0.11 -0.11)">
     <defs>
      <path id="DejaVuSans-1a" d="M 525 4666
L 3525 4666
L 3525 4397
L 1831 0
L 1172 0
L 2766 4134
L 525 4134
L 525 4666
z
" transform="scale(0.015625)"/>
      <path id="DejaVuSans-11" d="M 684 794
L 1344 794
L 1344 0
L 684 0
L 684 794
z
" transform="scale(0.015625)"/>
      <path id="DejaVuSans-18" d="M 691 4666
L 3169 4666
L 3169 4134
L 1269 4134
L 1269 2991
Q 1406 3038 1543 3061
Q 1681 3084 1819 3084
Q 2600 3084 3056 2656
Q 3513 2228 3513 1497
Q 3513 744 3044 326
Q 2575 -91 1722 -91
Q 1428 -91 1123 -41
Q 819 9 494 109
L 494 744
Q 775 591 1075 516
Q 1375 441 1709 441
Q 2250 441 2565 725
Q 2881 1009 2881 1497
Q 2881 1984 2565 2268
Q 2250 2553 1709 2553
Q 1456 2553 1204 2497
Q 953 2441 691 2322
L 691 4666
z
" transform="scale(0.015625)"/>
      <path id="DejaVuSans-39" d="M 1831 0
L 50 4666
L 709 4666
L 2188 738
L 3669 4666
L 4325 4666
L 2547 0
L 1831 0
z
" transform="scale(0.015625)"/>
      <path id="DejaVuSans-3" transform="scale(0.015625)"/>
      <path id="DejaVuSans-3a" d="M 213 4666
L 850 4666
L 1831 722
L 2809 4666
L 3519 4666
L 4500 722
L 5478 4666
L 6119 4666
L 4947 0
L 4153 0
L 3169 4050
L 2175 0
L 1381 0
L 213 4666
z
" transform="scale(0.015625)"/>
     </defs>
     <use xlink:href="#DejaVuSans-1a"/>
     <use xlink:href="#DejaVuSans-11" transform="translate(63.625 0)"/>
     <use xlink:href="#DejaVuSans-18" transform="translate(95.40625 0)"/>
     <use xlink:href="#DejaVuSans-39" transform="translate(159.03125 0)"/>
     <use xlink:href="#DejaVuSans-3" transform="translate(227.4375 0)"/>
     <use xlink:href="#DejaVuSans-14" transform="translate(259.21875 0)"/>
     <use xlink:href="#DejaVuSans-3a" transform="translate(322.84375 0)"/>
    </g>
   </g>
   <g id="text_2">
    <!-- R1 -->
    <g transform="translate(218.413516 14.189844) scale(0.11 -0.11)">
     <defs>
      <path id="DejaVuSans-35" d="M 2841 2188
Q 3044 2119 3236 1894
Q 3428 1669 3622 1275
L 4263 0
L 3584 0
L 2988 1197
Q 2756 1666 2539 1819
Q 2322 1972 1947 1972
L 1259 1972
L 1259 0
L 628 0
L 628 4666
L 2053 4666
Q 2853 4666 3247 4331
Q 3641 3997 3641 3322
Q 3641 2881 3436 2590
Q 3231 2300 2841 2188
z
M 1259 4147
L 1259 2491
L 2053 2491
Q 2509 2491 2742 2702
Q 2975 2913 2975 3322
Q 2975 3731 2742 3939
Q 2509 4147 2053 4147
L 1259 4147
z
" transform="scale(0.015625)"/>
     </defs>
     <use xlink:href="#DejaVuSans-35"/>
     <use xlink:href="#DejaVuSans-14" transform="translate(69.484375 0)"/>
    </g>
    <!-- 10k -->
    <g transform="translate(215.550938 25.280938) scale(0.11 -0.11)">
     <defs>
      <path id="DejaVuSans-13" d="M 2034 4250
Q 1547 4250 1301 3770
Q 1056 3291 1056 2328
Q 1056 1369 1301 889
Q 1547 409 2034 409
Q 2525 409 2770 889
Q 3016 1369 3016 2328
Q 3016 3291 2770 3770
Q 2525 4250 2034 4250
z
M 2034 4750
Q 2819 4750 3233 4129
Q 3647 3509 3647 2328
Q 3647 1150 3233 529
Q 2819 -91 2034 -91
Q 1250 -91 836 529
Q 422 1150 422 2328
Q 422 3509 836 4129
Q 1250 4750 2034 4750
z
" transform="scale(0.015625)"/>
      <path id="DejaVuSans-4e" d="M 581 4863
L 1159 4863
L 1159 1991
L 2875 3500
L 3609 3500
L 1753 1863
L 3688 0
L 2938 0
L 1159 1709
L 1159 0
L 581 0
L 581 4863
z
" transform="scale(0.015625)"/>
     </defs>
     <use xlink:href="#DejaVuSans-14"/>
     <use xlink:href="#DejaVuSans-13" transform="translate(63.625 0)"/>
     <use xlink:href="#DejaVuSans-4e" transform="translate(127.25 0)"/>
    </g>
   </g>
   <g id="text_3">
    <!-- R2 -->
    <g transform="translate(283.334531 82.862031) scale(0.11 -0.11)">
     <defs>
      <path id="DejaVuSans-15" d="M 1228 531
L 3431 531
L 3431 0
L 469 0
L 469 531
Q 828 903 1448 1529
Q 2069 2156 2228 2338
Q 2531 2678 2651 2914
Q 2772 3150 2772 3378
Q 2772 3750 2511 3984
Q 2250 4219 1831 4219
Q 1534 4219 1204 4116
Q 875 4013 500 3803
L 500 4441
Q 881 4594 1212 4672
Q 1544 4750 1819 4750
Q 2544 4750 2975 4387
Q 3406 4025 3406 3419
Q 3406 3131 3298 2873
Q 3191 2616 2906 2266
Q 2828 2175 2409 1742
Q 1991 1309 1228 531
z
" transform="scale(0.015625)"/>
     </defs>
     <use xlink:href="#DejaVuSans-35"/>
     <use xlink:href="#DejaVuSans-15" transform="translate(69.484375 0)"/>
    </g>
    <!-- 4.7k -->
    <g transform="translate(283.334531 93.959141) scale(0.11 -0.11)">
     <defs>
      <path id="DejaVuSans-17" d="M 2419 4116
L 825 1625
L 2419 1625
L 2419 4116
z
M 2253 4666
L 3047 4666
L 3047 1625
L 3713 1625
L 3713 1100
L 3047 1100
L 3047 0
L 2419 0
L 2419 1100
L 313 1100
L 313 1709
L 2253 4666
z
" transform="scale(0.015625)"/>
     </defs>
     <use xlink:href="#DejaVuSans-17"/>
     <use xlink:href="#DejaVuSans-11" transform="translate(63.625 0)"/>
     <use xlink:href="#DejaVuSans-1a" transform="translate(95.40625 0)"/>
     <use xlink:href="#DejaVuSans-4e" transform="translate(159.03125 0)"/>
    </g>
   </g>
   <g id="text_4">
    <!-- Bench check before the bike: 7V on BUS node -&gt; ~2.2V at GPIO node; -->
    <g transform="translate(98.07375 199.676172) scale(0.09 -0.09)">
     <defs>
      <path id="DejaVuSans-25" d="M 1259 2228
L 1259 519
L 2272 519
Q 2781 519 3026 730
Q 3272 941 3272 1375
Q 3272 1813 3026 2020
Q 2781 2228 2272 2228
L 1259 2228
z
M 1259 4147
L 1259 2741
L 2194 2741
Q 2656 2741 2882 2914
Q 3109 3088 3109 3444
Q 3109 3797 2882 3972
Q 2656 4147 2194 4147
L 1259 4147
z
M 628 4666
L 2241 4666
Q 2963 4666 3353 4366
Q 3744 4066 3744 3513
Q 3744 3084 3544 2831
Q 3344 2578 2956 2516
Q 3422 2416 3680 2098
Q 3938 1781 3938 1306
Q 3938 681 3513 340
Q 3088 0 2303 0
L 628 0
L 628 4666
z
" transform="scale(0.015625)"/>
      <path id="DejaVuSans-48" d="M 3597 1894
L 3597 1613
L 953 1613
Q 991 1019 1311 708
Q 1631 397 2203 397
Q 2534 397 2845 478
Q 3156 559 3463 722
L 3463 178
Q 3153 47 2828 -22
Q 2503 -91 2169 -91
Q 1331 -91 842 396
Q 353 884 353 1716
Q 353 2575 817 3079
Q 1281 3584 2069 3584
Q 2775 3584 3186 3129
Q 3597 2675 3597 1894
z
M 3022 2063
Q 3016 2534 2758 2815
Q 2500 3097 2075 3097
Q 1594 3097 1305 2825
Q 1016 2553 972 2059
L 3022 2063
z
" transform="scale(0.015625)"/>
      <path id="DejaVuSans-51" d="M 3513 2113
L 3513 0
L 2938 0
L 2938 2094
Q 2938 2591 2744 2837
Q 2550 3084 2163 3084
Q 1697 3084 1428 2787
Q 1159 2491 1159 1978
L 1159 0
L 581 0
L 581 3500
L 1159 3500
L 1159 2956
Q 1366 3272 1645 3428
Q 1925 3584 2291 3584
Q 2894 3584 3203 3211
Q 3513 2838 3513 2113
z
" transform="scale(0.015625)"/>
      <path id="DejaVuSans-46" d="M 3122 3366
L 3122 2828
Q 2878 2963 2633 3030
Q 2388 3097 2138 3097
Q 1578 3097 1268 2742
Q 959 2388 959 1747
Q 959 1106 1268 751
Q 1578 397 2138 397
Q 2388 397 2633 464
Q 2878 531 3122 666
L 3122 134
Q 2881 22 2623 -34
Q 2366 -91 2075 -91
Q 1284 -91 818 406
Q 353 903 353 1747
Q 353 2603 823 3093
Q 1294 3584 2113 3584
Q 2378 3584 2631 3529
Q 2884 3475 3122 3366
z
" transform="scale(0.015625)"/>
      <path id="DejaVuSans-4b" d="M 3513 2113
L 3513 0
L 2938 0
L 2938 2094
Q 2938 2591 2744 2837
Q 2550 3084 2163 3084
Q 1697 3084 1428 2787
Q 1159 2491 1159 1978
L 1159 0
L 581 0
L 581 4863
L 1159 4863
L 1159 2956
Q 1366 3272 1645 3428
Q 1925 3584 2291 3584
Q 2894 3584 3203 3211
Q 3513 2838 3513 2113
z
" transform="scale(0.015625)"/>
      <path id="DejaVuSans-45" d="M 3116 1747
Q 3116 2381 2855 2742
Q 2594 3103 2138 3103
Q 1681 3103 1420 2742
Q 1159 2381 1159 1747
Q 1159 1113 1420 752
Q 1681 391 2138 391
Q 2594 391 2855 752
Q 3116 1113 3116 1747
z
M 1159 2969
Q 1341 3281 1617 3432
Q 1894 3584 2278 3584
Q 2916 3584 3314 3078
Q 3713 2572 3713 1747
Q 3713 922 3314 415
Q 2916 -91 2278 -91
Q 1894 -91 1617 61
Q 1341 213 1159 525
L 1159 0
L 581 0
L 581 4863
L 1159 4863
L 1159 2969
z
" transform="scale(0.015625)"/>
      <path id="DejaVuSans-49" d="M 2375 4863
L 2375 4384
L 1825 4384
Q 1516 4384 1395 4259
Q 1275 4134 1275 3809
L 1275 3500
L 2222 3500
L 2222 3053
L 1275 3053
L 1275 0
L 697 0
L 697 3053
L 147 3053
L 147 3500
L 697 3500
L 697 3744
Q 697 4328 969 4595
Q 1241 4863 1831 4863
L 2375 4863
z
" transform="scale(0.015625)"/>
      <path id="DejaVuSans-52" d="M 1959 3097
Q 1497 3097 1228 2736
Q 959 2375 959 1747
Q 959 1119 1226 758
Q 1494 397 1959 397
Q 2419 397 2687 759
Q 2956 1122 2956 1747
Q 2956 2369 2687 2733
Q 2419 3097 1959 3097
z
M 1959 3584
Q 2709 3584 3137 3096
Q 3566 2609 3566 1747
Q 3566 888 3137 398
Q 2709 -91 1959 -91
Q 1206 -91 779 398
Q 353 888 353 1747
Q 353 2609 779 3096
Q 1206 3584 1959 3584
z
" transform="scale(0.015625)"/>
      <path id="DejaVuSans-55" d="M 2631 2963
Q 2534 3019 2420 3045
Q 2306 3072 2169 3072
Q 1681 3072 1420 2755
Q 1159 2438 1159 1844
L 1159 0
L 581 0
L 581 3500
L 1159 3500
L 1159 2956
Q 1341 3275 1631 3429
Q 1922 3584 2338 3584
Q 2397 3584 2469 3576
Q 2541 3569 2628 3553
L 2631 2963
z
" transform="scale(0.015625)"/>
      <path id="DejaVuSans-57" d="M 1172 4494
L 1172 3500
L 2356 3500
L 2356 3053
L 1172 3053
L 1172 1153
Q 1172 725 1289 603
Q 1406 481 1766 481
L 2356 481
L 2356 0
L 1766 0
Q 1100 0 847 248
Q 594 497 594 1153
L 594 3053
L 172 3053
L 172 3500
L 594 3500
L 594 4494
L 1172 4494
z
" transform="scale(0.015625)"/>
      <path id="DejaVuSans-4c" d="M 603 3500
L 1178 3500
L 1178 0
L 603 0
L 603 3500
z
M 603 4863
L 1178 4863
L 1178 4134
L 603 4134
L 603 4863
z
" transform="scale(0.015625)"/>
      <path id="DejaVuSans-1d" d="M 750 794
L 1409 794
L 1409 0
L 750 0
L 750 794
z
M 750 3309
L 1409 3309
L 1409 2516
L 750 2516
L 750 3309
z
" transform="scale(0.015625)"/>
      <path id="DejaVuSans-38" d="M 556 4666
L 1191 4666
L 1191 1831
Q 1191 1081 1462 751
Q 1734 422 2344 422
Q 2950 422 3222 751
Q 3494 1081 3494 1831
L 3494 4666
L 4128 4666
L 4128 1753
Q 4128 841 3676 375
Q 3225 -91 2344 -91
Q 1459 -91 1007 375
Q 556 841 556 1753
L 556 4666
z
" transform="scale(0.015625)"/>
      <path id="DejaVuSans-36" d="M 3425 4513
L 3425 3897
Q 3066 4069 2747 4153
Q 2428 4238 2131 4238
Q 1616 4238 1336 4038
Q 1056 3838 1056 3469
Q 1056 3159 1242 3001
Q 1428 2844 1947 2747
L 2328 2669
Q 3034 2534 3370 2195
Q 3706 1856 3706 1288
Q 3706 609 3251 259
Q 2797 -91 1919 -91
Q 1588 -91 1214 -16
Q 841 59 441 206
L 441 856
Q 825 641 1194 531
Q 1563 422 1919 422
Q 2459 422 2753 634
Q 3047 847 3047 1241
Q 3047 1584 2836 1778
Q 2625 1972 2144 2069
L 1759 2144
Q 1053 2284 737 2584
Q 422 2884 422 3419
Q 422 4038 858 4394
Q 1294 4750 2059 4750
Q 2388 4750 2728 4690
Q 3069 4631 3425 4513
z
" transform="scale(0.015625)"/>
      <path id="DejaVuSans-47" d="M 2906 2969
L 2906 4863
L 3481 4863
L 3481 0
L 2906 0
L 2906 525
Q 2725 213 2448 61
Q 2172 -91 1784 -91
Q 1150 -91 751 415
Q 353 922 353 1747
Q 353 2572 751 3078
Q 1150 3584 1784 3584
Q 2172 3584 2448 3432
Q 2725 3281 2906 2969
z
M 947 1747
Q 947 1113 1208 752
Q 1469 391 1925 391
Q 2381 391 2643 752
Q 2906 1113 2906 1747
Q 2906 2381 2643 2742
Q 2381 3103 1925 3103
Q 1469 3103 1208 2742
Q 947 2381 947 1747
z
" transform="scale(0.015625)"/>
      <path id="DejaVuSans-10" d="M 313 2009
L 1997 2009
L 1997 1497
L 313 1497
L 313 2009
z
" transform="scale(0.015625)"/>
      <path id="DejaVuSans-21" d="M 678 3150
L 678 3719
L 4684 2266
L 4684 1747
L 678 294
L 678 863
L 3897 2003
L 678 3150
z
" transform="scale(0.015625)"/>
      <path id="DejaVuSans-61" d="M 4684 2553
L 4684 1997
Q 4356 1750 4076 1644
Q 3797 1538 3494 1538
Q 3150 1538 2694 1722
Q 2659 1734 2644 1741
Q 2622 1750 2575 1766
Q 2091 1959 1797 1959
Q 1522 1959 1253 1839
Q 984 1719 678 1459
L 678 2016
Q 1006 2263 1286 2370
Q 1566 2478 1869 2478
Q 2213 2478 2672 2291
Q 2703 2278 2719 2272
Q 2744 2263 2788 2247
Q 3272 2053 3566 2053
Q 3834 2053 4098 2172
Q 4363 2291 4684 2553
z
" transform="scale(0.015625)"/>
      <path id="DejaVuSans-44" d="M 2194 1759
Q 1497 1759 1228 1600
Q 959 1441 959 1056
Q 959 750 1161 570
Q 1363 391 1709 391
Q 2188 391 2477 730
Q 2766 1069 2766 1631
L 2766 1759
L 2194 1759
z
M 3341 1997
L 3341 0
L 2766 0
L 2766 531
Q 2569 213 2275 61
Q 1981 -91 1556 -91
Q 1019 -91 701 211
Q 384 513 384 1019
Q 384 1609 779 1909
Q 1175 2209 1959 2209
L 2766 2209
L 2766 2266
Q 2766 2663 2505 2880
Q 2244 3097 1772 3097
Q 1472 3097 1187 3025
Q 903 2953 641 2809
L 641 3341
Q 956 3463 1253 3523
Q 1550 3584 1831 3584
Q 2591 3584 2966 3190
Q 3341 2797 3341 1997
z
" transform="scale(0.015625)"/>
      <path id="DejaVuSans-2a" d="M 3809 666
L 3809 1919
L 2778 1919
L 2778 2438
L 4434 2438
L 4434 434
Q 4069 175 3628 42
Q 3188 -91 2688 -91
Q 1594 -91 976 548
Q 359 1188 359 2328
Q 359 3472 976 4111
Q 1594 4750 2688 4750
Q 3144 4750 3555 4637
Q 3966 4525 4313 4306
L 4313 3634
Q 3963 3931 3569 4081
Q 3175 4231 2741 4231
Q 1884 4231 1454 3753
Q 1025 3275 1025 2328
Q 1025 1384 1454 906
Q 1884 428 2741 428
Q 3075 428 3337 486
Q 3600 544 3809 666
z
" transform="scale(0.015625)"/>
      <path id="DejaVuSans-33" d="M 1259 4147
L 1259 2394
L 2053 2394
Q 2494 2394 2734 2622
Q 2975 2850 2975 3272
Q 2975 3691 2734 3919
Q 2494 4147 2053 4147
L 1259 4147
z
M 628 4666
L 2053 4666
Q 2838 4666 3239 4311
Q 3641 3956 3641 3272
Q 3641 2581 3239 2228
Q 2838 1875 2053 1875
L 1259 1875
L 1259 0
L 628 0
L 628 4666
z
" transform="scale(0.015625)"/>
      <path id="DejaVuSans-2c" d="M 628 4666
L 1259 4666
L 1259 0
L 628 0
L 628 4666
z
" transform="scale(0.015625)"/>
      <path id="DejaVuSans-32" d="M 2522 4238
Q 1834 4238 1429 3725
Q 1025 3213 1025 2328
Q 1025 1447 1429 934
Q 1834 422 2522 422
Q 3209 422 3611 934
Q 4013 1447 4013 2328
Q 4013 3213 3611 3725
Q 3209 4238 2522 4238
z
M 2522 4750
Q 3503 4750 4090 4092
Q 4678 3434 4678 2328
Q 4678 1225 4090 567
Q 3503 -91 2522 -91
Q 1538 -91 948 565
Q 359 1222 359 2328
Q 359 3434 948 4092
Q 1538 4750 2522 4750
z
" transform="scale(0.015625)"/>
      <path id="DejaVuSans-1e" d="M 750 3309
L 1409 3309
L 1409 2516
L 750 2516
L 750 3309
z
M 750 794
L 1409 794
L 1409 256
L 897 -744
L 494 -744
L 750 256
L 750 794
z
" transform="scale(0.015625)"/>
     </defs>
     <use xlink:href="#DejaVuSans-25"/>
     <use xlink:href="#DejaVuSans-48" transform="translate(68.609375 0)"/>
     <use xlink:href="#DejaVuSans-51" transform="translate(130.140625 0)"/>
     <use xlink:href="#DejaVuSans-46" transform="translate(193.515625 0)"/>
     <use xlink:href="#DejaVuSans-4b" transform="translate(248.5 0)"/>
     <use xlink:href="#DejaVuSans-3" transform="translate(311.875 0)"/>
     <use xlink:href="#DejaVuSans-46" transform="translate(343.65625 0)"/>
     <use xlink:href="#DejaVuSans-4b" transform="translate(398.640625 0)"/>
     <use xlink:href="#DejaVuSans-48" transform="translate(462.015625 0)"/>
     <use xlink:href="#DejaVuSans-46" transform="translate(523.546875 0)"/>
     <use xlink:href="#DejaVuSans-4e" transform="translate(578.53125 0)"/>
     <use xlink:href="#DejaVuSans-3" transform="translate(636.4375 0)"/>
     <use xlink:href="#DejaVuSans-45" transform="translate(668.21875 0)"/>
     <use xlink:href="#DejaVuSans-48" transform="translate(731.703125 0)"/>
     <use xlink:href="#DejaVuSans-49" transform="translate(793.234375 0)"/>
     <use xlink:href="#DejaVuSans-52" transform="translate(828.4375 0)"/>
     <use xlink:href="#DejaVuSans-55" transform="translate(889.625 0)"/>
     <use xlink:href="#DejaVuSans-48" transform="translate(928.53125 0)"/>
     <use xlink:href="#DejaVuSans-3" transform="translate(990.0625 0)"/>
     <use xlink:href="#DejaVuSans-57" transform="translate(1021.84375 0)"/>
     <use xlink:href="#DejaVuSans-4b" transform="translate(1061.046875 0)"/>
     <use xlink:href="#DejaVuSans-48" transform="translate(1124.421875 0)"/>
     <use xlink:href="#DejaVuSans-3" transform="translate(1185.953125 0)"/>
     <use xlink:href="#DejaVuSans-45" transform="translate(1217.734375 0)"/>
     <use xlink:href="#DejaVuSans-4c" transform="translate(1281.21875 0)"/>
     <use xlink:href="#DejaVuSans-4e" transform="translate(1309 0)"/>
     <use xlink:href="#DejaVuSans-48" transform="translate(1363.34375 0)"/>
     <use xlink:href="#DejaVuSans-1d" transform="translate(1424.875 0)"/>
     <use xlink:href="#DejaVuSans-3" transform="translate(1458.5625 0)"/>
     <use xlink:href="#DejaVuSans-1a" transform="translate(1490.34375 0)"/>
     <use xlink:href="#DejaVuSans-39" transform="translate(1553.96875 0)"/>
     <use xlink:href="#DejaVuSans-3" transform="translate(1622.375 0)"/>
     <use xlink:href="#DejaVuSans-52" transform="translate(1654.15625 0)"/>
     <use xlink:href="#DejaVuSans-51" transform="translate(1715.34375 0)"/>
     <use xlink:href="#DejaVuSans-3" transform="translate(1778.71875 0)"/>
     <use xlink:href="#DejaVuSans-25" transform="translate(1810.5 0)"/>
     <use xlink:href="#DejaVuSans-38" transform="translate(1879.109375 0)"/>
     <use xlink:href="#DejaVuSans-36" transform="translate(1952.296875 0)"/>
     <use xlink:href="#DejaVuSans-3" transform="translate(2015.78125 0)"/>
     <use xlink:href="#DejaVuSans-51" transform="translate(2047.5625 0)"/>
     <use xlink:href="#DejaVuSans-52" transform="translate(2110.9375 0)"/>
     <use xlink:href="#DejaVuSans-47" transform="translate(2172.125 0)"/>
     <use xlink:href="#DejaVuSans-48" transform="translate(2235.609375 0)"/>
     <use xlink:href="#DejaVuSans-3" transform="translate(2297.140625 0)"/>
     <use xlink:href="#DejaVuSans-10" transform="translate(2328.921875 0)"/>
     <use xlink:href="#DejaVuSans-21" transform="translate(2365 0)"/>
     <use xlink:href="#DejaVuSans-3" transform="translate(2448.796875 0)"/>
     <use xlink:href="#DejaVuSans-61" transform="translate(2480.578125 0)"/>
     <use xlink:href="#DejaVuSans-15" transform="translate(2564.375 0)"/>
     <use xlink:href="#DejaVuSans-11" transform="translate(2628 0)"/>
     <use xlink:href="#DejaVuSans-15" transform="translate(2659.78125 0)"/>
     <use xlink:href="#DejaVuSans-39" transform="translate(2723.40625 0)"/>
     <use xlink:href="#DejaVuSans-3" transform="translate(2791.8125 0)"/>
     <use xlink:href="#DejaVuSans-44" transform="translate(2823.59375 0)"/>
     <use xlink:href="#DejaVuSans-57" transform="translate(2884.875 0)"/>
     <use xlink:href="#DejaVuSans-3" transform="translate(2924.078125 0)"/>
     <use xlink:href="#DejaVuSans-2a" transform="translate(2955.859375 0)"/>
     <use xlink:href="#DejaVuSans-33" transform="translate(3033.34375 0)"/>
     <use xlink:href="#DejaVuSans-2c" transform="translate(3093.640625 0)"/>
     <use xlink:href="#DejaVuSans-32" transform="translate(3123.140625 0)"/>
     <use xlink:href="#DejaVuSans-3" transform="translate(3201.859375 0)"/>
     <use xlink:href="#DejaVuSans-51" transform="translate(3233.640625 0)"/>
     <use xlink:href="#DejaVuSans-52" transform="translate(3297.015625 0)"/>
     <use xlink:href="#DejaVuSans-47" transform="translate(3358.203125 0)"/>
     <use xlink:href="#DejaVuSans-48" transform="translate(3421.6875 0)"/>
     <use xlink:href="#DejaVuSans-1e" transform="translate(3483.21875 0)"/>
    </g>
    <!-- 12V injected on BUS node -&gt; clamps at ~7.5V. Grounds common with the P4. -->
    <g transform="translate(81.607266 208.263438) scale(0.09 -0.09)">
     <defs>
      <path id="DejaVuSans-4d" d="M 603 3500
L 1178 3500
L 1178 -63
Q 1178 -731 923 -1031
Q 669 -1331 103 -1331
L -116 -1331
L -116 -844
L 38 -844
Q 366 -844 484 -692
Q 603 -541 603 -63
L 603 3500
z
M 603 4863
L 1178 4863
L 1178 4134
L 603 4134
L 603 4863
z
" transform="scale(0.015625)"/>
      <path id="DejaVuSans-4f" d="M 603 4863
L 1178 4863
L 1178 0
L 603 0
L 603 4863
z
" transform="scale(0.015625)"/>
      <path id="DejaVuSans-50" d="M 3328 2828
Q 3544 3216 3844 3400
Q 4144 3584 4550 3584
Q 5097 3584 5394 3201
Q 5691 2819 5691 2113
L 5691 0
L 5113 0
L 5113 2094
Q 5113 2597 4934 2840
Q 4756 3084 4391 3084
Q 3944 3084 3684 2787
Q 3425 2491 3425 1978
L 3425 0
L 2847 0
L 2847 2094
Q 2847 2600 2669 2842
Q 2491 3084 2119 3084
Q 1678 3084 1418 2786
Q 1159 2488 1159 1978
L 1159 0
L 581 0
L 581 3500
L 1159 3500
L 1159 2956
Q 1356 3278 1631 3431
Q 1906 3584 2284 3584
Q 2666 3584 2933 3390
Q 3200 3197 3328 2828
z
" transform="scale(0.015625)"/>
      <path id="DejaVuSans-53" d="M 1159 525
L 1159 -1331
L 581 -1331
L 581 3500
L 1159 3500
L 1159 2969
Q 1341 3281 1617 3432
Q 1894 3584 2278 3584
Q 2916 3584 3314 3078
Q 3713 2572 3713 1747
Q 3713 922 3314 415
Q 2916 -91 2278 -91
Q 1894 -91 1617 61
Q 1341 213 1159 525
z
M 3116 1747
Q 3116 2381 2855 2742
Q 2594 3103 2138 3103
Q 1681 3103 1420 2742
Q 1159 2381 1159 1747
Q 1159 1113 1420 752
Q 1681 391 2138 391
Q 2594 391 2855 752
Q 3116 1113 3116 1747
z
" transform="scale(0.015625)"/>
      <path id="DejaVuSans-56" d="M 2834 3397
L 2834 2853
Q 2591 2978 2328 3040
Q 2066 3103 1784 3103
Q 1356 3103 1142 2972
Q 928 2841 928 2578
Q 928 2378 1081 2264
Q 1234 2150 1697 2047
L 1894 2003
Q 2506 1872 2764 1633
Q 3022 1394 3022 966
Q 3022 478 2636 193
Q 2250 -91 1575 -91
Q 1294 -91 989 -36
Q 684 19 347 128
L 347 722
Q 666 556 975 473
Q 1284 391 1588 391
Q 1994 391 2212 530
Q 2431 669 2431 922
Q 2431 1156 2273 1281
Q 2116 1406 1581 1522
L 1381 1569
Q 847 1681 609 1914
Q 372 2147 372 2553
Q 372 3047 722 3315
Q 1072 3584 1716 3584
Q 2034 3584 2315 3537
Q 2597 3491 2834 3397
z
" transform="scale(0.015625)"/>
      <path id="DejaVuSans-58" d="M 544 1381
L 544 3500
L 1119 3500
L 1119 1403
Q 1119 906 1312 657
Q 1506 409 1894 409
Q 2359 409 2629 706
Q 2900 1003 2900 1516
L 2900 3500
L 3475 3500
L 3475 0
L 2900 0
L 2900 538
Q 2691 219 2414 64
Q 2138 -91 1772 -91
Q 1169 -91 856 284
Q 544 659 544 1381
z
M 1991 3584
L 1991 3584
z
" transform="scale(0.015625)"/>
      <path id="DejaVuSans-5a" d="M 269 3500
L 844 3500
L 1563 769
L 2278 3500
L 2956 3500
L 3675 769
L 4391 3500
L 4966 3500
L 4050 0
L 3372 0
L 2619 2869
L 1863 0
L 1184 0
L 269 3500
z
" transform="scale(0.015625)"/>
     </defs>
     <use xlink:href="#DejaVuSans-14"/>
     <use xlink:href="#DejaVuSans-15" transform="translate(63.625 0)"/>
     <use xlink:href="#DejaVuSans-39" transform="translate(127.25 0)"/>
     <use xlink:href="#DejaVuSans-3" transform="translate(195.65625 0)"/>
     <use xlink:href="#DejaVuSans-4c" transform="translate(227.4375 0)"/>
     <use xlink:href="#DejaVuSans-51" transform="translate(255.21875 0)"/>
     <use xlink:href="#DejaVuSans-4d" transform="translate(318.59375 0)"/>
     <use xlink:href="#DejaVuSans-48" transform="translate(346.375 0)"/>
     <use xlink:href="#DejaVuSans-46" transform="translate(407.90625 0)"/>
     <use xlink:href="#DejaVuSans-57" transform="translate(462.890625 0)"/>
     <use xlink:href="#DejaVuSans-48" transform="translate(502.09375 0)"/>
     <use xlink:href="#DejaVuSans-47" transform="translate(563.625 0)"/>
     <use xlink:href="#DejaVuSans-3" transform="translate(627.109375 0)"/>
     <use xlink:href="#DejaVuSans-52" transform="translate(658.890625 0)"/>
     <use xlink:href="#DejaVuSans-51" transform="translate(720.078125 0)"/>
     <use xlink:href="#DejaVuSans-3" transform="translate(783.453125 0)"/>
     <use xlink:href="#DejaVuSans-25" transform="translate(815.234375 0)"/>
     <use xlink:href="#DejaVuSans-38" transform="translate(883.84375 0)"/>
     <use xlink:href="#DejaVuSans-36" transform="translate(957.03125 0)"/>
     <use xlink:href="#DejaVuSans-3" transform="translate(1020.515625 0)"/>
     <use xlink:href="#DejaVuSans-51" transform="translate(1052.296875 0)"/>
     <use xlink:href="#DejaVuSans-52" transform="translate(1115.671875 0)"/>
     <use xlink:href="#DejaVuSans-47" transform="translate(1176.859375 0)"/>
     <use xlink:href="#DejaVuSans-48" transform="translate(1240.34375 0)"/>
     <use xlink:href="#DejaVuSans-3" transform="translate(1301.875 0)"/>
     <use xlink:href="#DejaVuSans-10" transform="translate(1333.65625 0)"/>
     <use xlink:href="#DejaVuSans-21" transform="translate(1369.734375 0)"/>
     <use xlink:href="#DejaVuSans-3" transform="translate(1453.53125 0)"/>
     <use xlink:href="#DejaVuSans-46" transform="translate(1485.3125 0)"/>
     <use xlink:href="#DejaVuSans-4f" transform="translate(1540.296875 0)"/>
     <use xlink:href="#DejaVuSans-44" transform="translate(1568.078125 0)"/>
     <use xlink:href="#DejaVuSans-50" transform="translate(1629.359375 0)"/>
     <use xlink:href="#DejaVuSans-53" transform="translate(1726.765625 0)"/>
     <use xlink:href="#DejaVuSans-56" transform="translate(1790.25 0)"/>
     <use xlink:href="#DejaVuSans-3" transform="translate(1842.34375 0)"/>
     <use xlink:href="#DejaVuSans-44" transform="translate(1874.125 0)"/>
     <use xlink:href="#DejaVuSans-57" transform="translate(1935.40625 0)"/>
     <use xlink:href="#DejaVuSans-3" transform="translate(1974.609375 0)"/>
     <use xlink:href="#DejaVuSans-61" transform="translate(2006.390625 0)"/>
     <use xlink:href="#DejaVuSans-1a" transform="translate(2090.1875 0)"/>
     <use xlink:href="#DejaVuSans-11" transform="translate(2153.8125 0)"/>
     <use xlink:href="#DejaVuSans-18" transform="translate(2185.59375 0)"/>
     <use xlink:href="#DejaVuSans-39" transform="translate(2249.21875 0)"/>
     <use xlink:href="#DejaVuSans-11" transform="translate(2304.734375 0)"/>
     <use xlink:href="#DejaVuSans-3" transform="translate(2336.515625 0)"/>
     <use xlink:href="#DejaVuSans-2a" transform="translate(2368.296875 0)"/>
     <use xlink:href="#DejaVuSans-55" transform="translate(2445.78125 0)"/>
     <use xlink:href="#DejaVuSans-52" transform="translate(2484.6875 0)"/>
     <use xlink:href="#DejaVuSans-58" transform="translate(2545.875 0)"/>
     <use xlink:href="#DejaVuSans-51" transform="translate(2609.25 0)"/>
     <use xlink:href="#DejaVuSans-47" transform="translate(2672.625 0)"/>
     <use xlink:href="#DejaVuSans-56" transform="translate(2736.109375 0)"/>
     <use xlink:href="#DejaVuSans-3" transform="translate(2788.203125 0)"/>
     <use xlink:href="#DejaVuSans-46" transform="translate(2819.984375 0)"/>
     <use xlink:href="#DejaVuSans-52" transform="translate(2874.96875 0)"/>
     <use xlink:href="#DejaVuSans-50" transform="translate(2936.15625 0)"/>
     <use xlink:href="#DejaVuSans-50" transform="translate(3033.5625 0)"/>
     <use xlink:href="#DejaVuSans-52" transform="translate(3130.96875 0)"/>
     <use xlink:href="#DejaVuSans-51" transform="translate(3192.15625 0)"/>
     <use xlink:href="#DejaVuSans-3" transform="translate(3255.53125 0)"/>
     <use xlink:href="#DejaVuSans-5a" transform="translate(3287.3125 0)"/>
     <use xlink:href="#DejaVuSans-4c" transform="translate(3369.09375 0)"/>
     <use xlink:href="#DejaVuSans-57" transform="translate(3396.875 0)"/>
     <use xlink:href="#DejaVuSans-4b" transform="translate(3436.078125 0)"/>
     <use xlink:href="#DejaVuSans-3" transform="translate(3499.453125 0)"/>
     <use xlink:href="#DejaVuSans-57" transform="translate(3531.234375 0)"/>
     <use xlink:href="#DejaVuSans-4b" transform="translate(3570.4375 0)"/>
     <use xlink:href="#DejaVuSans-48" transform="translate(3633.8125 0)"/>
     <use xlink:href="#DejaVuSans-3" transform="translate(3695.34375 0)"/>
     <use xlink:href="#DejaVuSans-33" transform="translate(3727.125 0)"/>
     <use xlink:href="#DejaVuSans-17" transform="translate(3787.421875 0)"/>
     <use xlink:href="#DejaVuSans-11" transform="translate(3851.046875 0)"/>
    </g>
   </g>
   <g id="patch_3">
    <path d="M 126.734531 41.98
C 127.45058 41.98 128.137397 41.695511 128.64372 41.189188
C 129.150042 40.682866 129.434531 39.996048 129.434531 39.28
C 129.434531 38.563952 129.150042 37.877134 128.64372 37.370812
C 128.137397 36.864489 127.45058 36.58 126.734531 36.58
C 126.018483 36.58 125.331666 36.864489 124.825343 37.370812
C 124.31902 37.877134 124.034531 38.563952 124.034531 39.28
C 124.034531 39.996048 124.31902 40.682866 124.825343 41.189188
C 125.331666 41.695511 126.018483 41.98 126.734531 41.98
z
" clip-path="url(#pbf815074fc)" style="fill: #ffffff; stroke: #000000; stroke-width: 2; stroke-linejoin: miter"/>
   </g>
   <g id="text_5">
    <!-- J1850 BUS -->
    <g transform="translate(63.117656 36.761172) scale(0.11 -0.11)">
     <defs>
      <path id="DejaVuSans-2d" d="M 628 4666
L 1259 4666
L 1259 325
Q 1259 -519 939 -900
Q 619 -1281 -91 -1281
L -331 -1281
L -331 -750
L -134 -750
Q 284 -750 456 -515
Q 628 -281 628 325
L 628 4666
z
" transform="scale(0.015625)"/>
      <path id="DejaVuSans-1b" d="M 2034 2216
Q 1584 2216 1326 1975
Q 1069 1734 1069 1313
Q 1069 891 1326 650
Q 1584 409 2034 409
Q 2484 409 2743 651
Q 3003 894 3003 1313
Q 3003 1734 2745 1975
Q 2488 2216 2034 2216
z
M 1403 2484
Q 997 2584 770 2862
Q 544 3141 544 3541
Q 544 4100 942 4425
Q 1341 4750 2034 4750
Q 2731 4750 3128 4425
Q 3525 4100 3525 3541
Q 3525 3141 3298 2862
Q 3072 2584 2669 2484
Q 3125 2378 3379 2068
Q 3634 1759 3634 1313
Q 3634 634 3220 271
Q 2806 -91 2034 -91
Q 1263 -91 848 271
Q 434 634 434 1313
Q 434 1759 690 2068
Q 947 2378 1403 2484
z
M 1172 3481
Q 1172 3119 1398 2916
Q 1625 2713 2034 2713
Q 2441 2713 2670 2916
Q 2900 3119 2900 3481
Q 2900 3844 2670 4047
Q 2441 4250 2034 4250
Q 1625 4250 1398 4047
Q 1172 3844 1172 3481
z
" transform="scale(0.015625)"/>
     </defs>
     <use xlink:href="#DejaVuSans-2d"/>
     <use xlink:href="#DejaVuSans-14" transform="translate(29.5 0)"/>
     <use xlink:href="#DejaVuSans-1b" transform="translate(93.125 0)"/>
     <use xlink:href="#DejaVuSans-18" transform="translate(156.75 0)"/>
     <use xlink:href="#DejaVuSans-13" transform="translate(220.375 0)"/>
     <use xlink:href="#DejaVuSans-3" transform="translate(284 0)"/>
     <use xlink:href="#DejaVuSans-25" transform="translate(315.78125 0)"/>
     <use xlink:href="#DejaVuSans-38" transform="translate(384.390625 0)"/>
     <use xlink:href="#DejaVuSans-36" transform="translate(457.578125 0)"/>
    </g>
    <!-- harness pin 7 (LGN/V) -->
    <g transform="translate(0 47.815313) scale(0.11 -0.11)">
     <defs>
      <path id="DejaVuSans-b" d="M 1984 4856
Q 1566 4138 1362 3434
Q 1159 2731 1159 2009
Q 1159 1288 1364 580
Q 1569 -128 1984 -844
L 1484 -844
Q 1016 -109 783 600
Q 550 1309 550 2009
Q 550 2706 781 3412
Q 1013 4119 1484 4856
L 1984 4856
z
" transform="scale(0.015625)"/>
      <path id="DejaVuSans-2f" d="M 628 4666
L 1259 4666
L 1259 531
L 3531 531
L 3531 0
L 628 0
L 628 4666
z
" transform="scale(0.015625)"/>
      <path id="DejaVuSans-31" d="M 628 4666
L 1478 4666
L 3547 763
L 3547 4666
L 4159 4666
L 4159 0
L 3309 0
L 1241 3903
L 1241 0
L 628 0
L 628 4666
z
" transform="scale(0.015625)"/>
      <path id="DejaVuSans-12" d="M 1625 4666
L 2156 4666
L 531 -594
L 0 -594
L 1625 4666
z
" transform="scale(0.015625)"/>
      <path id="DejaVuSans-c" d="M 513 4856
L 1013 4856
Q 1481 4119 1714 3412
Q 1947 2706 1947 2009
Q 1947 1309 1714 600
Q 1481 -109 1013 -844
L 513 -844
Q 928 -128 1133 580
Q 1338 1288 1338 2009
Q 1338 2731 1133 3434
Q 928 4138 513 4856
z
" transform="scale(0.015625)"/>
     </defs>
     <use xlink:href="#DejaVuSans-4b"/>
     <use xlink:href="#DejaVuSans-44" transform="translate(63.375 0)"/>
     <use xlink:href="#DejaVuSans-55" transform="translate(124.65625 0)"/>
     <use xlink:href="#DejaVuSans-51" transform="translate(164.015625 0)"/>
     <use xlink:href="#DejaVuSans-48" transform="translate(227.390625 0)"/>
     <use xlink:href="#DejaVuSans-56" transform="translate(288.921875 0)"/>
     <use xlink:href="#DejaVuSans-56" transform="translate(341.015625 0)"/>
     <use xlink:href="#DejaVuSans-3" transform="translate(393.109375 0)"/>
     <use xlink:href="#DejaVuSans-53" transform="translate(424.890625 0)"/>
     <use xlink:href="#DejaVuSans-4c" transform="translate(488.375 0)"/>
     <use xlink:href="#DejaVuSans-51" transform="translate(516.15625 0)"/>
     <use xlink:href="#DejaVuSans-3" transform="translate(579.53125 0)"/>
     <use xlink:href="#DejaVuSans-1a" transform="translate(611.3125 0)"/>
     <use xlink:href="#DejaVuSans-3" transform="translate(674.9375 0)"/>
     <use xlink:href="#DejaVuSans-b" transform="translate(706.71875 0)"/>
     <use xlink:href="#DejaVuSans-2f" transform="translate(745.734375 0)"/>
     <use xlink:href="#DejaVuSans-2a" transform="translate(801.453125 0)"/>
     <use xlink:href="#DejaVuSans-31" transform="translate(878.9375 0)"/>
     <use xlink:href="#DejaVuSans-12" transform="translate(953.75 0)"/>
     <use xlink:href="#DejaVuSans-39" transform="translate(987.4375 0)"/>
     <use xlink:href="#DejaVuSans-c" transform="translate(1055.84375 0)"/>
    </g>
   </g>
   <g id="patch_4">
    <path d="M 180.734531 41.98
C 181.45058 41.98 182.137397 41.695511 182.64372 41.189188
C 183.150042 40.682866 183.434531 39.996048 183.434531 39.28
C 183.434531 38.563952 183.150042 37.877134 182.64372 37.370812
C 182.137397 36.864489 181.45058 36.58 180.734531 36.58
C 180.018483 36.58 179.331666 36.864489 178.825343 37.370812
C 178.31902 37.877134 178.034531 38.563952 178.034531 39.28
C 178.034531 39.996048 178.31902 40.682866 178.825343 41.189188
C 179.331666 41.695511 180.018483 41.98 180.734531 41.98
z
" clip-path="url(#pbf815074fc)" style="stroke: #000000; stroke-width: 2; stroke-linejoin: miter"/>
   </g>
   <g id="patch_5">
    <path d="M 270.734531 41.98
C 271.45058 41.98 272.137397 41.695511 272.64372 41.189188
C 273.150042 40.682866 273.434531 39.996048 273.434531 39.28
C 273.434531 38.563952 273.150042 37.877134 272.64372 37.370812
C 272.137397 36.864489 271.45058 36.58 270.734531 36.58
C 270.018483 36.58 269.331666 36.864489 268.825343 37.370812
C 268.31902 37.877134 268.034531 38.563952 268.034531 39.28
C 268.034531 39.996048 268.31902 40.682866 268.825343 41.189188
C 269.331666 41.695511 270.018483 41.98 270.734531 41.98
z
" clip-path="url(#pbf815074fc)" style="stroke: #000000; stroke-width: 2; stroke-linejoin: miter"/>
   </g>
   <g id="patch_6">
    <path d="M 324.734531 41.98
C 325.45058 41.98 326.137397 41.695511 326.64372 41.189188
C 327.150042 40.682866 327.434531 39.996048 327.434531 39.28
C 327.434531 38.563952 327.150042 37.877134 326.64372 37.370812
C 326.137397 36.864489 325.45058 36.58 324.734531 36.58
C 324.018483 36.58 323.331666 36.864489 322.825343 37.370812
C 322.31902 37.877134 322.034531 38.563952 322.034531 39.28
C 322.034531 39.996048 322.31902 40.682866 322.825343 41.189188
C 323.331666 41.695511 324.018483 41.98 324.734531 41.98
z
" clip-path="url(#pbf815074fc)" style="fill: #ffffff; stroke: #000000; stroke-width: 2; stroke-linejoin: miter"/>
   </g>
   <g id="text_6">
    <!-- ESP32-P4 GPIO 20 -->
    <g transform="translate(331.034531 37.783828) scale(0.11 -0.11)">
     <defs>
      <path id="DejaVuSans-28" d="M 628 4666
L 3578 4666
L 3578 4134
L 1259 4134
L 1259 2753
L 3481 2753
L 3481 2222
L 1259 2222
L 1259 531
L 3634 531
L 3634 0
L 628 0
L 628 4666
z
" transform="scale(0.015625)"/>
      <path id="DejaVuSans-16" d="M 2597 2516
Q 3050 2419 3304 2112
Q 3559 1806 3559 1356
Q 3559 666 3084 287
Q 2609 -91 1734 -91
Q 1441 -91 1130 -33
Q 819 25 488 141
L 488 750
Q 750 597 1062 519
Q 1375 441 1716 441
Q 2309 441 2620 675
Q 2931 909 2931 1356
Q 2931 1769 2642 2001
Q 2353 2234 1838 2234
L 1294 2234
L 1294 2753
L 1863 2753
Q 2328 2753 2575 2939
Q 2822 3125 2822 3475
Q 2822 3834 2567 4026
Q 2313 4219 1838 4219
Q 1578 4219 1281 4162
Q 984 4106 628 3988
L 628 4550
Q 988 4650 1302 4700
Q 1616 4750 1894 4750
Q 2613 4750 3031 4423
Q 3450 4097 3450 3541
Q 3450 3153 3228 2886
Q 3006 2619 2597 2516
z
" transform="scale(0.015625)"/>
     </defs>
     <use xlink:href="#DejaVuSans-28"/>
     <use xlink:href="#DejaVuSans-36" transform="translate(63.1875 0)"/>
     <use xlink:href="#DejaVuSans-33" transform="translate(126.671875 0)"/>
     <use xlink:href="#DejaVuSans-16" transform="translate(186.96875 0)"/>
     <use xlink:href="#DejaVuSans-15" transform="translate(250.59375 0)"/>
     <use xlink:href="#DejaVuSans-10" transform="translate(314.21875 0)"/>
     <use xlink:href="#DejaVuSans-33" transform="translate(350.296875 0)"/>
     <use xlink:href="#DejaVuSans-17" transform="translate(410.59375 0)"/>
     <use xlink:href="#DejaVuSans-3" transform="translate(474.21875 0)"/>
     <use xlink:href="#DejaVuSans-2a" transform="translate(506 0)"/>
     <use xlink:href="#DejaVuSans-33" transform="translate(583.484375 0)"/>
     <use xlink:href="#DejaVuSans-2c" transform="translate(643.78125 0)"/>
     <use xlink:href="#DejaVuSans-32" transform="translate(673.28125 0)"/>
     <use xlink:href="#DejaVuSans-3" transform="translate(752 0)"/>
     <use xlink:href="#DejaVuSans-15" transform="translate(783.78125 0)"/>
     <use xlink:href="#DejaVuSans-13" transform="translate(847.40625 0)"/>
    </g>
    <!-- (VROD_J1850_RX_GPIO) -->
    <g transform="translate(331.034531 47.656328) scale(0.11 -0.11)">
     <defs>
      <path id="DejaVuSans-42" d="M 3263 -1063
L 3263 -1509
L -63 -1509
L -63 -1063
L 3263 -1063
z
" transform="scale(0.015625)"/>
      <path id="DejaVuSans-3b" d="M 403 4666
L 1081 4666
L 2241 2931
L 3406 4666
L 4084 4666
L 2584 2425
L 4184 0
L 3506 0
L 2194 1984
L 872 0
L 191 0
L 1856 2491
L 403 4666
z
" transform="scale(0.015625)"/>
     </defs>
     <use xlink:href="#DejaVuSans-b"/>
     <use xlink:href="#DejaVuSans-39" transform="translate(39.015625 0)"/>
     <use xlink:href="#DejaVuSans-35" transform="translate(107.421875 0)"/>
     <use xlink:href="#DejaVuSans-32" transform="translate(176.90625 0)"/>
     <use xlink:href="#DejaVuSans-27" transform="translate(255.625 0)"/>
     <use xlink:href="#DejaVuSans-42" transform="translate(332.625 0)"/>
     <use xlink:href="#DejaVuSans-2d" transform="translate(382.625 0)"/>
     <use xlink:href="#DejaVuSans-14" transform="translate(412.125 0)"/>
     <use xlink:href="#DejaVuSans-1b" transform="translate(475.75 0)"/>
     <use xlink:href="#DejaVuSans-18" transform="translate(539.375 0)"/>
     <use xlink:href="#DejaVuSans-13" transform="translate(603 0)"/>
     <use xlink:href="#DejaVuSans-42" transform="translate(666.625 0)"/>
     <use xlink:href="#DejaVuSans-35" transform="translate(716.625 0)"/>
     <use xlink:href="#DejaVuSans-3b" transform="translate(786.109375 0)"/>
     <use xlink:href="#DejaVuSans-42" transform="translate(854.609375 0)"/>
     <use xlink:href="#DejaVuSans-2a" transform="translate(904.609375 0)"/>
     <use xlink:href="#DejaVuSans-33" transform="translate(982.09375 0)"/>
     <use xlink:href="#DejaVuSans-2c" transform="translate(1042.390625 0)"/>
     <use xlink:href="#DejaVuSans-32" transform="translate(1071.890625 0)"/>
     <use xlink:href="#DejaVuSans-c" transform="translate(1150.609375 0)"/>
    </g>
   </g>
  </g>
 </g>
 <defs>
  <clipPath id="pbf815074fc">
   <rect x="5.402531" y="0" width="463.104" height="214.96"/>
  </clipPath>
 </defs>
</svg>
